<svg xmlns="http://www.w3.org/2000/svg" width="466pt" height="320" version="1.1" viewBox="0 0 466 240">
    <g id="surface9">
        <path fill="#fff" fill-opacity="1" fill-rule="nonzero" stroke="none" d="M167.688 36.098C231.16-2.852 293.37 3.64 386.445 32.227 490.934 7.754 599.613 64.469 531.277 120.28c90.301 46.25 2.887 122.176-69.398 108.383 37.762 27.043-72.422 78.996-182.55 29.996-148.587 46.29-196.798 5.266-212.724-34.836-114.003-16.457-36.945-111.027-7.464-124.832-88.57-43.418 37.632-92.336 108.547-62.894zm0 0" transform="scale(.75)"/>
        <path fill="none" stroke="#000" stroke-linecap="butt" stroke-linejoin="miter" stroke-miterlimit="10" stroke-opacity="1" stroke-width="1.5" d="M126.96 27.518c48.35-28.3 92.085-25.43 164.406-2.794m-162.724.808c43.052-29.728 92.582-23.256 159.425-3.782m0 0C365.95 5.167 448.413 47.848 395.578 88.477M288.39 22.274c76.186-20.323 157.345 21.873 106.224 67.787m0 0c68.095 33.701 3.089 89.602-53.816 82.365m54.285-82.608c66.568 36.803-.114 89.763-52.857 79.184m0 0c28.971 21.553-56.333 61.162-137.432 24.114m136.485-23.018c28.544 20.782-54.352 59.32-138.53 20.592m0 0c-110.68 34.603-149.68 4.611-159.044-28.201m159.897 26.415c-110.877 37.798-147 7.402-158.863-24.634m0 0c-79.664-7.597-24.492-78.814-2.063-89.938m2.825 91.283c-81.782-10.679-21.87-82.772 1.137-93.641m0 0c-66.056-32.766 26.595-68.35 79.933-48.329M44.965 72.931C-19.931 40.644 74.4 1.418 130.27 27.255m-.345.363c-.648-2.309-2.283-1.54-3.29-.504m3.498.358c-.836 1.7-1.718 1.795-3.275.015"/>
    </g>
    <defs xmlns="http://www.w3.org/2000/svg">
        <filter id="dsFilterNoBlur" width="150%" height="150%">
            <feOffset dx="3" dy="3" in="SourceGraphic" result="offOut"/>
            <feColorMatrix in="offOut" result="matrixOut" type="matrix" values="0.2 0 0 0 0 0 0.2 0 0 0 0 0 0.2 0 0 0 0 0 1 0"/>
            <feBlend in="SourceGraphic" in2="matrixOut" mode="normal"/>
        </filter>
        <filter id="dsFilter" width="150%" height="150%">
            <feOffset dx="3" dy="3" in="SourceGraphic" result="offOut"/>
            <feColorMatrix in="offOut" result="matrixOut" type="matrix" values="0.2 0 0 0 0 0 0.2 0 0 0 0 0 0.2 0 0 0 0 0 1 0"/>
            <feGaussianBlur in="matrixOut" result="blurOut" stdDeviation="3"/>
            <feBlend in="SourceGraphic" in2="blurOut" mode="normal"/>
        </filter>
        <marker id="iPointer-o38u4z1bal" fill="#000" markerHeight="7" markerUnits="strokeWidth" markerWidth="8" orient="auto" refX="5" refY="5" viewBox="0 0 10 10">
            <path d="M10 0v10L0 5z"/>
        </marker>
        <marker id="Pointer-o38u4z1bal" fill="#000" markerHeight="7" markerUnits="strokeWidth" markerWidth="8" orient="auto" refX="5" refY="5" viewBox="0 0 10 10">
            <path d="M0 0l10 5-10 5z"/>
        </marker>
    </defs>
    <defs>
        <style type="text/css">
            @font-face{font-family:&quot;xkcd Script&quot;;src:url(./xkcd-script.ttf)}
        </style>
    </defs>
    ??
    <text id="text0" x="161.325" y="33.6" fill="#000" stroke="none" font-family="xkcd Script" font-size="15">
        air
    </text>
    <text id="text1" x="208.575" y="45.6" fill="#000" stroke="none" font-family="xkcd Script" font-size="15">
        gauze
    </text>
    <text id="text2" x="262.575" y="57.6" fill="#000" stroke="none" font-family="xkcd Script" font-size="15">
        rounded
    </text>
    <text id="text3" x="93.825" y="69.6" fill="#000" stroke="none" font-family="xkcd Script" font-size="15">
        fluffy
    </text>
    <text id="text4" x="181.575" y="81.6" fill="#000" stroke="none" font-family="xkcd Script" font-size="15">
        floating
    </text>
    <text id="text5" x="289.575" y="93.6" fill="#000" stroke="none" font-family="xkcd Script" font-size="15">
        ethereal
    </text>
    <text id="text6" x="147.825" y="105.6" fill="#000" stroke="none" font-family="xkcd Script" font-size="15">
        Wordsworth
    </text>
    <text id="text7" x="100.575" y="117.6" fill="#000" stroke="none" font-family="xkcd Script" font-size="15">
        soft
    </text>
    <text id="text8" x="188.325" y="129.6" fill="#000" stroke="none" font-family="xkcd Script" font-size="15">
        sunlight
    </text>
    <text id="text9" x="276.075" y="141.6" fill="#000" stroke="none" font-family="xkcd Script" font-size="15">
        Eloi
    </text>
    <text id="text10" x="154.575" y="153.6" fill="#000" stroke="none" font-family="xkcd Script" font-size="15">
        silent
    </text>
    <text id="text11" x="73.575" y="165.6" fill="#000" stroke="none" font-family="xkcd Script" font-size="15">
        weightless
    </text>
    <text id="text12" x="242.325" y="177.6" fill="#000" stroke="none" font-family="xkcd Script" font-size="15">
        feathery
    </text>
    <text id="text13" x="120.825" y="189.6" fill="#000" stroke="none" font-family="xkcd Script" font-size="15">
        Turner
    </text>
</svg>
