<svg xmlns="http://www.w3.org/2000/svg" width="684" height="240" version="1.1" viewBox="0 0 513 180">
    <g id="surface249">
        <path fill="#27bdce" fill-opacity="1" fill-rule="nonzero" stroke="none" d="M58.5 46.398h540v115.204h-378L166.5 200v-38.398h-108zm0 0" transform="scale(.75)"/>
        <path fill="none" stroke="#000" stroke-linecap="butt" stroke-linejoin="miter" stroke-miterlimit="10" stroke-opacity="1" stroke-width="1.5" d="M46.427 34.263c149.019 8.487 298.69 5.387 401.707-.358m-403.62 1.682c90.053-.542 180.266-.469 405.718-.079m-1.319-2.027c.774 14.633 3.282 35.856.173 89.091m.847-88.263c.132 18.53-.317 34.512-.12 88.146m2.173-1.752c-94.643-3.343-190.207-1.872-284.138.161m282.604.727c-99.092-1.916-195.294-3.14-283.27-.062m.721-1.558c-15.38 13.467-28.655 21.037-40.971 31.236m39.345-29.795c-13.55 8.49-29.587 19.102-40.02 28.934m.771 1.88c.833-9.703-.143-16.367-1.998-29.3m1.855 27.982c-1.456-8.265.062-14.437-1.729-29.139m2.857.408c-28.825.981-56.906-1.825-83.242.182m81.645-1.68c-30.588 1.17-60.73-.113-81.735 1.243m1.236.285c.465-23.274.343-49.902-1.845-87.976m1.623 87.592c-1.272-20.997-1.005-42.17-.117-86.292m-.449-.72c-.1.33-.003.319-.09.416m.023-.434c.03.351.015.51.009.483"/>
    </g>
    <defs xmlns="http://www.w3.org/2000/svg">
        <filter id="dsFilterNoBlur" width="150%" height="150%">
            <feOffset dx="3" dy="3" in="SourceGraphic" result="offOut"/>
            <feColorMatrix in="offOut" result="matrixOut" type="matrix" values="0.2 0 0 0 0 0 0.2 0 0 0 0 0 0.2 0 0 0 0 0 1 0"/>
            <feBlend in="SourceGraphic" in2="matrixOut" mode="normal"/>
        </filter>
        <filter id="dsFilter" width="150%" height="150%">
            <feOffset dx="3" dy="3" in="SourceGraphic" result="offOut"/>
            <feColorMatrix in="offOut" result="matrixOut" type="matrix" values="0.2 0 0 0 0 0 0.2 0 0 0 0 0 0.2 0 0 0 0 0 1 0"/>
            <feGaussianBlur in="matrixOut" result="blurOut" stdDeviation="3"/>
            <feBlend in="SourceGraphic" in2="blurOut" mode="normal"/>
        </filter>
        <marker id="iPointer-opldokm75i" fill="#000" markerHeight="7" markerUnits="strokeWidth" markerWidth="8" orient="auto" refX="5" refY="5" viewBox="0 0 10 10">
            <path d="M10 0v10L0 5z"/>
        </marker>
        <marker id="Pointer-opldokm75i" fill="#000" markerHeight="7" markerUnits="strokeWidth" markerWidth="8" orient="auto" refX="5" refY="5" viewBox="0 0 10 10">
            <path d="M0 0l10 5-10 5z"/>
        </marker>
    </defs>
    <defs>
        <style type="text/css">
            @font-face{font-family:&quot;xkcd Script&quot;;src:url(./xkcd-script.ttf)}
        </style>
    </defs>
    ??
    <text id="text0" x="66.825" y="69.6" fill="#fff" stroke="none" font-family="xkcd Script" font-size="15">
        Program to where the performance puck is going to be,
    </text>
    <text id="text1" x="66.825" y="81.6" fill="#fff" stroke="none" font-family="xkcd Script" font-size="15">
        not where it has been
    </text>
    <text id="text2" x="276.075" y="105.6" fill="#fff" stroke="none" font-family="xkcd Script" font-size="15">
        -
    </text>
    <text id="text3" x="289.575" y="105.6" fill="#fff" stroke="none" font-family="xkcd Script" font-size="15">
        DHH
    </text>
</svg>
