<svg xmlns="http://www.w3.org/2000/svg" width="684" height="224" version="1.1" viewBox="0 0 513 168">
    <g id="surface489">
        <path fill="#27bdce" fill-opacity="1" fill-rule="nonzero" stroke="none" d="M58.5 43.2h540v105.6h-378l-54 35.2v-35.2h-108zm0 0" transform="scale(.75)"/>
        <path fill="none" stroke="#000" stroke-linecap="butt" stroke-linejoin="miter" stroke-miterlimit="10" stroke-opacity="1" stroke-width="1.5" d="M46.427 31.863c149.019 8.485 298.69 5.388 401.707-.357m-403.62 1.681c90.052-.542 180.266-.468 405.718-.078m-1.319-2.028c.686 13.043 3.196 32.675.173 81.89m.847-81.06c.108 17.065-.34 31.582-.12 80.944m2.173-1.752c-94.643-3.34-190.207-1.87-284.138.161m282.604.726c-99.092-1.915-195.294-3.14-283.27-.061m.721-1.559c-15.398 12.618-28.672 19.339-40.971 28.838m39.345-27.396c-13.578 7.617-29.616 17.355-40.02 26.534m.771 1.88c.847-9.17-.129-15.298-1.998-26.9m1.855 25.582c-1.489-7.77.032-13.444-1.729-26.736m2.857.407c-28.825.982-56.906-1.828-83.242.179m81.645-1.68c-30.588 1.173-60.73-.113-81.735 1.244m1.236.284c.375-21.19.25-45.739-1.845-80.775m1.623 80.39c-1.216-19.297-.947-38.774-.117-79.089m-.449-.72c-.1.33-.003.319-.09.412m.023-.43c.03.352.015.506.009.483"/>
    </g>
    <defs xmlns="http://www.w3.org/2000/svg">
        <filter id="dsFilterNoBlur" width="150%" height="150%">
            <feOffset dx="3" dy="3" in="SourceGraphic" result="offOut"/>
            <feColorMatrix in="offOut" result="matrixOut" type="matrix" values="0.2 0 0 0 0 0 0.2 0 0 0 0 0 0.2 0 0 0 0 0 1 0"/>
            <feBlend in="SourceGraphic" in2="matrixOut" mode="normal"/>
        </filter>
        <filter id="dsFilter" width="150%" height="150%">
            <feOffset dx="3" dy="3" in="SourceGraphic" result="offOut"/>
            <feColorMatrix in="offOut" result="matrixOut" type="matrix" values="0.2 0 0 0 0 0 0.2 0 0 0 0 0 0.2 0 0 0 0 0 1 0"/>
            <feGaussianBlur in="matrixOut" result="blurOut" stdDeviation="3"/>
            <feBlend in="SourceGraphic" in2="blurOut" mode="normal"/>
        </filter>
        <marker id="iPointer-opldokm75i" fill="#000" markerHeight="7" markerUnits="strokeWidth" markerWidth="8" orient="auto" refX="5" refY="5" viewBox="0 0 10 10">
            <path d="M10 0v10L0 5z"/>
        </marker>
        <marker id="Pointer-opldokm75i" fill="#000" markerHeight="7" markerUnits="strokeWidth" markerWidth="8" orient="auto" refX="5" refY="5" viewBox="0 0 10 10">
            <path d="M0 0l10 5-10 5z"/>
        </marker>
    </defs>
    <defs>
        <style type="text/css">
            @font-face{font-family:&quot;xkcd Script&quot;;src:url(./xkcd-script.ttf)}
        </style>
    </defs>
    ??
    <text id="text0" x="66.825" y="57.6" fill="#fff" stroke="none" font-family="xkcd Script" font-size="15">
        Program to where the performance puck is going to be,
    </text>
    <text id="text1" x="66.825" y="69.6" fill="#fff" stroke="none" font-family="xkcd Script" font-size="15">
        not where it has been
    </text>
    <text id="text2" x="276.075" y="93.6" fill="#fff" stroke="none" font-family="xkcd Script" font-size="15">
        -
    </text>
    <text id="text3" x="289.575" y="93.6" fill="#fff" stroke="none" font-family="xkcd Script" font-size="15">
        DHH
    </text>
</svg>
