<svg xmlns="http://www.w3.org/2000/svg" width="122pt" height="128" version="1.1" viewBox="0 0 122 96">
    <g id="surface287">
        <path fill="#fff" fill-opacity="1" fill-rule="nonzero" stroke="none" d="M4.5 34c0-6.668 3.332-10 10-10h-1 126-1c6.668 0 10 3.332 10 10v28c0 6.668-3.332 10-10 10h1-126 1c-6.668 0-10-3.332-10-10zm0 0" transform="scale(.75)"/>
        <path fill="none" stroke="#fff" stroke-linecap="butt" stroke-linejoin="miter" stroke-miterlimit="10" stroke-opacity="1" stroke-width="1.5" d="M5.548 26.303c-1.072-5.51 1.515-7.84 7.762-6.987m-7.088 4.681c-1.98-4.778-.491-7.26 4.46-7.447m.035-.027c-.205-.026-.458-.032-.76-.058m.681.047c-.29-.012-.525-.065-.683-.015m-1.899-.498c33.833-1.09 61.102-.158 97.993 1.199m-96.59-.103c33.517.463 68.321 1.426 94.583-.079m.383-.571c-.202.673-.567.691-.755.16m.72-.055c-.205.949-.532.94-.688.032m1.148-1.198c4.694.179 6.68 2.965 5.96 8.364m-8.576-8.332c4.899 1.348 8.004 4.16 9.317 8.437m1.963-.111c-.842 5.69-2.872 11.965-3.915 19.225m.947-19.64c1.746 5.217.316 10.81 1.511 22.52m-1.297.249c1.33 4.804-.794 7.177-6.37 7.116m6.252-8.655c1.615 3.98-.35 7.038-5.897 9.177m.076-.094c.123-.668.451-.639.58.19m-.609-.094c.217.109.451.103.735-.032m-.032.66c-35.344.392-66.472-1.812-95.042-.057m96.056.408c-39.27-1.614-75.85-.185-95.666-.674m.11-.287c.159.09.558.126.844.041m-.784-.012c.131.035.231.02.709-.052m.055 1.338c-4.67-.958-7.447-3.753-8.332-8.382m7.19 9.03c-2.918-.654-5.177-3.358-6.774-8.112m-1.605.858c.392-4.11 3.665-12.741 1.503-23.06m-.656 22.503c1.69-7.852 2.372-14.443 1.336-21.412"/>
        <path fill="none" stroke="#000" stroke-linecap="butt" stroke-linejoin="miter" stroke-miterlimit="10" stroke-opacity="1" stroke-width="1.5" d="M10.82 4.585c-2.215 2.73-1.917 4.333.287 11.863M8.902 5.453c.65 2.343.308 6.421 1.134 12.184m-.559-.464c.205.094.454.03.738-.049m-.732-.009c.243.165.41.141.78.015m-.417.744c-4.655-.082-6.78-3.035-6.372-8.857m6.727 6.918c-4.668 1.672-6.543-.267-5.628-5.813m6.366 42.692c2.367 3.207.126 7.412 1.63 10.189m-.455-11.068c-.638 2.889.325 4.925.126 12.416M25.125 5.877c-.366 1.271-1.948 4.365-1.506 12.097m.109-13.485c.544 2.155.067 4.845.07 13.077m-2.446 35.868c2.786 5.01 1.947 8.722.195 14.121m1.067-13.107c-.117 3.844.182 9.29-.603 12.668M37.125 3.329c-1.07 2.434-1.462 6.5.15 13.192M36.068 5.018c.893 4.374 1.66 8.244 1.552 12.038m-1.986 37.296c-.51 2.03 1.904 5.577 1.356 13.927m-.89-13.236c-.715 3.008.061 6.677.216 11.435m14.6-63.026c-1.08 3.75-1.806 7.985-.531 14.457m.295-13.4c-.685 2.707.364 6.135.49 12.05M49.02 52.53c-.628 1.8.262 4.415-.276 14.097m.802-12.556c1.158 1.883-.026 3.934.303 11.03M63.738 8.707c-2.323 1.154-2.373 5.648-2.636 12.597m1.145-13.57c-.357 3.273-.785 6.009-.39 12.32m1.078 32.47c-.756 3.679 1.084 8.49 1.143 12.995m-.818-13.113c-.175 3.905-.269 6.815-.492 12.143m15.533-60.7c-.348 3.545.627 8.907 1.404 12.053M78.49 5.496c1.443.267 1.192 3.187.673 11.22m-.229 35.974c-.096 4.395-.22 5.312 1.05 11.64m-.329-11.268c-.035 3.95.398 6.305.31 12.182m9.99-58.972c-.304 3.18.03 5.353-.049 8.971m-.325-10.225c-.668 1.073.44 3.733-.72 11.555M90.63 54.99c-.184 2.23-.87 5.797.143 13.081m-1.16-12.843c1.653 2.967.542 6.952.24 11.13m16.99-59.292c.776 3.753.624 5.306 1.315 9.738m-1.456-10.757c.114 6.463-.66 11.126.533 12.093m-.557.03c-.228-1.6-.433-1.535-.79-.024m.644-.04c-.17.954-.398.87-.74-.01m-1.14-.503c5.859 1.014 8.624-1.395 8.293-7.225m-5.744 7.432c3.98.903 5.834-1.986 5.56-8.668m-8.599 46.28c-2.212 4.022-1.96 6.114-2.797 11.945m2.203-12.003c-.944 2.545-.715 6.96-1.477 10.681"/>
    </g>
    <defs xmlns="http://www.w3.org/2000/svg">
        <filter id="dsFilterNoBlur" width="150%" height="150%">
            <feOffset dx="3" dy="3" in="SourceGraphic" result="offOut"/>
            <feColorMatrix in="offOut" result="matrixOut" type="matrix" values="0.2 0 0 0 0 0 0.2 0 0 0 0 0 0.2 0 0 0 0 0 1 0"/>
            <feBlend in="SourceGraphic" in2="matrixOut" mode="normal"/>
        </filter>
        <filter id="dsFilter" width="150%" height="150%">
            <feOffset dx="3" dy="3" in="SourceGraphic" result="offOut"/>
            <feColorMatrix in="offOut" result="matrixOut" type="matrix" values="0.2 0 0 0 0 0 0.2 0 0 0 0 0 0.2 0 0 0 0 0 1 0"/>
            <feGaussianBlur in="matrixOut" result="blurOut" stdDeviation="3"/>
            <feBlend in="SourceGraphic" in2="blurOut" mode="normal"/>
        </filter>
        <marker id="iPointer-6kj71dtaepi" fill="#000" markerHeight="7" markerUnits="strokeWidth" markerWidth="8" orient="auto" refX="5" refY="5" viewBox="0 0 10 10">
            <path d="M10 0v10L0 5z"/>
        </marker>
        <marker id="Pointer-6kj71dtaepi" fill="#000" markerHeight="7" markerUnits="strokeWidth" markerWidth="8" orient="auto" refX="5" refY="5" viewBox="0 0 10 10">
            <path d="M0 0l10 5-10 5z"/>
        </marker>
    </defs>
    <defs>
        <style type="text/css">
            @font-face{font-family:&quot;xkcd Script&quot;;src:url(./xkcd-script.ttf)}
        </style>
    </defs>
    <g xmlns="http://www.w3.org/2000/svg" id="lines-6kj71dtaepi" fill="none" stroke="#000" stroke-width="2" transform="scale(.75)">
        <g id="group28">
            <path id="path28" d="M13.5 8v16h1q-10 0-10-10"/>
        </g>
        <g id="group32">
            <path id="path32" d="M13.5 72v16"/>
        </g>
        <g id="group45">
            <path id="path45" d="M31.5 8v16"/>
        </g>
        <g id="group49">
            <path id="path49" d="M31.5 72v16"/>
        </g>
        <g id="group62">
            <path id="path62" d="M49.5 8v16"/>
        </g>
        <g id="group66">
            <path id="path66" d="M49.5 72v16"/>
        </g>
        <g id="group79">
            <path id="path79" d="M67.5 8v16"/>
        </g>
        <g id="group83">
            <path id="path83" d="M67.5 72v16"/>
        </g>
        <g id="group96">
            <path id="path96" d="M85.5 8v16"/>
        </g>
        <g id="group100">
            <path id="path100" d="M85.5 72v16"/>
        </g>
        <g id="group113">
            <path id="path113" d="M103.5 8v16"/>
        </g>
        <g id="group117">
            <path id="path117" d="M103.5 72v16"/>
        </g>
        <g id="group130">
            <path id="path130" d="M121.5 8v16"/>
        </g>
        <g id="group134">
            <path id="path134" d="M121.5 72v16"/>
        </g>
        <g id="group147">
            <path id="path147" d="M139.5 8v16h-1q10 0 10-10"/>
        </g>
        <g id="group151">
            <path id="path151" d="M139.5 72v16"/>
        </g>
    </g>
    <text id="text0" x="66.825" y="45.6" fill="#000" stroke="none" font-family="xkcd Script" font-size="15">
        NVIDIA
    </text>
</svg>
