<svg xmlns="http://www.w3.org/2000/svg" width="419pt" height="384" version="1.1" viewBox="0 0 419 288">
    <path id="surface13" fill="none" stroke="#000" stroke-linecap="butt" stroke-linejoin="miter" stroke-miterlimit="10" stroke-opacity="1" stroke-width="1.5" d="M374.104 89.32c.738-13.977-35.462-22.76-81.355-22.954m80.253 22.066c-1.213-13.924-33.032-21.515-80.819-24.957m0 0c-41.727 1.578-78.765 12-80.923 24.77m79.948-25.673c-42.299 2.63-76.81 15.595-79.536 25.922m0 0c-1.057 13.933 36.15 22.14 81.338 24.31m-80.016-23.109c.433 14.64 37.295 22.026 80.28 24.211m0 0c43.453-2.754 81.336-13.02 78.81-25.678m-77.542 25.608c43.298-3.677 80.004-12.8 78.451-24.88m-.146-.017c.327-1.6.843-1.356 1.137.258m-.985-.19c.24-1.586.513-1.354 1.162.313M55.544 4.564c4.772 82.296 2.006 161.883.108 240.615M57.416 5.704c-2.1 71.063-1.535 142.664-1.081 240.334m-.188.205c80.631 3.653 162.587 3.926 352.752-.78m-351.697-.731c117.006-1.518 234.14.421 351.027.39"/>
    <defs xmlns="http://www.w3.org/2000/svg">
        <filter id="dsFilterNoBlur" width="150%" height="150%">
            <feOffset dx="3" dy="3" in="SourceGraphic" result="offOut"/>
            <feColorMatrix in="offOut" result="matrixOut" type="matrix" values="0.2 0 0 0 0 0 0.2 0 0 0 0 0 0.2 0 0 0 0 0 1 0"/>
            <feBlend in="SourceGraphic" in2="matrixOut" mode="normal"/>
        </filter>
        <filter id="dsFilter" width="150%" height="150%">
            <feOffset dx="3" dy="3" in="SourceGraphic" result="offOut"/>
            <feColorMatrix in="offOut" result="matrixOut" type="matrix" values="0.2 0 0 0 0 0 0.2 0 0 0 0 0 0.2 0 0 0 0 0 1 0"/>
            <feGaussianBlur in="matrixOut" result="blurOut" stdDeviation="3"/>
            <feBlend in="SourceGraphic" in2="blurOut" mode="normal"/>
        </filter>
        <marker id="iPointer-mwv1s9vhat" fill="#000" markerHeight="7" markerUnits="strokeWidth" markerWidth="8" orient="auto" refX="5" refY="5" viewBox="0 0 10 10">
            <path d="M10 0v10L0 5z"/>
        </marker>
        <marker id="Pointer-mwv1s9vhat" fill="#000" markerHeight="7" markerUnits="strokeWidth" markerWidth="8" orient="auto" refX="5" refY="5" viewBox="0 0 10 10">
            <path d="M0 0l10 5-10 5z"/>
        </marker>
    </defs>
    <defs>
        <style type="text/css">
            @font-face{font-family:&quot;xkcd Script&quot;;src:url(./xkcd-script.ttf)}
        </style>
    </defs>
    <g xmlns="http://www.w3.org/2000/svg" id="lines-mwv1s9vhat" fill="none" stroke="#000" stroke-width="2" transform="scale(.75)">
        <g id="group197">
            <path id="path197" marker-end="url(#Pointer-mwv1s9vhat)" marker-start="url(#iPointer-mwv1s9vhat)" d="M76.5 8v320h468"/>
        </g>
    </g>
    <text id="text3" x="215.325" y="93.6" fill="#000" stroke="none" font-family="xkcd Script" font-size="15">
        •
    </text>
    <text id="text4" x="228.825" y="93.6" fill="#000" stroke="none" font-family="xkcd Script" font-size="15">
        Elastic Beanstalk app
    </text>
    <text id="text0" x="6.075" y="21.6" fill="#000" font-family="xkcd Script" font-size="15">
        utility
    </text>
    <text id="text1" x="80.325" y="21.6" fill="#000" font-family="xkcd Script" font-size="15">
        •
    </text>
    <text id="text2" x="93.825" y="21.6" fill="#000" font-family="xkcd Script" font-size="15">
        SETI
    </text>
    <text id="text5" x="343.575" y="213.6" fill="#000" font-family="xkcd Script" font-size="15">
        •
    </text>
    <text id="text6" x="357.075" y="213.6" fill="#000" font-family="xkcd Script" font-size="15">
        Bitcoin
    </text>
    <text id="text7" x="289.575" y="261.6" fill="#000" font-family="xkcd Script" font-size="15">
        power consumption
    </text>
</svg>
