<svg xmlns="http://www.w3.org/2000/svg" width="385pt" height="432" version="1.1" viewBox="0 0 385 324">
    <g id="surface245">
        <path fill="#fff" fill-opacity="1" fill-rule="nonzero" stroke="none" d="M67.5 376h396M75.422 72v304m0 0S225.898 345.602 265.5 72M75.422 376l31.68-60.8 79.199-60.802L463.5 193.602M67.5 376zm0 0" transform="scale(.75)"/>
        <path fill="none" stroke="#000" stroke-linecap="butt" stroke-linejoin="miter" stroke-miterlimit="10" stroke-opacity="1" stroke-width="1.5" d="M53.177 281.464c108.747 7.175 218.147 4.078 293.707-.36m-295.62 1.684c66.123-.299 132.407-.226 297.718-.08M53.475 54.049c.75 53.782-1.315 106.628-.6 230.234m1.754-227.718c-.864 63.477-.398 130.884.598 227.886m-2.338 1.28c114.487-27.18 115.958-25.255 145.293-230.635M52.108 286.665c118.268-27.607 114.715-26.638 147.638-235.255M58.454 281.37c8.882-18.562 16.15-32.605 23.87-48.756M58.33 279.302c6.665-14.145 15.613-30.158 22.108-45.267m1.643-1.095c18.994-12.566 38.877-28.949 59.485-44.3m-61.333 45.19c16.248-12.005 29.308-24.413 60.858-45.55m1.477-.502c44.138-5.577 87.802-13.936 207.395-45.29m-208.614 45.595c58.76-9.797 117.301-21.097 206.203-45.193M49.957 282.624c.487.802 1.04.572 1.732-.252m-1.76.203c.39-.435.89-.548 1.96-.033M203.669 19.08c2.751 1.203.314 6.184 2.446 10.13m-.881-12.085c-.416 2.897-.545 8.373-.233 12.741"/>
    </g>
    <defs xmlns="http://www.w3.org/2000/svg">
        <filter id="dsFilterNoBlur" width="150%" height="150%">
            <feOffset dx="3" dy="3" in="SourceGraphic" result="offOut"/>
            <feColorMatrix in="offOut" result="matrixOut" type="matrix" values="0.2 0 0 0 0 0 0.2 0 0 0 0 0 0.2 0 0 0 0 0 1 0"/>
            <feBlend in="SourceGraphic" in2="matrixOut" mode="normal"/>
        </filter>
        <filter id="dsFilter" width="150%" height="150%">
            <feOffset dx="3" dy="3" in="SourceGraphic" result="offOut"/>
            <feColorMatrix in="offOut" result="matrixOut" type="matrix" values="0.2 0 0 0 0 0 0.2 0 0 0 0 0 0.2 0 0 0 0 0 1 0"/>
            <feGaussianBlur in="matrixOut" result="blurOut" stdDeviation="3"/>
            <feBlend in="SourceGraphic" in2="blurOut" mode="normal"/>
        </filter>
        <marker id="iPointer-sp4aj850hzd" fill="#000" markerHeight="7" markerUnits="strokeWidth" markerWidth="8" orient="auto" refX="5" refY="5" viewBox="0 0 10 10">
            <path d="M10 0v10L0 5z"/>
        </marker>
        <marker id="Pointer-sp4aj850hzd" fill="#000" markerHeight="7" markerUnits="strokeWidth" markerWidth="8" orient="auto" refX="5" refY="5" viewBox="0 0 10 10">
            <path d="M0 0l10 5-10 5z"/>
        </marker>
    </defs>
    <defs>
        <style type="text/css">
            @font-face{font-family:&quot;xkcd Script&quot;;src:url(./xkcd-script.ttf)}
        </style>
    </defs>
    <g xmlns="http://www.w3.org/2000/svg" id="lines-sp4aj850hzd" fill="none" stroke="#000" stroke-width="2" transform="scale(.75)">
        <g id="group815">
            <path id="path815" marker-start="url(#iPointer-sp4aj850hzd)" d="M274.5 24v16"/>
        </g>
    </g>
    <text id="text2" x="201.825" y="69.6" fill="#000" stroke="none" font-family="xkcd Script" font-size="15">
        compute
    </text>
    <text id="text3" x="289.575" y="177.6" fill="#000" stroke="none" font-family="xkcd Script" font-size="15">
        storage
    </text>
    <text id="text0" x="215.325" y="21.6" fill="#000" font-family="xkcd Script" font-size="15">
        Jackpot
    </text>
    <text id="text1" x="19.575" y="69.6" fill="#000" font-family="xkcd Script" font-size="15">
        cost
    </text>
    <text id="text4" x="316.575" y="297.6" fill="#000" font-family="xkcd Script" font-size="15">
        data
    </text>
</svg>
