<svg xmlns="http://www.w3.org/2000/svg" width="468" height="352" version="1.1" viewBox="0 0 351 264">
    <g id="surface241">
        <path fill="#fff" fill-opacity="1" fill-rule="nonzero" stroke="none" d="M5.996 12.918v46.066c-.008 2.106-.398 4.48 2.797 4.309h32.809c3.378 5.687-15.72 3.789-19.934 3.887-.316 14.324 9.754 19.05 26.184 18.574 16.683.52 27.66-4.078 26.953-18.442-3.7.141-24.399 1.485-21.473-4.238h37.105c2.458-.023 3.118-1.25 2.922-3.039V13.582c-.035-1.36-1.52-3.172-3.953-3.516H9.234c-1.851.04-3.363.477-3.238 2.852zm0 0" transform="scale(.75)"/>
        <path fill="none" stroke="#000" stroke-linecap="butt" stroke-linejoin="miter" stroke-miterlimit="10" stroke-opacity="1" stroke-width="1.5" d="M7.048 9.152C5.18 24.776 3.832 34.562 3.756 43.345m1.38-32.868c.536 8.185 1.01 15.913.718 34.47m-.162-.26c-1.488.419-2.065 1.93.437 5.045m-2.207-3.965c2.922-2.038 2.055 1.975 4.331.918m1.497-1.448c3.401.815 13.292 1.984 22.72-.565m-25.242 1.69c9.712 1.19 18.589 1.02 24.222-.715m-.249 1.038c.451 4.924-10.939 1.054-14.191 2.803m15.415-3.037c2.758 6.163-15.11 3.187-14.76 4.443m0 0c-2.234 11.603 8.081 15.636 20.266 15.08M19.494 49.078c-.676 10.805 3.645 14.663 17.08 15.161m0 0c10.88 1.295 19.073-2.103 20.587-14.033M38.353 66.205c10.268-2.875 20.566-7.464 18.294-14.559m0 0c-1.145 1.028-20.305.061-17.99-4.74m19.02 3.272c-2.532 4.06-20.866 5.007-19.419-1.4m1.485-.925c7.266 2.466 18.027 3.298 24.484 1.62m-26.895-1.216c6.32 1.467 12.378.228 29.719.946m-.964-.425c3.653.053 2.622-1.936 2.751-2.086m-3.32.738c3.973 1.767 3.022.408 4.26-2.322m1.465-1.187c-1.687-9.29.83-21.003-2.739-31.706m.917 33.783c.674-14.83.592-29.118 1.037-36.229m-.68.42c.065.93-.36-1.36-2.551-4.495m3.8 2.397c-.54 3.525-2.429.331-6.016.618m-.058.047C55.479 7.412 42.48 9.49 6.764 7.577m59.273 1.644c-24.709.378-47.58-1.248-58.684-1.084m-.428.57c-2.988-.782-3.065.844-.528 4.103m-.375-2.541c.947-3.026.95-1.681-3.418 1.328m-.194-.402c1.371.214 2.33-.624 2.991-1.201m-2.899 1.563c.808-.36 1.535-.553 3.223-1.623"/>
        <path fill="#fff" fill-opacity="1" fill-rule="nonzero" stroke="none" d="M113.996 12.918v46.066c-.008 2.106-.398 4.48 2.797 4.309h32.809c3.378 5.687-15.72 3.789-19.934 3.887-.316 14.324 9.754 19.05 26.184 18.574 16.683.52 27.66-4.078 26.953-18.442-3.7.141-24.399 1.485-21.473-4.238h37.106c2.457-.023 3.117-1.25 2.921-3.039V13.582c-.035-1.36-1.52-3.172-3.953-3.516h-80.172c-1.851.04-3.363.477-3.238 2.852zm0 0" transform="scale(.75)"/>
        <path fill="none" stroke="#000" stroke-linecap="butt" stroke-linejoin="miter" stroke-miterlimit="10" stroke-opacity="1" stroke-width="1.5" d="M83.777 10.532c.698 12.36-.132 25.562-.354 33.413m1.998-33.67c-1.236 6.445.372 16.717.533 34.172m-1.025-.268c-.653 2.702.811 2.365 2.056 2.303m-1.897-1.373c2.144 1.242.099 4.072 1.86.747m-.27-1.251c8.783 2.962 21.384 1.594 24.606.304m-23.87.53c8.598-1.523 16.402-.893 25.464.091m-.676.326c3.149 3.022-12.083 2.542-13.908 3.087m11.892-1.98c3.427 1.532-11.426.768-11.186 2.654m0 0c-.458 10.067 6.035 13.617 21.161 12.194M99.124 48.09c-1.744 14.795 5.953 16.825 18.178 13.81m0 0c12.623-1.212 19.028-1.07 21.594-14.93m-22.552 15.874c14.64.343 20.379-2.897 18.92-16.471m0 0c-2.901-1.537-17.675 3.059-16.146-4.078m14.593 4.845c-2.666 1.624-18.448.745-14.868-5.674m-1.694-.41c8.415-1.491 14.333-.08 31.594-1.603m-28.957 2.895c9.67 1.016 17.904.864 26.575-.173m.314-.71c1.283-1.385.41.716 1.693-2.867m-3.24 3.975c4.333.958 3.867-1.28 6.056-3.443m-1.58.537c1.126-6.685.358-13.983 2.286-28.07m-1.008 26.643c1.151-9.48 1.462-19.116-.405-27.574m.706-.48c-.957-3.12.551-4.163-2.46-2.438m4.186 2.754c-3.463-3.92-4.18-3.835-5.789-3.891m-.372-1.992c-16.336 2.708-32.484 2.702-58.107 1.491m58.025-.46c-23.326.297-48.331 1.357-59.355.548m-.32.413c-.188-.84-4.095-.577-3.861 4.088m2.941-5.433c.27.062-1.386 1.659.926 2.45m.082-.15c-.46-.752-1.353.15-1.954 1.831m1.869-1.503c-.58.42-1.295.833-2.215 1.75"/>
        <path fill="#fff" fill-opacity="1" fill-rule="nonzero" stroke="none" d="M221.996 12.918v46.066c-.008 2.106-.398 4.48 2.797 4.309h32.809c3.378 5.687-15.72 3.789-19.934 3.887-.316 14.324 9.754 19.05 26.184 18.574 16.683.52 27.66-4.078 26.953-18.442-3.7.141-24.399 1.485-21.473-4.238h37.106c2.457-.023 3.117-1.25 2.921-3.039V13.582c-.035-1.36-1.52-3.172-3.953-3.516h-80.172c-1.851.04-3.363.477-3.238 2.852zm0 0" transform="scale(.75)"/>
        <path fill="none" stroke="#000" stroke-linecap="butt" stroke-linejoin="miter" stroke-miterlimit="10" stroke-opacity="1" stroke-width="1.5" d="M166.924 9.395c.807 16.301.566 28.887 2.819 33.68m-2.071-34.787c.583 7.122-.053 14.42 1.902 33.88m-.976.907c1.4-.486.474 2.124.275 4.58m-.41-5.177c-1.078 1.25-2.124 3.032 4.609 3.45m-.941-1.2c6.343 1.374 9.709 4.998 20.877 1.523m-19.468-.84c4.588.98 7.776.901 19.67-.293m-.008.81c4.5 4.521-10.86 3.516-14.289 3.393m13.418-2.982c1.758 1.825-10.904 3.43-16.353.7m0 0c1.136 9.422 5.52 13.972 18.243 12.896m-18.985-11.923c-1.119 10.154 8.09 13.423 18.24 12.814m0 0c14.21.879 22.12-3.246 20.726-14.598m-19.005 14.097c13.119 1 17.882-.915 16.086-12.528m0 0c-.823.238-18.363 1.952-17.428-4.707m17.416 5.042c-.99 1.06-19.655 3.252-14.63-1.987m2.042.314c3.888-1.104 10.801-3.038 26.232 1.336m-29.311-.622c9.787 1.266 16.804 1.228 28.497-.418m.369-.61c3.275 1.225.562-2.03 2.482-1.921m-1.512 3.914c-.909-3.756-.926-3.988 2.87-6.088m1.536 1.4c-1.784-10.356-2.977-18.592-.49-35.01m-.967 34.413c.52-13.079 1.03-23.628.215-33.613m-.293.947c-1.447-.636.577-.888-2.212-2.59m1.863.718c-2.138-1.41-2.458-2.602-2.347-.633m-1.04.164c-14.616 3-35.234.32-61.02-1.155m61.823 1.518c-23.97 1.746-47.213.346-58.866-.12m-1.026-.407c-2.953-1.12-4.215-.528-1.766 1.052m-.036-3.012c.39 2.335.114 1.564-3.07 6.682m-.641-1.148c2.45 1.734 3.887 2.736 7.904-2.385m-6.706 3.36c2.74.598 4.86-1.368 7.06-3.565"/>
        <path fill="#fff" fill-opacity="1" fill-rule="nonzero" stroke="none" d="M329.996 12.918v46.066c-.008 2.106-.398 4.48 2.797 4.309h32.809c3.378 5.687-15.72 3.789-19.934 3.887-.316 14.324 9.754 19.05 26.184 18.574 16.683.52 27.66-4.078 26.953-18.442-3.7.141-24.399 1.485-21.473-4.238h37.106c2.457-.023 3.117-1.25 2.921-3.039V13.582c-.035-1.36-1.52-3.172-3.953-3.516h-80.172c-1.851.04-3.363.477-3.238 2.852zm0 0" transform="scale(.75)"/>
        <path fill="none" stroke="#000" stroke-linecap="butt" stroke-linejoin="miter" stroke-miterlimit="10" stroke-opacity="1" stroke-width="1.5" d="M245.825 12.982c1.842 9.703.758 18.644-.962 34.655m1.11-36.484c1.108 6.55-.026 11.848-.351 33.695m.794.82c-.706 1.107-.015 3.14 2.473 4.207m-1.363-4.09c.138 1.653-2.962.642 2.645 1.969m-1.487.858c6.829-3.635 13.321-2.774 26.786.797m-26.121-1.25c8.836-1.963 16.89-1.934 24.401.527m.452-.932c2.788 5.599-12.23 2.291-16.946 4.892m17.338-4.827c2.382 3.85-11.848 2.243-14.511 1.801m0 0c-1.304 12.542 5.903 13.037 19.002 12.398m-17.32-10.617c-.077 10.641 7.036 10.436 15.767 11.42m0 0c13.934.267 20.693-1.977 20.353-13.954m-18.756 12.589c11.815 1.368 19.986-1.339 20.557-11.573m0 0c-3.037 1.673-17.51.965-17.522-3.676m16.825 5.074c-2.976-1.594-17.97-2.619-13.328-6.109m.288 1.568c4.963 1.066 15.316.369 29.573-2.88m-30.32 1.796c11.807-.6 22.825-.879 28.556-.243m-.267-.24c3.6.34 1.327-.427.794-3.502m-.337 5.362c1.854-3.882 3.978-5.244.205-5.66m-.525-.563c2.075-13.576 2.509-24.369 1.493-30.542m-.168 30.812c-.188-8.364-1.907-16.101-1.547-31.207m.747.313c1.263-.21.864-4.432-4.678-1.66m4.395 1.154c1.897-2.171.014-.208-1.932-4.17m1.368-.442C293.452.595 276.146.12 253.582 4.765m57.37.037c-21.373-.74-44.411.24-59.883 1.62m.741-.91c-1.804-.927-1.72-.25-4.315 3.486m5.563-3.783c-4.872 1.497-5.856 1.673-5.08 4.908m.065-.065c-.19 2.207-.73 2.133-1.864.905m1.849-.954c-.48 3.084-.964 3.175-1.559 1.008"/>
        <path fill="#fff" fill-opacity="1" fill-rule="nonzero" stroke="none" d="M5.996 124.918v46.066c-.008 2.106-.398 4.48 2.797 4.309h32.809c3.378 5.687-15.72 3.789-19.934 3.887-.316 14.324 9.754 19.05 26.184 18.574 16.683.52 27.66-4.078 26.953-18.441-3.7.14-24.399 1.484-21.473-4.239h37.105c2.458-.023 3.118-1.25 2.922-3.039v-46.453c-.035-1.36-1.52-3.172-3.953-3.516H9.234c-1.851.04-3.363.477-3.238 2.852zm0 0" transform="scale(.75)"/>
        <path fill="none" stroke="#000" stroke-linecap="butt" stroke-linejoin="miter" stroke-miterlimit="10" stroke-opacity="1" stroke-width="1.5" d="M5.977 95.361c-1.69 8.924-.003 19.395 0 31.79m-1.12-33.518c-.272 10.157-.937 19.617-1.253 36.32m.735-.916c1.271 1.557-.15 4.358 3.047 1.943m-1.544-1.871c.882 1.71-2.675 2.135.95 1.722m-1.23-1.676c4.92 1.517 10.17 3.926 25.838.323m-24.7 1.687c5.51.281 12.302.72 25.335-.313m-.833-.021c1.578 5.938-10.592 2.824-16.082 3.715m16.028-4.934c.226 5.446-10.998 6.355-12.38 4.764m0 0c-1.735 10.817 7.133 13.251 19.825 12.44m-19.655-13.51c.457 13.656 4.72 14.734 21.58 13.158m0 0c11.645 1.195 20.53-3.258 20.437-15.465m-20.856 16.868c13.635.993 19.119-3 19.614-16.503m0 0c-1.72.36-19.746 1.114-14.215-4.526m16.07 3.076c-3.048 3.668-22.46 3.882-15.53-1.509m-.423-.349c5.007 1.363 11.797 2.447 28.5.941m-28.83-1.193c8.25 1.677 15.805 2.04 29.612-.222m-1.031.823c2.198 2.05 1.973-.577 2.523-3.518m-4.061 3.492c3.565-1.131 3.25-1.978 3.226-.794m.53-1.497c-1.145-6.01-2.209-14.772-2.584-33.378m1.113 35.669c-.527-13.55-.108-26.004 1.89-34.987m-.95-.647c.87.21.625-3.073-4.898-4.184m6.156 5.45c.316-3.325-2.535-1.24-2.019-3.19m-.814-.03c-17.546-.811-34.667-1.62-68.084.767m68.488 0c-18.94-.143-36.862-1.49-67.066-1.614m-.39.876c-2.573-1.778-3.571.278-3.592 2.019m2.686-2.956c-2.053-.926-.237-.63-1.581 5.162m-.018-.044c.003-.143.023-.305-.038-.501m.065.54a8.07 8.07 0 0 0-.094-.59"/>
        <path fill="#fff" fill-opacity="1" fill-rule="nonzero" stroke="none" d="M113.996 124.918v46.066c-.008 2.106-.398 4.48 2.797 4.309h32.809c3.378 5.687-15.72 3.789-19.934 3.887-.316 14.324 9.754 19.05 26.184 18.574 16.683.52 27.66-4.078 26.953-18.441-3.7.14-24.399 1.484-21.473-4.239h37.106c2.457-.023 3.117-1.25 2.921-3.039v-46.453c-.035-1.36-1.52-3.172-3.953-3.516h-80.172c-1.851.04-3.363.477-3.238 2.852zm0 0" transform="scale(.75)"/>
        <path fill="none" stroke="#000" stroke-linecap="butt" stroke-linejoin="miter" stroke-miterlimit="10" stroke-opacity="1" stroke-width="1.5" d="M83.954 94.963c.026 11.528 1.517 19.234.102 35.49m1.37-36.281c-.556 10.02.168 19.617-.052 36.26m.006-.785c1.093.66 1.427 4.82.103 3.798m1.465-2.37c-2.213-2.365-1.712 1.848 2.282.175m-1.43-1.02c6.78 3.903 13.146.92 24.624 2.608m-23.828-1.728c5.919.867 12.68.881 23.5-.762m.105.902c4.398 4.523-11.226 3.334-16.532 1.199m14.601-3.089c2.59 4.606-11.847 2.467-15.524 2.719m0 0c-1.933 12.624 6.671 14.051 18.443 14.382M95.663 132.9c-.27 8.335 7.547 11.365 20.2 13.102m0 0c13.858-.841 19.365-2.593 19.205-14.517m-18.6 15.316c12.47 1.301 21.567-3.934 20.533-13.766m0 0c-1.462 1.597-19.503 2.833-15.791-3.405m17.52 5.098c-3.349-.949-18.745-.835-16.75-3m-.694-1.272c9.372 3.141 13.09 3.478 29.871 3.194m-28.392-2.089c4.067-2.021 11.376-.779 28-.478m-.955.645c1.623-2.074 3.439.981 3.328-3.427m-4.527 2.49c2.277 1.98 3.516-.65 3.264.433m-1.509-.52c.593-8.784 2.318-17.72.788-33.517m.355 33.299c-.302-13.292 1.476-24.539-.056-34.64m.422.539c1.286-1.612-2.118-3.282-.876-2.9m.533 2.24c2.61 1.74-.378-1.333-2.08-2.094m-1.86 1.321c-11.945-.908-27.02.015-56.2.56m57.72-2.553c-15.454.08-31.552.478-60.061.86m.273-.188c-.692-.543-2.617 2.012-2.087.27m1.418-2.157c-1.725 2.525-.673.342-2.047 1.617m-.089.024c-.02 1.057-.738 1.473-.867 1.933m1.014-1.91c-.522-.203-.83.58-1.242 1.635"/>
        <path fill="#ef5ba1" fill-opacity="1" fill-rule="nonzero" stroke="none" d="M221.996 124.918v46.066c-.008 2.106-.398 4.48 2.797 4.309h32.809c3.378 5.687-15.72 3.789-19.934 3.887-.316 14.324 9.754 19.05 26.184 18.574 16.683.52 27.66-4.078 26.953-18.441-3.7.14-24.399 1.484-21.473-4.239h37.106c2.457-.023 3.117-1.25 2.921-3.039v-46.453c-.035-1.36-1.52-3.172-3.953-3.516h-80.172c-1.851.04-3.363.477-3.238 2.852zm0 0" transform="scale(.75)"/>
        <path fill="none" stroke="#000" stroke-linecap="butt" stroke-linejoin="miter" stroke-miterlimit="10" stroke-opacity="1" stroke-width="1.5" d="M166.151 92.511c.206 7.623-1.4 19.374-1.04 32.39m.932-33.32c-.765 13.047-1.752 27.428-1.275 35.43m.24-.34c-.462 1.28-.336 2.774 2.54 3.96m-3.567-5.973c1.045 3.833 1.444 7.898.916 7.583m-.512 1.153c8.739-2.218 15.896-.63 30.185-2.144m-30.692 1.59c9.938-1.203 20.13-1.842 28.94.446m.384-1.046c1.03 2.546-10.011 3.542-14.42 4.612m12.52-5.61c6.86 7.125-9.371 1.631-12.875 5.56m0 0c-1.052 10.14 6.123 12.319 19.655 14.282m-19.073-14.748c-1.033 10.225 5.32 14.311 17.216 12.164m0 0c11.425 2.37 19.573-3.762 19.423-13.09m-17.443 12.507c11.15 2.526 20.156-1.072 17.51-14.51m0 0c-3.228-.502-19.795-.173-15.734-4.433m14.127 4.213c1.1 1.96-16.15-1.09-14.485-4.196m2.08 1.91c6.153-3.281 16.541-5.566 26.411-.759m-28.657-1.485c9.723 1.565 17.466 2.083 27.82-.152m.176.486c.942 1.301 2.258.733 2.015-4.04m-3.375 3.698c1.617-1.149 1.91.978 3.782-1.237m.7 1.676c.82-19.073.622-30.603-2.592-37.242m2.788 35.891c-.281-11.396.37-18.48-1.605-36.111m.709.947c1.638.799-.682-.87-1.89-2.464m-.108 1.83c2.265-2.205.809-4.166-3.187.033m1.962 2.018c-16.063-6.217-28.593-4.382-60.202-.334m57.562-2.194c-17.685 2.185-36.435 3.688-60.486.468m1.032.042c-.713.454-1.703-.756-3.09 1.113m1.713-.231c2.097-3.235-3.513-1.214-.156.515m.088-.277c.522-2.14 1.002-2.665 1.99-1.039m-2.004 1.216c.418-2.089.826-2.396 1.957-1.031"/>
        <path fill="#fff" fill-opacity="1" fill-rule="nonzero" stroke="none" d="M329.996 124.918v46.066c-.008 2.106-.398 4.48 2.797 4.309h32.809c3.378 5.687-15.72 3.789-19.934 3.887-.316 14.324 9.754 19.05 26.184 18.574 16.683.52 27.66-4.078 26.953-18.441-3.7.14-24.399 1.484-21.473-4.239h37.106c2.457-.023 3.117-1.25 2.921-3.039v-46.453c-.035-1.36-1.52-3.172-3.953-3.516h-80.172c-1.851.04-3.363.477-3.238 2.852zm0 0" transform="scale(.75)"/>
        <path fill="none" stroke="#000" stroke-linecap="butt" stroke-linejoin="miter" stroke-miterlimit="10" stroke-opacity="1" stroke-width="1.5" d="M248.602 92.546c-.279 10.585.008 19.277-1.647 34.388m-.73-33.377c-.302 10.792.686 24.46.823 34.473m.086-.017c-.762 2.868-.92 2.94 3.946 5.006m-2.165-4.717c-.83 2.971-4.143 2.536.852 1.823m-1.714.566c12.218-1.843 21.338-2.983 28.155-1.999m-26.089 2.262c7.389 1.389 15.712.132 24.27-.536m-.188-.293c1.032 5.065-11.309 1.998-16.192 2.988m18.202-2.098c2.543 5.122-12.126-.061-19.222-.439m0 0c-2.244 11.133 8.247 15.92 21.656 15.765m-23.197-17.49c-.63 11.88 8.994 18.301 23.283 13.723m0 0c10.734 2.111 21.708-2.266 19.08-13.164m-19.657 12.407c14.205 1.805 21.609-2.431 23.37-10.816m0 0c-1.172.264-16.896 1.26-17.758-3.864m19.478 5.34c-2.037-3.017-20.286 1.472-17.927-5.85m-1.647-2.056c10.33 6.143 17.888 4.494 27.712 2.382m-26.637-.64c11.04 3.88 22.339 3.493 28.822.625m-.419-.311c2.777-1.48 1.875-2.877.167-1.254m.686 2.933c-.235-1.948 3.647-2.845 2.605-2.403m1.672 1.245c-1.215-8.454-2.768-17.803-2.698-35.073m1.609 33.344c-1.635-8.296-.777-22.475-.762-34.426m.179.07c-1.943-2.906-1.33-2.124-2.954-2.259m2.046 1.357c1.02-2.065 1.098-.451-.048-1.219m-.808.153c-20.37-.197-39.03.33-61.028.126m61.075-1.064c-12.733 2.85-23.953 3.1-60.296 1.268m.925-.483c-3.187.855-3.612.671-3.137 4.043m1.187-2.423c2.047.83 1.626-.22-.302-1.218m-.671.536c-.844.079-3.088.175-4.992 4.26m5.302-4.509c-1.816 3.292-4.054 4.666-6.046 4.054"/>
        <path fill="#fff" fill-opacity="1" fill-rule="nonzero" stroke="none" d="M5.996 236.918v46.066c-.008 2.106-.398 4.48 2.797 4.309h32.809c3.378 5.687-15.72 3.789-19.934 3.887-.316 14.324 9.754 19.05 26.184 18.574 16.683.52 27.66-4.078 26.953-18.442-3.7.141-24.399 1.485-21.473-4.238h37.105c2.458-.023 3.118-1.25 2.922-3.039v-46.453c-.035-1.36-1.52-3.172-3.953-3.516H9.234c-1.851.04-3.363.477-3.238 2.852zm0 0" transform="scale(.75)"/>
        <path fill="none" stroke="#000" stroke-linecap="butt" stroke-linejoin="miter" stroke-miterlimit="10" stroke-opacity="1" stroke-width="1.5" d="M3.542 181.17c.563 5.75-.009 15.843-.565 34.004m.94-35.098c.665 11.701 1.685 21.68 1.398 34.544m-.44-.928c-1.638.99.026 4.01 2.069 3.319m-1.088-5.391c.273 6.006-1.125 4.515.141 7.155m1.102.752c7.122-2.071 14.23-1.08 23.923-2.428m-25.886 2.1c7.204-.91 15.167-.296 27.015.173m-.95-.598c2.944 3.615-13.775 1.793-13.877 4.365m15.38-2.645c2.435 3.026-12.612-.129-14.432.249m0 0c.718 11.625 5.957 15.683 18.968 12.686M19.61 221.041c.106 13.028 5.151 11.449 16.33 11.294m0 0c10.831-.606 20.995-4.187 21.54-13.881m-21.06 15.492c11.169-.823 21.306-6.49 18.789-16.79m0 0c-2.259.041-18.384 2.203-14.408-2.722m12.428 4.163c-3.057.288-16.931-1.107-12.882-5.039m.132.484c6.945-2.323 13.505-1.927 28.956-.445m-28.892-.243c6.246-.381 11.34-.091 27.738.093m-.103.111c3.094-.72 3.59-.129 4.047-1.095m-4.87 3.064c.478.01.791-.39 2.11-3.328m1.518-.618c-1.19-9.539-.12-21.205-2.154-35.933m1.248 36.132c-.43-6.275-1.412-14.51.196-35.018m-.808.597c1.11 1.023-1.42-4.166-3.255-2.648m3.138 4.383c-1.131-5.238-2.651-3.9-2.341-5.47m-1.054-.917c-10.94.009-23.233.436-59.23.99m60.463-.102c-24.65.38-46.547.281-60.01-.399m-.251.428c-1.377.032-2.748-1.137-2.406 1.228m1.864.594c-.205.425.383 1.058-1.792-1.146m-.23.2c-.263 1.054.926 2.27.276 4.945m-.381-5.265c.706 1.39.323 2.693.683 4.638"/>
        <path fill="#fff" fill-opacity="1" fill-rule="nonzero" stroke="none" d="M113.996 236.918v46.066c-.008 2.106-.398 4.48 2.797 4.309h32.809c3.378 5.687-15.72 3.789-19.934 3.887-.316 14.324 9.754 19.05 26.184 18.574 16.683.52 27.66-4.078 26.953-18.442-3.7.141-24.399 1.485-21.473-4.238h37.106c2.457-.023 3.117-1.25 2.921-3.039v-46.453c-.035-1.36-1.52-3.172-3.953-3.516h-80.172c-1.851.04-3.363.477-3.238 2.852zm0 0" transform="scale(.75)"/>
        <path fill="none" stroke="#000" stroke-linecap="butt" stroke-linejoin="miter" stroke-miterlimit="10" stroke-opacity="1" stroke-width="1.5" d="M87.188 177.767c-.637 14.388-.766 29.576-2.146 35.479m1.783-32.754c-.56 11.66.254 23.482-.288 33.551m.284.023c1.465-.053-.588 1.788.379 2.822m-.17-2.64c-1.518-.888-1.498 2.508 1.08 3.953m-.878-.335c7.183 2.57 15.319 2.67 25.73 1.53m-25.56-1.744c10.719 2.652 20.516 2.233 24.998.188m-.199.36c1.568 5.048-10.819 2.045-14.123 3.42m12.74-4.064c5.778 5.53-11.894 4.046-14.417 4.344m0 0c-.498 10.43 6.437 13.058 18.809 14.359m-19.201-15.196c-1.163 12.79 5.566 13.116 21.706 12.272m0 0c13.13.665 19.764-4.746 22.269-13.99m-21.329 15.056c13.838 1.06 20.303-3.123 19.234-16.257m0 0c-2.063 2.136-20.233-.94-14.06-3.715m13.948 4.134c-4.582.074-18.378 2.895-15.401-5.393m-.155.498c9.27-1.843 17.886.91 27.89-.802m-28.045-.098c6.474.167 13.684-.002 27.278-.57m.864.972c3.554.503 1.234.878 1.181-1.52m-1.383 2.771c.495-3.51 3.123-2.54.454-5.156m1.474-1.448c.172-6.624-1.049-14.016-3.338-33.504m1.937 35.985c-.618-11.642-.931-24.21.6-36.837m-.673.963c1.119.598-2.218-.477-3.381-4.344m5.458 4.902c-1.146-3.03-2.941-3.718-4.567-2.892m-1.661-.03c-21.583-2.305-47.054-.753-59.145-.037m60.214-.437c-15.876.302-32.11.507-59.889-.185m.349.689c-1.313-.264-2.997-.89-1.081.908m1.18-2.91c.142.177-.416-.075-3.814 4.591m-.67-.064c2.111 1.696 2.516 4.432 3.88 4.667m-3.04-4.573c.43.653 1.125 2.127 2.306 5.162"/>
        <path fill="#fff" fill-opacity="1" fill-rule="nonzero" stroke="none" d="M221.996 236.918v46.066c-.008 2.106-.398 4.48 2.797 4.309h32.809c3.378 5.687-15.72 3.789-19.934 3.887-.316 14.324 9.754 19.05 26.184 18.574 16.683.52 27.66-4.078 26.953-18.442-3.7.141-24.399 1.485-21.473-4.238h37.106c2.457-.023 3.117-1.25 2.921-3.039v-46.453c-.035-1.36-1.52-3.172-3.953-3.516h-80.172c-1.851.04-3.363.477-3.238 2.852zm0 0" transform="scale(.75)"/>
        <path fill="none" stroke="#000" stroke-linecap="butt" stroke-linejoin="miter" stroke-miterlimit="10" stroke-opacity="1" stroke-width="1.5" d="M164.34 177.266c.821 6.797 1.486 19.24 1.779 32.995m-.835-34.723c-1.128 10.916-.202 23.52-.384 33.63m.177 1.01c-1.82-.418-1.117 1.55 3.55 2.74m-4.91-1.969c-.993.252-.902 1.934 1.506 4.896m-1.838-.305c11.992 2.508 24.54-1.19 31.741 1.046m-30.767.032c6.24.065 13.663 1.418 28.567-.023m.276-.75c4.194 5.373-11.751 2.99-14.45 1.072m13.57.75c1.34 3.437-9.67 2.198-13.213 1.512m0 0c-.017 8.745 7.626 15.852 18.258 15.522m-17.13-14.385c-2.413 10.57 7.934 11.721 16.096 10.523m0 0c14.265-.615 19.395-1.975 20.434-12.229m-21.828 11.83c14.074 1.468 19.734-5.276 20.994-11.77m0 0c-2.593-1.68-18.323 1.748-14.701-1.603m15.19 3.126c-4.418-.672-21.105-1.416-17.704-6.593m-1.427 1.562c11.907-2.508 22.166-1.078 29.74-2.583m-28.453.53c10.642-1.661 21.342-.636 28.171-.29m-.2.782c.769-1.84 4.132.208 1.34-1.245m-1.444 1.051c4.37-2 .184 1.213 2.15-2.039m1.737 1.723c-3.137-14.16-.193-27.413-.044-35.645m-2.194 32.932c.48-16.21 1.515-28.005.184-34.7m.317.85c-.475-2.61-.443-1.515-1.11-2.771m.931 2.35c.225 1.813-1.269-4.512-.82-4.34m.17 1.27c-14.426-1.061-25.061.673-61.69-.127m61.63-1.07c-22.517-1.089-42.875-1.198-59.574-.043m-.668-.03c-1.07-.178-.543 1.34-2.658 2.107m1.234-1.219c.72 1.377 1.324-.33-1.166.733m.052-.103c.059-.037-.108 1.073-.14 2.631m-.047-2.54c.061 1.952.29 2.666.313 2.312"/>
        <path fill="#fff" fill-opacity="1" fill-rule="nonzero" stroke="none" d="M329.996 236.918v46.066c-.008 2.106-.398 4.48 2.797 4.309h32.809c3.378 5.687-15.72 3.789-19.934 3.887-.316 14.324 9.754 19.05 26.184 18.574 16.683.52 27.66-4.078 26.953-18.442-3.7.141-24.399 1.485-21.473-4.238h37.106c2.457-.023 3.117-1.25 2.921-3.039v-46.453c-.035-1.36-1.52-3.172-3.953-3.516h-80.172c-1.851.04-3.363.477-3.238 2.852zm0 0" transform="scale(.75)"/>
        <path fill="none" stroke="#000" stroke-linecap="butt" stroke-linejoin="miter" stroke-miterlimit="10" stroke-opacity="1" stroke-width="1.5" d="M247.468 178.21c-2.162 7.008.785 15.56-1.954 33.759m.316-35.072c.95 7.931.39 18.71 1.552 33.642m-.94.566c-.395 1.479-1.807 1.402 2.997 5.208m-1.994-7.215c-3.615 5.718-.95 3.157.984 7.784m.741-.203c9.24 1.548 20.956 1.952 26.335-.404m-26.44.891c5.815.308 11.677-.047 24.828-.425m.308.141c3.331 5.93-12.185 2.086-15.703 1.42m16.02-1.953c.57 2.337-12.214 3.386-17.411 5.88m0 0c-1.383 11.651 6.735 15.873 21.181 14.13m-20.528-12.59c-1.485 8.939 8.936 14.174 16.965 9.882m0 0c14.087.405 18.721-3.249 18.167-14.54m-17.376 15.442c13.245-1.725 21.595-6.444 20.476-16.385m0 0c-2.944.953-16.2 1.277-16.28-2.405m16.45 3.424c-.999-.12-20.792.071-14.745-6.51m1.925-1.125c6.184 4.263 11.127 6.138 25.216-.74m-27.88 2.35c10.6-5.327 22.504-3.994 27.841-.265m.73-.22c2.27 1.917 1.526-.087 2.115-3.567m-2.941 4.09c3.536-3.15 3.565-.394 3.222-2.784m-.342.63c1.705-15.522-.612-22.547 2.326-34.852m-2.537 35.177c-.261-7.119-.498-16.4.475-35.338m.078-.457c1.949-2.748.645-.468-3.793-3.867m2.75 2.335c-1.098 2.534.616-1.237-4.127-.6m.48 1.177c-19.388-.023-39.27.217-61.193-1.268m61.04-.402c-16.976.062-34.385-.8-60.541 1.307m.082-.815c-1.265 2.028-3.803 1.805-2.666 1.251m2.04-2.499c-3.104 3.809-2.972 4.11-.212.946m-.105.247c.626-.437.345.465.758 3.375m-.758-3.41c.454 3.404.641 4.649 1.157 3.129"/>
    </g>
    <defs xmlns="http://www.w3.org/2000/svg">
        <filter id="dsFilterNoBlur" width="150%" height="150%">
            <feOffset dx="3" dy="3" in="SourceGraphic" result="offOut"/>
            <feColorMatrix in="offOut" result="matrixOut" type="matrix" values="0.2 0 0 0 0 0 0.2 0 0 0 0 0 0.2 0 0 0 0 0 1 0"/>
            <feBlend in="SourceGraphic" in2="matrixOut" mode="normal"/>
        </filter>
        <filter id="dsFilter" width="150%" height="150%">
            <feOffset dx="3" dy="3" in="SourceGraphic" result="offOut"/>
            <feColorMatrix in="offOut" result="matrixOut" type="matrix" values="0.2 0 0 0 0 0 0.2 0 0 0 0 0 0.2 0 0 0 0 0 1 0"/>
            <feGaussianBlur in="matrixOut" result="blurOut" stdDeviation="3"/>
            <feBlend in="SourceGraphic" in2="blurOut" mode="normal"/>
        </filter>
        <marker id="iPointer-gwc86sgyf7a" fill="#000" markerHeight="7" markerUnits="strokeWidth" markerWidth="8" orient="auto" refX="5" refY="5" viewBox="0 0 10 10">
            <path d="M10 0v10L0 5z"/>
        </marker>
        <marker id="Pointer-gwc86sgyf7a" fill="#000" markerHeight="7" markerUnits="strokeWidth" markerWidth="8" orient="auto" refX="5" refY="5" viewBox="0 0 10 10">
            <path d="M0 0l10 5-10 5z"/>
        </marker>
    </defs>
    <defs>
        <style type="text/css">
            @font-face{font-family:&quot;xkcd Script&quot;;src:url(./xkcd-script.ttf)}
        </style>
    </defs>
    ??
</svg>
