<svg xmlns="http://www.w3.org/2000/svg" xmlns:xlink="http://www.w3.org/1999/xlink" width="828" height="432" version="1.1" viewBox="0 0 621 324">
    <defs>
        <clipPath id="clip1">
            <path d="M0 0h621v324H0z"/>
        </clipPath>
        <g id="surface727" clip-path="url(#clip1)">
            <path fill="none" stroke="#fff" stroke-linecap="butt" stroke-linejoin="miter" stroke-miterlimit="10" stroke-opacity="1" stroke-width="1" d="M5.5.926C4.473.886 2.43 3.036.691 6.324M4.586.375c-1.2.543-1.961 2.113-4.64 4.715m15.753-2.676C9.586 7.34 2.11 13.16-1.793 19.36M15.5 0C12.191 3.473 8.637 9.75-.793 17.398M24.344 2.703C20.53 7.093 7.945 18.656 2.375 29.54M26.949-.559C17.645 8.625 8.855 21.031.523 30.633M37.875.789C25.488 15.11 10.367 27.5-.055 40.883M35.805.473C26.313 12.422 14.117 26.403-.262 43.082m49.7-44.457C26.688 22.75 8.52 45.754 2.617 52.207M46.636 1.039C33.687 14.602 23.113 27.61 1.37 54.086M56.71-2.352C43.477 20.61 27.26 37.285-1.691 65.7M57.25-.234C41.508 16.539 26.223 34.746.191 65.367M70.047.847C48.195 22.696 30.074 43.485-2.078 80.146M68.039-1.121C53.352 18.836 36.262 34.929 1.336 79.676M77.805-.867C49.43 37.645 15.168 72.535 1.238 90.84M79.336.875C62.254 20.754 43.02 43.617-.836 90.191M88.418-1.262C62.453 32.063 28.805 69.637-1.109 104.098M90.543-.434C66.453 26.758 43.003 52.461-.195 102.918M101.14-1.195C78.902 21.77 59.148 49.09-2.316 115.015M100.32-1.02C71.691 30.008 44.816 63.121-.66 115.852M108.703-2.29C72.035 45.34 30.117 90.836-1.809 128.754M110.812-.602C72.816 41.512 36.278 86.512-1.034 128.02M123.879-1.816C85.609 38.078 48.613 78.016-2.258 139.152M122.301 1.38C80.637 45.938 42.605 91.453 1.258 140.875M133.105-.832C83.656 58.449 29.602 117.48-1.82 149.328M133.273-.027C80.977 58.633 30.465 115.449-1.3 150.69M141.57-.195C96.086 47.23 56.39 100.207.727 162.453M143.46-.078C106.355 42.055 67.32 85.449.336 164.219M150.863 2.3C111.988 43.937 71.355 88.39-2.754 174.883M152.082-.25C111.527 44.398 74.68 89.176 1.145 177.383M162.735-1.211C118.62 52.367 75.464 101.461 2.327 189.332M164.641-.582C118.277 48.512 76.004 97.375 1.3 187.926M174.395-1.117A20390.654 20390.654 0 0 0 1.023 198.398M173.633.43C131.82 49.148 89.12 100.105.758 202.05M185.289 2.8C120.516 74.71 59.06 146.47-2.23 214.028M185.415.766C138.88 54.94 89.54 110.273-1.23 212.546M193.285 2.607C135.883 64.581 81.852 135.894-2.75 226.09M196.906-.2C147.61 53.79 100.023 108.07-.84 224.536M207.004-2.28C127.34 90.242 52.039 175.809-2.13 237.059M206.97-.761C136.945 79.366 68.246 159.386.44 237.57M217.734-1.16C132.441 95.78 44.602 194.652-2.164 249.46M217.758-.878C140.035 84.098 67.453 169.261-1.141 249.371M227.555.684C172.785 64.574 120.293 126.457-.25 263.934M228.684.059C160.684 73.109 97.617 143.445 1.3 261.73M238.484 1.56C170.527 83.188 99.605 161.129 2.637 271.62M238.25-.145C143.281 107.75 48.645 215.066 1.102 273.852M251.382.992C185.989 73.996 119.27 152.285 1.633 286.414M247.458-.726C173.16 92.042 94.535 180.463-.949 285.097M258.69.238C204.48 65.281 146.862 126.058-2.04 298.016M258.656-.445C165.22 105.355 75.008 207.84 1.226 297.703M269.903-1.895C178 104.031 91.04 203.008-2.492 310.703M268.953-1.117C183.253 94.105 101.86 188.656.11 311.398M277.867-1.32C167.535 125.37 56.07 254.805 1.402 320.266M281.81.543C177.44 114.371 75.902 229.43-1.13 322.023M293.797-.027C226.836 70.188 165.317 136.41 11.484 326.539M290.242-.207c-72.11 79.93-142.992 162.21-281.617 325.191M302.508-2.199C189.012 124.836 81.398 251.367 21.895 324.12M302.883 1.055C237.766 75.175 171.59 148.727 21.305 322.602M312.34 2.023C233.965 89.63 150.703 179.32 28.406 324.496M312.43-.144C213.852 112.27 116.383 223.87 31.258 324.101M322.555-1.566c-74.016 80.304-139.953 156.34-280.024 325.87M323.22-.405c-99.44 117.878-199.493 233.553-281.197 323.85M336.078.34c-69.27 81.722-144.223 166.168-284.2 324.55M333.622-.284c-73.414 83.402-146.926 169.86-282.77 323.453M343.267 1.961C242.633 123.918 131.578 245.76 62.23 325.898M345.105-.91C262.13 96.223 178.735 190.836 62.84 324.19M356.73 1.047C287.86 74.293 224.422 152.793 71.355 323.039M354.133-1.297C272.988 92.73 192.578 184.598 74.28 324.617M368.008 2.668c-99.957 111.644-199.25 229.82-282.645 321.789M364.31-.813C272.724 109.597 176.048 218.789 83.9 325.242M373.706 2.238C302.535 78.73 234.805 154.41 93.492 323.25M374.535.645C273.773 115.633 173.402 231.617 95.258 323.609M386.203-1.996C285.54 114.457 184.926 236.656 105.871 326.676M386.844-1.086c-57.086 65.36-114.442 132.637-281.887 326.402M397.391-1.879c-51.614 64-108 130.496-279.918 326.586M397.234-.023C319.2 84.227 245.691 168.184 114.137 324.898M406.836 1.664c-80.547 88.273-156.41 178.14-279.594 320.11M408.367.347C309.137 111.293 214.66 220.188 124.93 322.71M420.305 1.05c-72.2 77.863-134.778 155.61-285.457 324.078M417.878 1.043c-63.995 72.91-124.804 143.676-281.023 323.805M427.805 2.78C328.004 118.257 223.699 234.976 147.852 321.6M429.477-.858C325.27 118.25 223.28 235.39 148.195 324.047M439.66-.933c-92.226 102.242-178.668 208.78-283.508 322.695M440.664.132c-65.812 69.06-127.668 142.934-282.992 324.313M451.836 2.23C379.129 82.273 308.172 165.3 170.625 325.602M451.387.336c-86.961 95.191-169.559 193.351-282.871 322.672M459.262.227C394.984 76.109 330.05 148.859 180.96 321.41M460.066.54C383.176 87.433 305.23 178.007 178.45 323.323m294.356-320.8C380.867 105.23 290.957 207.776 189.594 326.472M472.086 1.125c-62.914 74.617-127.86 150.082-281.188 322.594M480.77 1.512C399.102 92.68 318.25 182.754 202.387 321.996M481.507.836C414.2 78.234 344.692 157.14 200.43 325.379M492.406-.54c-77.222 90.133-159.586 180.828-282.75 323.008M491.446-.305c-88.489 107.614-182.15 214.836-280.673 325.239M505.164-2.777c-111.68 123.875-219.941 253.593-282.039 324.199M504.219-.465c-62.14 76.453-125.543 149.313-281.969 323.91M513.402-.613c-79.73 94.613-163.16 189.09-282.71 322.441M514.554-.793C444.015 81.594 373.32 162.773 232.758 323.07M524.082-1.578c-100.96 107.5-193.582 216.894-282.738 325.515M524.98-1.026C414.047 119.539 308.027 243.19 241.812 324.117M536.368.54c-63.258 71.719-128.949 145.32-283.68 325.059M535.384-1.23C434.904 117.977 332.61 235.793 252.786 323.047M545.066-1.227C457.125 98.98 375.13 190.473 266.27 324.121M546.324-.699C485.402 66.137 424.31 134.223 264.527 323.39M557.95 1.867C449.836 125.992 341.262 250.652 274.305 321.801M555.363.176c-92.152 110.867-192.047 222.617-279.91 323.14M566.266-1.28C491.758 87.55 414.8 174.473 282.59 321.89M567.02.328c-59.082 69.586-120.575 140.414-283.024 322.844M577.844-2.262C512.684 69.43 446.71 144.16 296.687 325.578m281.168-326.7c-84.14 95.24-166.953 191.946-283.18 325.435M588.77.601C498.793 109.566 404.277 214.996 305.89 325.75M588.997 1.129C481.367 124.656 376.961 244.145 306.88 323.863M597.516-1.695C531.715 85.242 455.62 168.075 318.59 326.562M599.488-.223c-59.039 64.57-116.386 134.418-281.422 323.368M606.305 1.469c-96.875 111.136-200.38 227.285-277.012 321.715M608.875.684C513.82 108.172 416.867 219.039 327.16 324.695M621.297-1.469c-98.82 110.926-194.031 218.063-284.961 327.742M621.036-.176C517.073 114.09 413.921 230.785 337.765 323.56M623.242 11.082c-89.37 102.887-176.222 204.625-277.129 314.676M621.938 12.012C525.96 124.773 426.351 236.934 348.14 323.105M620.906 22.102c-91.363 108-184.558 212.25-262.472 301.773M620.848 21.543C519.945 132.723 421.93 245.48 358.145 323.153m264.574-288.88c-96.926 106.004-183.524 213.954-252.93 289.52M620.141 33.906C558.652 111.29 495.699 182.7 368.805 322.953M622.527 47.738c-73.77 80.473-149.87 167.067-241.996 273.903M622.38 46.5c-98.746 108.266-195.512 218.973-242.305 277.953m240.531-265.09c-72.93 82.41-148.664 166.36-227.113 264.66M620.578 59.141c-70.265 87.015-140.047 169.566-229.55 264.93M621.64 72.57c-82.442 89.046-162.57 186.562-218.59 253.652m218.3-253.489c-66.546 76.836-128.265 151.97-221.019 250.602M622.988 84.352c-66.285 78.48-127.5 151.046-211.593 238.054M620.02 82.61c-41.29 48.954-85.012 98.809-208.352 241.887M620.066 98.633c-46.035 49.887-95.8 107.918-195.617 226.851M620.7 95.586c-70.215 76.617-140.367 157.941-197.898 227.754m195.613-213.875C552 190.77 480.684 278.75 431.547 325.277m190.219-216.78c-53.91 60.82-104.403 117.933-187.575 214.64M619.7 120.145c-44.02 47.023-82.531 97.144-173.476 202.043m173.93-202.59c-50.051 61.023-98.337 118.367-177.29 204.867M622.965 131.69c-65.55 66.668-127.856 138.676-169.778 194.704M622.305 133c-56.473 55.434-109.864 120.14-166.598 192.215m164.45-182.817c-45.345 54.192-99.614 111.532-157.544 179.38m159.735-177.563c-52.004 60.597-97.739 115.937-156.028 179.816m153.32-167.574c-33.894 35.805-66.066 76.711-143.952 166.66m145.859-166.894c-37.207 44.66-72.3 85.656-144.625 166.507m144.164-156.218c-28.145 35.402-57.649 71.86-136.871 158.23m135.953-156.699c-43.293 48.785-88.566 100.426-135.113 155.984M620.699 181.02c-40.086 45.835-77.996 91.914-121.89 143.085m121.472-141.64c-47.937 51.219-95.484 106.398-124.62 142.066m125.382-128.523c-29.867 34.887-64.352 74-114.004 130.367m114.469-131.934c-36.828 36.735-70.153 79.25-114.356 128.418M622.18 204.137c-31.223 38.156-67.164 77.758-102.754 120.804m102.64-120.164c-39.593 49.852-79.62 94.313-104.87 119.758M622.19 215.52c-34.195 45.906-59.476 79.789-95.539 111.171m94.97-107.671c-38.782 40.23-72.345 81.433-93.856 104.667m94.125-95.93c-22.36 28.235-48.5 54.837-83.504 98.993m82.765-96.691c-32.195 37.738-61.523 74.539-80.82 94.039m79.395-79.153c-26.793 27.993-50.196 59.16-70.704 80.66m73.024-83.18c-17.95 19.173-33.418 39.837-71.086 82.81m69.238-71.923c-16.152 14.579-28.324 27.825-58.23 71.934m59.601-69.613c-14.03 8.476-29.277 23.527-59.82 68.242m61.48-55.504c-16.043 19.652-32.535 37.219-53.398 56.98m51.945-59.288c-20.257 29.671-37.855 49.812-50.82 57.843m47.527-45.254c-8.808 5.157-22.129 22.063-36.136 45.496M621.652 278c-9.359 13.734-17.933 24.23-39.586 47.23m36.407-35.988c-5.707 12.258-19.641 23.274-27.352 36.125m29.406-33c-9.09 12.266-16.578 21.078-29.43 32.715m32.485-19.45c-7.18 6.848-13.629 14.438-22.406 19.817m19.363-21.523c-3.7-1.504-10.043 4.828-18.516 20.847m17.715-10.132c-.316 1.566-2.086 3.03-5.488 8.879m6.41-8.614c-1.113-2.086-2.488.957-6.644 9.614"/>
        </g>
        <pattern id="pattern0" width="621" height="324" patternUnits="userSpaceOnUse">
            <use xlink:href="#surface727"/>
        </pattern>
        <clipPath id="clip2">
            <path d="M0 0h621v324H0z"/>
        </clipPath>
        <g id="surface733" clip-path="url(#clip2)">
            <path fill="none" stroke="#fff" stroke-linecap="butt" stroke-linejoin="miter" stroke-miterlimit="10" stroke-opacity="1" stroke-width="1" d="M4.234-1.02C2.964 1.871 1.633 4.457.582 6.18M4.637.484C3.418 1.664 1.875 3.36-.465 6.063M17.461-.824C9.926 7.886 6.234 13.629-.848 15.48M16.254-.559c-4.602 5.372-9.48 9.235-15.176 17.524M28.762-.375C16.203 8.415 13.445 17.684-1.172 28.652M24.734-.918C20.945 5.449 14.47 12.59-.629 30.324M39.238-.613C28.488 12.082 16.316 20.907.754 44.395m35.902-45C25.156 13.383 13.363 25.77-.359 43.363M49.605 2.52c-14.44 12.39-28.8 29.464-50.55 52.648M47.53-.488c-9.363 11.683-20.765 24.406-48.906 54.34M55.18.535C31.55 28.305 13.563 55.238-.598 68.72M56.937-.195C39.234 19.934 19.794 42.988-1.352 66.71M69.176 1.93C48.633 22.879 28.309 44.977-.547 80.687M68.578.121c-15.937 17.86-31.414 33.66-69.105 78.25M77.87-.445C58.648 25.379 41.023 48.805 1.016 92.52M78.094-.73C47.945 36.84 17.594 71.79.266 90.445M90.684 1.293C58.504 33.153 28.285 69.082.84 105.102M89.086.285C59.633 33.168 30.207 65.934-.262 102.56M101.531-2.285C60.09 44.69 25.56 84.73.367 114.004M100.22-.723C80.15 26.266 57.18 51.211 1.364 114.953M108.102-.148C76.105 43.215 36.617 83.117.41 127.3M110.72-.102C68.926 49.141 25.277 97.945 1.059 127.441M119.797-.832C84.238 39.618 53.317 82.016 2.21 137.398M122.582.348C94.602 30.156 70.039 58.727-1.035 138.836m132.7-140.672C98.424 38.844 68.538 71.293 2.198 149.785M131.965.915C88.922 49.632 46.71 98.714-.723 152.784M140.07-.555C111.012 37.371 84.29 70.254 2.535 166.86M143.152-.777C96.63 53.156 51.215 108.493-.68 162.98M151.328-.246C107.04 52.554 61.54 104.793-.32 174.707M154.086.191C114.598 43.543 77.316 88.098.05 176.086M161.17-1.375C117.337 53.985 69.458 106.852-2.593 191.16M163.723.664C113.003 57.457 64.078 116.906-.422 187.105M174.652.066C108.277 75.238 47.457 146.566 2.57 198.777M173.676-.493C140.766 40.493 103.645 81.45.203 201.368M185.496.555C129.484 62.613 70.891 129.773.546 212.395M183.829-1.328c-34.98 43.5-73.047 88.598-184.871 215.492M194.941 2.223c-42.765 45.52-84.78 92.125-195.55 225.304M196.137-1.164C120.293 84.215 46.859 167.676-.918 223.879M208.242.668C130.273 88.488 59.215 172.598.2 236.082M205.133.532C128.203 92.413 46.832 184.628.148 235.921M218.352-2.574c-69.579 79.969-134.38 161.457-219.88 252.32M215.943.723C137.226 93.605 56.226 188.629.09 249.809M229.54.246C174 54.512 129.812 109.738 2.03 260.457M226.203-.535c-51.187 59.8-104.328 118.832-225.16 262.25M238.68-1.363C171.914 80.773 99.7 156.773-1.313 273.82M238.31-1.043C170.914 78.039 103.53 153.48 1.195 274.597m247.5-272.011C172.59 81.988 103.63 170.242 2.465 285.215M249.137 1.316C156.597 110.594 62.223 219.97-.414 284.636M256.629 2.32C190.633 74.36 122.285 152.875-.18 297.63M259.121-.281C203.535 65.758 144.38 135.066-.16 296.859M270.066 1.688C205.246 67.906 148.992 139.073-1.852 311.94M269.988.094C174.898 109.973 80.176 220.43.891 310.454M280.164 2.64C200.614 91.355 119.422 186.34-.55 323.34M281.16.988C176.102 124.492 68.105 248.598-.547 321.625M288.66.312C186.36 115.579 81.723 233.746 6.625 325.132M290.34-.757C190.98 113.754 93.992 227.02 10.5 323.113M300.402 1.156c-81.3 98.082-167.058 194.34-279.488 323.453M302.894-.754c-61.351 70.246-121.48 137.043-283.906 323.45M314.961-2.786C212.242 113.03 109.664 227.94 28.723 325.563M311.707.952C217.121 109.45 122.567 216.297 29.43 324.086M323.8.367C222.52 116.203 120.57 232.847 39.196 325.062M323.055-.354C214.05 123.94 107.523 244.187 41.137 324.004M334.652-.777C230.82 121.449 125.598 239.403 49.117 323.363M332.078-.473C256.746 94.355 172.68 188.168 52.32 324.602M342.746 1.75c-100 108.723-192.117 218.926-279.226 325.043M344.86-1.234C258.741 100.586 169.761 199.89 61.413 324.309M356.918-.992C249.383 127.21 138.378 249.465 75.238 325.395M353.68-.81C295.316 66.934 236.613 131.75 72.94 323.141M366.375-1.102C279.879 103.574 188.969 208.09 80.812 324.43M363.988-.227C268.613 110.082 171.332 218.906 84.391 325.324M377-1.473c-93.672 106.035-187.063 212.11-282.484 325.266M377.16-1.152C278.52 111.77 179.906 220.75 93.016 324.266M386.023.332C330.422 71.844 266.91 144.234 104.586 325.023M386.383-.215C319.969 76.5 254.422 153.813 105.43 325.172M399.21-.316c-92.878 103.441-178.647 204.664-281.882 323.48M395.793 1.352C331.449 77.797 265.437 154.18 114.801 323.703M404.96-2.567C309.1 114.317 214.309 227.126 127.805 322.802M406.64.44C299.67 125 190.62 250.911 125.312 322.746M419.195 2.61C346.13 78.492 275.063 161.16 133.863 323.77M419.234 1.032c-87.12 101.844-176.332 207.656-281.398 323M427.586-.965C344.453 99.563 257.453 196.41 144.742 325.242M428.047-1.25C351.19 95.477 270.324 187.785 148.016 323.945M437.473.852C356.253 95.41 272.19 194.27 159.234 321.859M438.954 1.363c-67.13 71.422-131.079 145.207-280.247 323.36M449.652.8c-85.46 92.676-167.328 184.941-283.511 321.312M449.387.503c-73.164 88.614-149.043 176.403-281.809 324.071M460.125.223c-80.29 92.632-160.031 186.386-283.887 324.382M461.27.754c-101.176 109.508-196.832 220.93-283.375 322.23M472.77-1.258C376.238 100.395 286.215 209.48 189.48 325.367M471.54 1.012C367.37 123.777 261.413 244.363 189.597 324M484.27-2.066c-59.735 69.199-119.797 138.46-285.473 323.668M481.64-.914C423.828 65.117 363.945 134.34 199.676 322.613M495.145 2.45c-89.38 98.153-176.2 193.903-281.668 323.414M492.992.543C390.63 120.379 288.258 238.984 209.852 322.687M500.918 2.582c-78.063 85.715-152.086 176.059-280.14 320.36M502.202.304c-70.906 80.097-144.765 164.496-281.61 323M513.5 2.485c-89.176 107.734-188.867 220.331-280.945 319.581M514.105.296c-96.94 109.868-193.43 221.364-283.109 322.606M522.652-1.285c-78.828 94.422-154.949 181.422-280.34 324.605M523.907-1.09C458.383 75.13 392.254 148.723 243.95 324.48M535.387 1.437c-77.48 84.872-151.125 172.614-281.328 319.825M535.184-.805c-83.036 92.22-163.418 186.793-283.086 326.172M546.594.187C467.96 91.395 391.699 181.86 266.375 325.055m278.98-323.75C481.765 77.25 416.84 149.109 263.395 324.94M556.555.527c-89.649 107.387-179.512 212.36-280.301 323.485M554.687-.41C444.621 126.652 335.724 249.066 275.005 324.457M568.3-2.359c-61.116 78.152-129.12 150.152-282.32 325.113M567.233.59C490.77 82.926 417.977 171.379 286.13 325.28M578.309 1.406c-71.536 82.387-147.297 168.906-281.375 324.07M578.176-1.351c-93.168 110.387-183.656 216.094-283.504 326.5M587.402 2.781c-85.117 93.063-166.09 192.133-278.414 320.371M589.141-.14C485.703 118.25 384.324 234.734 306.996 322.617M599.38 1.992c-72.672 76.883-141.09 154.305-281.676 322.684M597.914.652c-73.754 80.082-144.512 160.239-281.8 324.078M611.792-1.078c-106.313 121.664-211.41 244.5-281.816 324.984M609.387.68c-90.067 102.336-182.035 206.742-283.16 324.69M618.55-1.734C515.707 113.809 410.223 238.226 339.184 324.37M619.437.164c-55.523 64.238-112.34 132.2-282.832 323.441M619.121 13.238c-71.195 80.438-145.695 165.723-271.969 307.973M621.113 10.957c-105.715 120.602-208.836 242.07-273.226 312.961M619.254 21.016c-61.73 80.832-132.442 160.37-258.715 305.066M619.77 22.965C539.09 116.52 457.032 213.75 358.384 323.297m264.691-285.91c-55.324 65.246-109.351 128.054-255.66 287.215m254.89-289.973C517.458 150.668 419.278 263.156 370.106 323.594M618.543 47.23c-72.996 83.915-147.926 166.04-235.918 279.512M621.215 47.2c-66.2 73.324-128.05 143.52-241.035 275.86M623.547 60.457c-85.914 94.547-164.266 186.934-232.852 265.277m230.766-267.64c-54.895 68.875-112.492 134.793-231.59 265.836m229.5-253.407c-71.387 85.883-144.98 163.04-218.137 253.153m218.688-252.64c-82.469 95.831-166.184 193.398-218.242 252.948M621.187 85.051c-63.562 77.898-127.496 151.207-210.566 236.879M622.027 83.062c-48.797 46.075-90.308 98.008-210.324 239.614M618.332 94.223c-63.012 80.836-130.707 156.761-194.816 228.554M621.875 95.973c-42.883 46.492-82.45 92.32-199.418 228.539m197.254-216.54c-52.578 61.18-107.211 120.985-185.094 214.88m185.617-214.657c-45.617 46.64-90.16 97.692-186.246 216.754m187.957-207.336C565.52 188.828 506.29 253.41 445.141 324.605m176.27-203.3c-36.352 34.625-74.579 77.617-177.423 202.246m174.688-191.293C572.492 185.902 527.73 237.84 453.02 323.344m169.043-190.746c-66.63 77.738-131.102 150-167.684 190.593M619.762 142.34c-31.668 39.094-67.051 81.93-156.282 179.86m157.786-178.72c-34.293 44.141-71.328 86.543-155.149 181.329m156.2-165.672c-43.575 45.605-86.434 95.824-146.57 164.437m146.347-167.789c-28.934 30.942-60.93 65.164-145.696 168.54M622.176 171.93c-32.258 24.773-62.04 62.398-133.406 153.515m133.347-155.847c-28.652 28.586-56.89 60.16-136.762 154.363m133.782-143.82c-27.121 34.468-50.852 70.183-120.469 146.21m123.574-144.683c-47.773 47.512-93.379 100.184-125.254 143.57m122.383-131.074c-28.25 33.27-58.777 73.313-109.012 130.035m111.72-131.445c-22.438 24.687-46.434 50.004-115.15 131.976m114.372-118.98c-26.242 34.125-54.942 65.148-100.973 117.848m99.652-117.98c-25.359 33.222-51.656 63.265-100.687 119.12m103.875-107.886c-20.84 21.746-42.36 48.773-97.09 109.918m95.844-108.895c-35.867 44.379-71.238 85.61-92.016 107.031m89.012-94.402c-19.027 23.664-40.16 46.715-77.356 95.039m80.41-96.531c-21.847 22.949-41.472 43.449-81.363 94.781m79.985-80.477c-11.168 23.075-29.29 39.547-71.024 79.918m70.73-80.718c-16.542 13.261-33.077 32.359-70.437 81.66m70.266-72.137c-16.524 26.117-34.363 48.785-60.922 72.45m61.434-68.583c-18.297 23.871-35.09 44.633-61.043 69.207m63.703-58.617c-20.5 17.149-36.274 34.586-49.434 54.817m48.246-54.387c-14.46 20.262-29.46 35.914-50.066 56.668m51.348-46.43c-16.176 14.875-32.141 33.809-42.41 44.816m40.027-43.418c-12.055 22.122-25.973 37.508-39.383 46.079m40.547-34.383c-13.203 2.836-22.364 18.32-29.383 32.523m28.254-31.07c-8.633 8.887-15.543 19.332-28.969 32.598m29.465-21.493c-4.535 2.563-13.664 6.297-19.242 19.735m18-18.809c-5.106 11.219-10.086 15.969-18.317 20.653m17.453-8.118c.575 5.157-3.402 7.286-5.398 6.258m6.883-6.922c-2.414-.078-4.192 1.04-6.977 8.082"/>
        </g>
        <pattern id="pattern1" width="621" height="324" patternUnits="userSpaceOnUse">
            <use xlink:href="#surface733"/>
        </pattern>
        <clipPath id="clip3">
            <path d="M0 0h621v324H0z"/>
        </clipPath>
        <g id="surface739" clip-path="url(#clip3)">
            <path fill="none" stroke="#fff" stroke-linecap="butt" stroke-linejoin="miter" stroke-miterlimit="10" stroke-opacity="1" stroke-width="1" d="M4.512.34c-.875.555-1.828 1-5.293 4.894M5.145.094C3.723 1.695 1.68 3.32.335 5.504m15.08-6.18c-5 5.188-9.477 15.68-17.005 17.633M14.723.168C11.07 5.625 8.593 7.98-1.187 18.586M23.39-.16C15.797 6.844 10.613 20.28 1.285 27.19M25.465-.883C16.152 9.863 6.985 20.95-.79 29.047M36.809-.063C21.839 18.578 7.929 29.875-2.125 40.785m39.16-41.879C29.52 8.09 22.79 16.168.992 42.531M47.844-1.387C27.719 19.828 9.312 45.313 2.75 56.183M48.316-1C32.046 17.695 17.875 33.781 1.148 53.469M59.082-.516C39.512 24.855 17.699 48.246 2.148 66.34M56.98.23C40.88 21.22 23.68 41.25-.64 66.875M70.323 2.156C47.355 24.074 28.492 48.641-2.625 79.47m72.18-80.594C43.742 29.258 19.37 55.727-.582 77.563m80.305-79.41C53.683 32.964 24.125 63.02-1.54 90.342M78.645-1.183C58.523 24.81 38.422 49.461.332 90.203M90.472-1.02C65.603 27.816 37.212 59.852-2.55 102.652M89.961-.316C56.395 39.695 20.945 78.535-.52 103.828M100.19.238C67.941 40.676 28.601 84.824-.445 112.551M100.629.723C73.824 32.824 45.594 64.77.3 115.852M112.715-.887C80.762 33.563 50.715 72.234.28 126.438M111.266-.606C69.176 49.93 25.3 99.875.937 127.605M119.418-1.152C79.52 48.148 35.176 97.215-1.211 141.254M122.352-.023C95.172 29.062 70.266 60.805 1.102 140.543M133.293 1.34C91.133 45.277 48.871 95.434 2.258 150.773M131.348-.844C94.336 42.074 57.738 81.512-1.332 152.488M144.551-.859C104.438 45.035 60.832 94.414 1.789 161.313M141.332.243C87.152 61.788 34.035 121.378-.227 164.792M153.887-1.609C101.317 61.145 46.043 124.859 2.684 173.59M154.406-.88c-61 65.856-119.05 133.941-153.027 178.29M161.16-.849C120.098 50.961 75.38 99.684-.207 188.461M165.047.379C119.09 54.164 71.922 108.789-.164 189.03M174.309-2.336C130.723 54.711 82.586 107.984 1.082 199.008M175.289.102C138.656 43.207 99.617 87.469.102 201.722M186.113-1.804C134.68 57.98 84.348 114.918-.852 210.121M185.395.613C127.015 63.816 70.422 129.32.09 212.352M197.445.872C125.91 79.042 58.047 154.581 2.008 227.253M196.766 1.004C144.926 57.199 96.074 112.617.87 223.867M203.574-2.332C130.32 87.605 54.828 176.648.766 234.551M206.738.516C158.348 57.023 110.145 115.48 1.156 236.738M215.965 1.188C140.418 86.227 65.887 173.637 2.328 246.952M217.773-.418C131.508 97.277 47.695 197.172.266 249.801M225.668.105C157.695 81.023 86.012 163.098-1.652 262.883M227.238-.82C179.098 53.5 134.305 106.355.934 260.363M236.89 1.81C178.133 66.066 117.266 135.574-.191 274.477M237.489-.141C156.026 89.758 78.378 180.453.214 272.88M245.953-.008C169.52 89.195 93.7 176.192-.84 287.95M248.563-.934C181.601 81.352 108.512 162.684 1.222 286.582M258.949 1.664C197.492 71.484 136.187 141.06-.926 300.387M258.156-1.07C157.012 111.805 61.41 222.355-1.102 297.809M267.723 2.66C194 83.836 118.785 171.191 2.633 312.113M270.277-.66C188.95 90.797 108.317 183 .016 309.777M281.19 1.516C188.094 106.286 97.571 210.102-2.66 323.75M280.43.875C187.004 104.848 96.77 210.367-.656 322.425M292.266-2.577C205.32 92.882 125.102 185.59 9.09 322.613M291.793-.238C224.219 75.527 159.332 148.09 9.547 324.145M299.676-.434C242.969 72.918 182.664 144.856 17.402 323.25M301.574.977C197.883 123.387 91.141 243.422 20.554 324.543M310.923.816C234.75 89.551 158.773 180.36 32.027 322.027M310.86-.727c-56.671 66.88-114.957 133.532-281.457 325.239M322.945 1.559C232 104.363 139.215 210.219 39.738 322.035m281.91-322.5C257.723 72.832 192.355 146.762 41.258 324.36M332.512 2.145C241.882 104.609 148.16 209.96 52.937 322.402m280.09-323.73C249.47 102.555 160.5 204.086 51.25 322.949M344.113-1.848c-87.386 105.57-174.707 203.286-280.129 325.496M344.375-.324C248.832 111.129 149.777 225.62 63.23 323.164M352.238-1.973C249.402 116.926 151.234 227.86 74.598 321.441M354.109.227C278.051 88.488 200.34 178.883 73.58 325.273M367.245-1.984C255.563 128.446 145.895 258.484 82.79 326.14M365.043 1.23C312.035 67.073 252.668 134.413 84.906 322.62M373.473.613C298.91 91.605 222.758 177.148 92.297 325.277M376.852-1.093C293.773 90.761 213.125 184.366 94.527 323.43M383.707-2.492c-62.05 80.808-126.629 159.34-278.527 324.273M387.227.902c-88.168 103.84-181.34 209.434-281.41 324.48M398.608.72C322.8 87.524 244.148 178.595 116.452 323.298M396.387-1.285c-83.7 98.52-169.149 194.586-280.809 324.758M410.043-1.871C337.586 75.367 267.687 155.25 128.48 324.086M407.277 1.266c-66.445 77.488-133.402 154.73-281.515 322.46M415.77 2.09c-70.657 89.75-145.06 173.64-279.48 321.398M418.257.934C319.53 109.94 223.656 219.774 137.875 324.05M431.57 2.477C313.867 126.78 199.691 257.828 147.941 324.414M427.996-.164C339.06 107.219 244.938 217.136 148.27 324.34M439.805-1.574C381.78 66.922 326.812 131.582 158.94 322.102M440.328.852C377.23 67.895 320.078 136.699 157.16 323.305M447.926 1.012c-107.606 126.02-217.106 247.23-276.95 325.14M450.81-.605c-59.38 73.261-119.434 143.394-282.817 323.714M461.355-.223C397.684 62.84 341.937 127.266 176.79 321.527M460.871.36c-78.863 86.043-152.96 173.383-280.523 322.895M469.25.204c-94.395 114.448-193.93 228.144-281.953 322.995m283.3-324.312c-87.585 104.508-179.503 209.707-280.745 324.355M479.492-2.723c-60.59 78.59-128.652 160.672-281.91 327.465M482.594 1.122C386.336 113.265 288.62 225.21 200.469 322.75M491.996-1.246c-88.02 111.281-181.39 216.012-280.902 325.121M493.352.297c-89.329 98.41-175.82 197.297-282.86 323.617M501.168-2.176c-98.574 116.258-193.637 230.985-279.965 323.73M503.593.759C420.923 94.199 340.06 185.96 220.43 324.813M514.016-.896C456.348 66.796 394.305 138.64 232.449 325.401M513.598.472C440.844 78.66 375.27 158.216 231.457 322.693M523.668 1.081c-82.7 87.016-160.441 180.047-282.465 322.137M525.238-1.227C425.715 109.531 329.84 219.003 241.602 324.34M532.203-.148c-80.621 99.953-163.406 196.671-281.66 325.746M533.98-.727c-73.527 87.133-145.015 171.043-281.222 325.399M548.105-.184C479.305 77.54 414.098 156.02 263.68 326.258M545.332.949c-96.394 104.012-187.164 209.2-282.812 322.203M554.664-.934c-57.601 62.336-112.906 132.223-279.281 324.36M556.406-1.223c-60.195 74.88-123.953 147.07-280.98 325.653M568.796.484c-66.683 70.891-125.78 140.641-285.304 323.493M565.29-.398c-73.46 88.906-148.094 174.73-281.164 324.113M577.617-2.23C468.148 125.219 354.828 253.844 293.012 323.23M576.996-.125c-60.16 73.988-122.621 143.254-280.14 324.629M587.253.41c-68.496 79.637-146.047 167.215-283.102 324.73M588.25-.323c-110.242 125.98-215.45 249.199-283.344 325.68M597.992-.817c-84.07 104.96-171.191 205.07-280.125 323.043M599.06.55C531.254 65.953 470.543 138.359 317.5 324.895M609.879.754c-73.64 74.742-140.938 153.05-282.836 324.172M609.503-.47C523.23 98.215 442.216 194.273 326.02 323.035M617.82-2.03c-97.742 106.566-187.953 217.726-281.152 325.183M620.531-1.105C514.351 124.96 403.895 251.87 337.277 324.043M618.961 8.683c-83.691 96.985-171.363 195.223-273.027 316.602M619.617 11.242c-99.992 112.703-201.078 227.227-271.55 313.43M620.14 20.512c-104.97 124.27-203.442 240.062-262.47 302.742m264.434-299.5C556.816 95.422 489.965 172.5 358.07 324.996M619.082 33.992c-61.137 73.121-130.68 153.77-251.676 288.719M622.328 33.863c-58.566 65.825-119.41 133.254-252.672 289.563M621.207 46.738c-83.273 90.348-160.363 179.766-240.148 277.957M621.64 46.977c-67.012 79.98-131.54 155.105-241.399 275.867m240.16-261.57c-65.203 66.492-125.215 135.69-230.37 262.46m232.261-263.55C531.266 161.438 439.387 267.637 391.695 323.32M621.88 70.422c-64.531 71.766-120.05 138.254-222.817 250.906M620.328 70.434c-67.312 85.699-140.379 169.55-218.473 254.629M623.121 85.976C557.31 166.168 492.688 241.762 414.38 322.445m206.183-239.46c-68.566 86.167-139.69 169.378-208.582 240.535M619.066 95.887c-65.464 86.11-137.746 164.34-197.863 227M620.367 95.824C557.934 164.22 494.914 235.34 422.961 324.062m196.766-216.066C555.578 178.77 489.34 255.574 433.586 325.434m188.46-218.102c-69.382 79.398-138.312 159.207-188.253 216.035m189.512-205.055c-40.66 42.954-74.637 87.18-181.203 205.489m180.05-202.516c-68.34 76.719-136.988 152.54-177.73 202.059M621.52 132.473C588 176.37 549.8 214.343 454.188 325.672m167.222-194.07c-39.734 43.136-80.762 92.886-167.203 191.062m167.258-175.578c-51.32 55.934-97.172 110.898-157.422 175.91m157.762-178.715c-65.227 71.27-127.715 140.59-155.578 180.29m154.66-167.38c-31.157 43.532-59.489 76.399-147.723 168.871m147.063-169.437c-37.622 47.215-74.067 91.344-145.641 168.172m149.07-153.578c-30.164 38.789-63.289 71.46-135.199 153.828m131.516-155.492c-33.668 30.945-64.961 69.601-132.403 153.347m132.91-139.02c-27.187 32.415-50.703 62.173-123.683 141.74M621.02 182.358c-30.11 39.348-60.586 73.055-124.485 141.985M620.63 195.05c-42.781 52.43-87.11 101.457-111.785 131.648M619.75 192.203c-39.387 51.313-78.766 96.938-112.117 133.098M619.5 203.637c-31.984 36.445-60.828 74.383-98.672 118.703m101.113-116.461c-30.96 34.883-59.593 68.152-105.058 118.066m103.523-105.527c-29.422 30.098-53.89 62.684-89.054 107.562m90.52-108.097c-28.505 25.926-54.446 54.762-94.395 104.875m94.671-91.028c-31.328 36.313-56.207 69.528-85.02 90.383m82.579-91.875c-18.84 30.11-39.644 54.426-81.48 93.664m82.043-81.918c-19.2 25.52-42.262 50.61-67.536 80.203m68.227-80.414c-27.29 38.715-54.262 68.102-70.484 82.336m69.066-71.12c-25.48 35.757-47.367 65.64-58.395 69.804m59.075-68.922c-19.97 22.07-42.145 47.766-58.356 70.527m57.774-59.113c-12.637 26.102-27.668 42.094-49.047 60.89m49.863-58.265c-15.55 20.723-27.914 37.14-48.832 55.883m49.18-42.5c-13.524 12.64-32.528 33.184-41.633 40.172m41.785-43.469c-13.098 11.86-22.879 24.367-39.48 46.785m41.039-30.906c-9.782 4.004-12.805 8.531-31.594 30.773m30.969-34.808c-12.551 16.453-24.543 29.629-28.711 33.652m27.64-19.36c-4.87 3.298-9.336 8.598-17.582 17.708m18.977-18.477c-5.766 4.836-12.61 12.028-20.086 19.973m18.324-6.305c-.558 4.274-3.976 7.512-8.156 8.086m8.023-10.055c-2.71 7.606-5.652 10.36-6.312 9.575"/>
        </g>
        <pattern id="pattern2" width="621" height="324" patternUnits="userSpaceOnUse">
            <use xlink:href="#surface739"/>
        </pattern>
    </defs>
    <g id="surface720">
        <path fill="#ef5ba1" fill-opacity="1" fill-rule="nonzero" stroke="none" d="M4.5 8h179c6.668 0 10 3.332 10 10v86h-179c-6.668 0-10-3.332-10-10zm0 0" transform="scale(.75)"/>
        <path fill="none" stroke="#000" stroke-linecap="butt" stroke-linejoin="miter" stroke-miterlimit="10" stroke-opacity="1" stroke-width="1.5" d="M5.926 5.464c48.062 4.462 96.778 1.362 130.958-.36M4.014 6.788c30.062.207 60.284.28 134.968-.08m-1.225.9c4.954-1.383 7.494.483 7.614 5.598m-8.285-5.7c6.762-2.034 9.958-.21 9.598 5.474m-1.875-.55c3.27 19.623.082 41.34 3.489 65.698m-2.09-64.603c-1.417 24.258-.682 48.473.083 64.422m.278-2.55c-42.683 2.997-88.59 3.372-134.372 3.214m133.646-1.087c-45.741.64-93.95.496-133.028.628m.787-1.838c-5.305.18-8.32-2.032-9.043-6.635m6.425 6.667c-5.101 1.349-6.994-.84-5.684-6.562m1.966-.111C5.725 55.515 3.533 43.213 2.619 4.56m1.676 64.697c.665-14.467-.929-27.897.785-61.816"/>
        <path fill="url(#pattern0)" fill-rule="nonzero" stroke="none" d="M301.5 8h188c6.668 0 10 3.332 10 10v86h-188c-6.668 0-10-3.332-10-10zm0 0" transform="scale(.75)"/>
        <path fill="none" stroke="#000" stroke-linecap="butt" stroke-linejoin="miter" stroke-miterlimit="10" stroke-opacity="1" stroke-width="1.5" d="M222.384 8.754c38.625 1.391 71.789-.21 142.239-.553m-140.803.415c47.566-4.84 93.796-6.15 141.544.035m-1.28-.07c5.344-.7 8.382 1.626 9.109 6.979m-7.946-7.858c5.579.73 7.518 3.053 5.819 6.972m-1.363 1.794c1.597 12.38 2.927 25.61 2.815 63.117m-.7-64.049c-.797 13.53-1.042 31.463-.48 63.138m.612-.858c-37.265 4.16-76.136 1.245-143.753 2.703m143.53-1.368c-57.694-3.591-112.921-3.656-141.418.83m-.727-1.495c-4.321-.16-6.806-2.364-7.456-6.606m9.607 7.743c-6.167.413-9.053-2.256-8.66-8.013m-.338-1.807c1.257-10.304-.43-24.815 1.667-61.588m-2.325 64.374c.34-18.02 1.505-38.942 1.142-64.682"/>
        <path fill="url(#pattern1)" fill-rule="nonzero" stroke="none" d="M616.5 104l40.5 14.398 81-28.796L778.5 104V8h-162zm0 0" transform="scale(.75)"/>
        <path fill="none" stroke="#000" stroke-linecap="butt" stroke-linejoin="miter" stroke-miterlimit="10" stroke-opacity="1" stroke-width="1.5" d="M461.766 80.886c7.133.02 12.29 1.01 29.642 9.056M461.27 78.658c9.985 10.814 18.848 14.387 31.682 11.08m-1.796 1.286c18.355-6.152 36.48-10.034 61.45-23.895m-60.8 23.497c20.344-12.709 40.468-20.807 61.823-22.313m-.21 1.764c5.237-1.29 13.652 3 31.402 11.406m-30.603-12c8.977-.953 19.468 2.425 28.576 9.638m1.24.284c1.312-24.636-.36-51.665-2.306-71.99m1.157 71.536c-.516-29.766-.352-50.95 1.597-72.255m-.484-1.245c-43.77-4.06-91.629-3.495-121.766-1.137m122.325 2.35c-35.373 4.371-71.997 4.324-122.63-.126m.888-.126c.21 22.374 1.25 45.929-1.093 74.994m-.613-76.201c1.17 27.17.953 55.107 1.328 73.872"/>
        <path fill="url(#pattern2)" fill-rule="nonzero" stroke="none" d="M301.5 152h188c6.668 0 10 3.332 10 10v86h-188c-6.668 0-10-3.332-10-10zm0 0" transform="scale(.75)"/>
        <path fill="none" stroke="#000" stroke-linecap="butt" stroke-linejoin="miter" stroke-miterlimit="10" stroke-opacity="1" stroke-width="1.5" d="M226.201 115.093c53.61 1.629 110.256 2.205 141.033-1.734m-140.124.096c45.372 5.786 93.92 5.256 140.507 1.858m.525-2.142c4.801.266 6.565 3.263 5.293 8.985m-7.406-7.162c5.637-1.418 8.613.864 8.924 6.843m.639 2.007c-2.736 13.342-2.622 31.16 1.444 62.417m-3.105-64.535c.079 17.496 1.224 35.188.527 64.969m2.3-.01c-58.992-2.165-116.107-1.11-142.251-1.593m141.34 2.206c-39.604.574-77.796.507-142.176-1.928m-.512.944c-3.787.28-6.238-2.238-7.345-7.562m10.116 6.612c-5.364-.22-8.232-2.035-8.601-5.449m-1.266-1.207c2.043-17.555-.372-34.992.355-62.238m-.018 64.333c1.07-20.616-.715-42.671.238-66.393"/>
        <path fill="#27bdce" fill-opacity="1" fill-rule="nonzero" stroke="none" d="M301.5 296h188c6.668 0 10 3.332 10 10v86h-188c-6.668 0-10-3.332-10-10zm0 0" transform="scale(.75)"/>
        <path fill="none" stroke="#000" stroke-linecap="butt" stroke-linejoin="miter" stroke-miterlimit="10" stroke-opacity="1" stroke-width="1.5" d="M228.123 222.84c42.053-1.244 79.362 1.753 138.12-.228m-139.342 1.884c43.823 3.671 89.315 3.607 140.675-1.002m.114.243c4.881-.686 7.16 1.406 6.841 6.279m-5.039-7.928c3.15.46 5.86 2.853 8.136 7.178m-1.582.39c2.065 17.035 2.977 40.707.58 64.977m1.632-64.898c-.164 8.25-.95 23.431-.771 65.073m.15-.187c-32.608 2.133-68.047-.853-142.92.96m141.921-2.231c-51.451 1.848-102.724 2.322-139.729-.522m-.972.791c-3.935.337-6.074-1.86-6.417-6.592m6.244 6.27c-4.207-.364-5.947-3.091-5.212-8.186m-1.415.027c-1.38-13.506.515-24.645-2.434-60.551m4.795 61.16c-1.795-13.453-2.025-25.553-3.513-62.215"/>
        <path fill="none" stroke="#000" stroke-linecap="butt" stroke-linejoin="miter" stroke-miterlimit="10" stroke-opacity="1" stroke-width="1.5" d="M146.001 44.613c22.295-2.665 48.457-1.022 73.84.094m-74.54.114c18.035-2.88 36.486-3.539 74.238-.243"/>
        <path fill="none" stroke="#000" stroke-linecap="butt" stroke-linejoin="miter" stroke-miterlimit="10" stroke-opacity="1" stroke-width="1.5" d="M299.244 76.559c.739 10.35-1.013 12.931.129 24.72m-.352-23.935c-.421 7.474.22 14.857-1.002 25.38"/>
        <path fill="none" stroke="#000" stroke-linecap="butt" stroke-linejoin="miter" stroke-miterlimit="10" stroke-opacity="1" stroke-width="1.5" d="M300.575 187.708c-.18.735-1.085 8.214-.645 23.332m-.68-25.609c1.454 4.002-.17 9.581.178 23.793"/>
        <path fill="none" stroke="#000" stroke-linecap="butt" stroke-linejoin="miter" stroke-miterlimit="10" stroke-opacity="1" stroke-width="1.5" d="M373.483 39.744c35.22-2.8 71.012-2.03 86.842.926m-87.103 1.843c28.845 4.84 55.13 6.09 88.219-.56"/>
    </g>
    <defs xmlns="http://www.w3.org/2000/svg">
        <filter id="dsFilterNoBlur" width="150%" height="150%">
            <feOffset dx="3" dy="3" in="SourceGraphic" result="offOut"/>
            <feColorMatrix in="offOut" result="matrixOut" type="matrix" values="0.2 0 0 0 0 0 0.2 0 0 0 0 0 0.2 0 0 0 0 0 1 0"/>
            <feBlend in="SourceGraphic" in2="matrixOut" mode="normal"/>
        </filter>
        <filter id="dsFilter" width="150%" height="150%">
            <feOffset dx="3" dy="3" in="SourceGraphic" result="offOut"/>
            <feColorMatrix in="offOut" result="matrixOut" type="matrix" values="0.2 0 0 0 0 0 0.2 0 0 0 0 0 0.2 0 0 0 0 0 1 0"/>
            <feGaussianBlur in="matrixOut" result="blurOut" stdDeviation="3"/>
            <feBlend in="SourceGraphic" in2="blurOut" mode="normal"/>
        </filter>
        <marker id="iPointer" fill="#000" markerHeight="7" markerUnits="strokeWidth" markerWidth="8" orient="auto" refX="5" refY="5" viewBox="0 0 10 10">
            <path d="M10 0v10L0 5z"/>
        </marker>
        <marker id="Pointer" fill="#000" markerHeight="7" markerUnits="strokeWidth" markerWidth="8" orient="auto" refX="5" refY="5" viewBox="0 0 10 10">
            <path d="M0 0l10 5-10 5z"/>
        </marker>
    </defs>
    <defs>
        <style type="text/css">
            @font-face{font-family:&quot;xkcd Script&quot;;src:url(./xkcd-script.ttf)}
        </style>
    </defs>
    <g xmlns="http://www.w3.org/2000/svg" id="lines" fill="none" stroke="#000" stroke-width="2" transform="scale(.75)">
        <g id="group598">
            <path id="path598" marker-end="url(#Pointer)" d="M193.5 56h99"/>
        </g>
        <g id="group1223">
            <path id="path1223" marker-end="url(#Pointer)" d="M400.5 104v32"/>
        </g>
        <g id="group1233">
            <path id="path1233" marker-end="url(#Pointer)" d="M400.5 248v32"/>
        </g>
        <g id="group1519">
            <path id="path1519" d="M499.5 56h117"/>
        </g>
    </g>
    <text id="text0" x="12.825" y="33.6" fill="#fff" stroke="none" font-family="xkcd Script" font-size="15">
        Make
    </text>
    <text id="text2" x="235.575" y="33.6" fill="#000" stroke="none" font-family="xkcd Script" font-size="15">
        HTML
    </text>
    <text id="text3" x="471.825" y="33.6" fill="#000" stroke="none" font-family="xkcd Script" font-size="15">
        PDF
    </text>
    <text id="text5" x="235.575" y="141.6" fill="#000" stroke="none" font-family="xkcd Script" font-size="15">
        ConfigMap
    </text>
    <text id="text7" x="235.575" y="249.6" fill="#fff" stroke="none" font-family="xkcd Script" font-size="15">
        Pod
    </text>
    <text id="text1" x="168.075" y="33.6" fill="#000" font-family="xkcd Script" font-size="15">
        build
    </text>
    <text id="text4" x="309.825" y="105.6" fill="#000" font-family="xkcd Script" font-size="15">
        update
    </text>
    <text id="text6" x="309.825" y="213.6" fill="#000" font-family="xkcd Script" font-size="15">
        replace
    </text>
</svg>
