<svg xmlns="http://www.w3.org/2000/svg" width="284pt" height="144" version="1.1" viewBox="0 0 284 108">
    <g id="surface89">
        <path fill="#fff" fill-opacity="1" fill-rule="nonzero" stroke="none" d="M97.75 17.914c36.27-13.742 71.82-11.453 125.004-1.363 59.707-8.637 121.809 11.379 82.762 31.078 51.601 16.324 1.648 43.121-39.657 38.25 21.579 9.547-41.382 27.883-104.312 10.59-84.91 16.336-112.457 1.86-121.559-12.297-65.144-5.809-21.11-39.184-4.265-44.055C-14.891 24.79 57.227 7.527 97.75 17.914zm0 0" transform="scale(.75)"/>
        <path fill="none" stroke="#000" stroke-linecap="butt" stroke-linejoin="miter" stroke-miterlimit="10" stroke-opacity="1" stroke-width="1.5" d="M74.508 13.884c29.141-8.954 52.881-9.232 95.282-.469m-93.597-1.518c23.838-10.38 53.376-7.057 90.301-1.456m0 0c44.297-4.707 91.829 10.45 60.959 23.991m-60.637-23.47c42.604-8.446 88.828 6.23 59.672 25.055m0 0c39.07 11.256 2.16 30.31-31.508 29.77m31.977-30.013c37.544 14.359-1.043 30.475-30.55 26.588m0 0c16.833 8.431-33.053 22.828-78.757 9.556m77.81-8.461c16.406 7.661-31.073 20.985-79.854 6.035m0 0c-62.919 12.141-86.424 2.056-90.669-11.294m91.52 9.507c-63.113 15.335-83.744 4.848-90.485-7.728m0 0c-48.234-3.208-17.832-28.53-4.878-32.953m5.64 34.301c-50.352-6.29-15.208-32.49-1.679-36.662m0 0C-12.53 12.967 39.553 1.125 70.1 6.859M23.38 25.62C-13.043 14.405 40.721-1.08 73.8 10.468m-.363.38c.788-.55.586 1.389.733 2.61m-.513-2.765c.448 1.983.826 3.065.744 3.156"/>
    </g>
    <defs xmlns="http://www.w3.org/2000/svg">
        <filter id="dsFilterNoBlur" width="150%" height="150%">
            <feOffset dx="3" dy="3" in="SourceGraphic" result="offOut"/>
            <feColorMatrix in="offOut" result="matrixOut" type="matrix" values="0.2 0 0 0 0 0 0.2 0 0 0 0 0 0.2 0 0 0 0 0 1 0"/>
            <feBlend in="SourceGraphic" in2="matrixOut" mode="normal"/>
        </filter>
        <filter id="dsFilter" width="150%" height="150%">
            <feOffset dx="3" dy="3" in="SourceGraphic" result="offOut"/>
            <feColorMatrix in="offOut" result="matrixOut" type="matrix" values="0.2 0 0 0 0 0 0.2 0 0 0 0 0 0.2 0 0 0 0 0 1 0"/>
            <feGaussianBlur in="matrixOut" result="blurOut" stdDeviation="3"/>
            <feBlend in="SourceGraphic" in2="blurOut" mode="normal"/>
        </filter>
        <marker id="iPointer-o38u4z1bal" fill="#000" markerHeight="7" markerUnits="strokeWidth" markerWidth="8" orient="auto" refX="5" refY="5" viewBox="0 0 10 10">
            <path d="M10 0v10L0 5z"/>
        </marker>
        <marker id="Pointer-o38u4z1bal" fill="#000" markerHeight="7" markerUnits="strokeWidth" markerWidth="8" orient="auto" refX="5" refY="5" viewBox="0 0 10 10">
            <path d="M0 0l10 5-10 5z"/>
        </marker>
    </defs>
    <defs>
        <style type="text/css">
            @font-face{font-family:&quot;xkcd Script&quot;;src:url(./xkcd-script.ttf)}
        </style>
    </defs>
    ??
    <text id="text0" x="33.075" y="45.6" fill="#000" stroke="none" font-family="xkcd Script" font-size="15">
        sustainable cloud computing
    </text>
</svg>
