<svg class="marks" width="541" height="260" viewBox="0 0 541 260" version="1.1" xmlns="http://www.w3.org/2000/svg" xmlns:xlink="http://www.w3.org/1999/xlink"><g transform="translate(65,5)"><g class="mark-group role-frame root"><g transform="translate(0,0)"><path class="background" d="M0.5,0.5h400v200h-400Z" style="fill: none; stroke: #ddd;"></path><g><g class="mark-group role-axis"><g transform="translate(0.5,200.5)"><path class="background" d="M0,0h0v0h0Z" style="pointer-events: none; fill: none;"></path><g><g class="mark-rule role-axis-grid" style="pointer-events: none;"><line transform="translate(20,-200)" x2="0" y2="200" style="fill: none; stroke: #ddd; stroke-width: 1; opacity: 1;"></line><line transform="translate(50,-200)" x2="0" y2="200" style="fill: none; stroke: #ddd; stroke-width: 1; opacity: 1;"></line><line transform="translate(80,-200)" x2="0" y2="200" style="fill: none; stroke: #ddd; stroke-width: 1; opacity: 1;"></line><line transform="translate(110,-200)" x2="0" y2="200" style="fill: none; stroke: #ddd; stroke-width: 1; opacity: 1;"></line><line transform="translate(140,-200)" x2="0" y2="200" style="fill: none; stroke: #ddd; stroke-width: 1; opacity: 1;"></line><line transform="translate(170,-200)" x2="0" y2="200" style="fill: none; stroke: #ddd; stroke-width: 1; opacity: 1;"></line><line transform="translate(200,-200)" x2="0" y2="200" style="fill: none; stroke: #ddd; stroke-width: 1; opacity: 1;"></line><line transform="translate(230,-200)" x2="0" y2="200" style="fill: none; stroke: #ddd; stroke-width: 1; opacity: 1;"></line><line transform="translate(260,-200)" x2="0" y2="200" style="fill: none; stroke: #ddd; stroke-width: 1; opacity: 1;"></line><line transform="translate(290,-200)" x2="0" y2="200" style="fill: none; stroke: #ddd; stroke-width: 1; opacity: 1;"></line><line transform="translate(320,-200)" x2="0" y2="200" style="fill: none; stroke: #ddd; stroke-width: 1; opacity: 1;"></line><line transform="translate(350,-200)" x2="0" y2="200" style="fill: none; stroke: #ddd; stroke-width: 1; opacity: 1;"></line><line transform="translate(380,-200)" x2="0" y2="200" style="fill: none; stroke: #ddd; stroke-width: 1; opacity: 1;"></line></g></g></g></g><g class="mark-group role-axis"><g transform="translate(0.5,0.5)"><path class="background" d="M0,0h0v0h0Z" style="pointer-events: none; fill: none;"></path><g><g class="mark-rule role-axis-grid" style="pointer-events: none;"><line transform="translate(0,200)" x2="400" y2="0" style="fill: none; stroke: #ddd; stroke-width: 1; opacity: 1;"></line><line transform="translate(0,156)" x2="400" y2="0" style="fill: none; stroke: #ddd; stroke-width: 1; opacity: 1;"></line><line transform="translate(0,111)" x2="400" y2="0" style="fill: none; stroke: #ddd; stroke-width: 1; opacity: 1;"></line><line transform="translate(0,67)" x2="400" y2="0" style="fill: none; stroke: #ddd; stroke-width: 1; opacity: 1;"></line><line transform="translate(0,22)" x2="400" y2="0" style="fill: none; stroke: #ddd; stroke-width: 1; opacity: 1;"></line></g></g></g></g><g class="mark-rect role-mark marks"><path d="M10,197.77777777777777h20v2.2222222222222285h-20Z" style="fill: #fe17bf;"></path><path d="M39.97946611909651,197.77777777777777h20v2.2222222222222285h-20Z" style="fill: #fe17bf;"></path><path d="M69.95893223819301,195.55555555555554h20v4.444444444444457h-20Z" style="fill: #fe17bf;"></path><path d="M100.02053388090349,193.33333333333334h20v6.666666666666657h-20Z" style="fill: #fe17bf;"></path><path d="M130,186.66666666666666h20v8.888888888888886h-20Z" style="fill: #fe17bf;"></path><path d="M159.97946611909651,155.55555555555554h20v17.7777777777778h-20Z" style="fill: #fe17bf;"></path><path d="M189.958932238193,135.55555555555554h20v20h-20Z" style="fill: #fe17bf;"></path><path d="M220.0205338809035,115.55555555555556h20v22.222222222222214h-20Z" style="fill: #fe17bf;"></path><path d="M250,95.55555555555554h20v24.444444444444457h-20Z" style="fill: #fe17bf;"></path><path d="M279.9794661190965,77.77777777777777h20v24.444444444444457h-20Z" style="fill: #fe17bf;"></path><path d="M309.95893223819303,46.66666666666666h20v35.55555555555556h-20Z" style="fill: #fe17bf;"></path><path d="M340.0205338809035,26.666666666666657h20v35.55555555555557h-20Z" style="fill: #fe17bf;"></path><path d="M370,2.2222222222222285h20v37.77777777777777h-20Z" style="fill: #fe17bf;"></path><path d="M10,200h20v0h-20Z" style="fill: #3364c0;"></path><path d="M39.97946611909651,200h20v0h-20Z" style="fill: #3364c0;"></path><path d="M69.95893223819301,200h20v0h-20Z" style="fill: #3364c0;"></path><path d="M100.02053388090349,200h20v0h-20Z" style="fill: #3364c0;"></path><path d="M130,195.55555555555554h20v0h-20Z" style="fill: #3364c0;"></path><path d="M159.97946611909651,173.33333333333334h20v8.888888888888886h-20Z" style="fill: #3364c0;"></path><path d="M189.958932238193,155.55555555555554h20v13.333333333333343h-20Z" style="fill: #3364c0;"></path><path d="M220.0205338809035,137.77777777777777h20v17.77777777777777h-20Z" style="fill: #3364c0;"></path><path d="M250,120h20v22.22222222222223h-20Z" style="fill: #3364c0;"></path><path d="M279.9794661190965,102.22222222222223h20v26.666666666666657h-20Z" style="fill: #3364c0;"></path><path d="M309.95893223819303,82.22222222222221h20v31.111111111111114h-20Z" style="fill: #3364c0;"></path><path d="M340.0205338809035,62.22222222222223h20v35.55555555555556h-20Z" style="fill: #3364c0;"></path><path d="M370,40h20v40h-20Z" style="fill: #3364c0;"></path><path d="M10,200h20v0h-20Z" style="fill: #27bdce;"></path><path d="M39.97946611909651,200h20v0h-20Z" style="fill: #27bdce;"></path><path d="M69.95893223819301,200h20v0h-20Z" style="fill: #27bdce;"></path><path d="M100.02053388090349,200h20v0h-20Z" style="fill: #27bdce;"></path><path d="M130,195.55555555555554h20v4.444444444444457h-20Z" style="fill: #27bdce;"></path><path d="M159.97946611909651,182.22222222222223h20v17.77777777777777h-20Z" style="fill: #27bdce;"></path><path d="M189.958932238193,168.88888888888889h20v31.111111111111114h-20Z" style="fill: #27bdce;"></path><path d="M220.0205338809035,155.55555555555554h20v44.44444444444446h-20Z" style="fill: #27bdce;"></path><path d="M250,142.22222222222223h20v57.77777777777777h-20Z" style="fill: #27bdce;"></path><path d="M279.9794661190965,128.88888888888889h20v71.11111111111111h-20Z" style="fill: #27bdce;"></path><path d="M309.95893223819303,113.33333333333333h20v86.66666666666667h-20Z" style="fill: #27bdce;"></path><path d="M340.0205338809035,97.77777777777779h20v102.22222222222221h-20Z" style="fill: #27bdce;"></path><path d="M370,80h20v120h-20Z" style="fill: #27bdce;"></path></g><g class="mark-group role-legend"><g transform="translate(418,0)"><path class="background" d="M0,0h53v56h-53Z" style="pointer-events: none; fill: none;"></path><g><g class="mark-group role-legend-entry"><g transform="translate(0,16)"><path class="background" d="M0,0h0v0h0Z" style="pointer-events: none; fill: none;"></path><g><g class="mark-group role-scope"><g transform="translate(0,0)"><path class="background" d="M0,0h49v12h-49Z" style="pointer-events: none; fill: none; opacity: 1;"></path><g><g class="mark-symbol role-legend-symbol" style="pointer-events: none;"><path transform="translate(6,6)" d="M-5,-5h10v10h-10Z" style="fill: #fe17bf; stroke-width: 1.5; opacity: 1;"></path></g><g class="mark-text role-legend-label" style="pointer-events: none;"><text text-anchor="start" transform="translate(16,9)" style="font-family: sans-serif; font-size: 10px; fill: #000; opacity: 1;">AMZN</text></g></g></g><g transform="translate(0,14)"><path class="background" d="M0,0h49v12h-49Z" style="pointer-events: none; fill: none; opacity: 1;"></path><g><g class="mark-symbol role-legend-symbol" style="pointer-events: none;"><path transform="translate(6,6)" d="M-5,-5h10v10h-10Z" style="fill: #3364c0; stroke-width: 1.5; opacity: 1;"></path></g><g class="mark-text role-legend-label" style="pointer-events: none;"><text text-anchor="start" transform="translate(16,9)" style="font-family: sans-serif; font-size: 10px; fill: #000; opacity: 1;">GOOG</text></g></g></g><g transform="translate(0,28)"><path class="background" d="M0,0h49v12h-49Z" style="pointer-events: none; fill: none; opacity: 1;"></path><g><g class="mark-symbol role-legend-symbol" style="pointer-events: none;"><path transform="translate(6,6)" d="M-5,-5h10v10h-10Z" style="fill: #27bdce; stroke-width: 1.5; opacity: 1;"></path></g><g class="mark-text role-legend-label" style="pointer-events: none;"><text text-anchor="start" transform="translate(16,9)" style="font-family: sans-serif; font-size: 10px; fill: #000; opacity: 1;">MSFT</text></g></g></g></g></g></g></g><g class="mark-text role-legend-title" style="pointer-events: none;"><text text-anchor="start" transform="translate(0,9)" style="font-family: sans-serif; font-size: 11px; font-weight: bold; fill: #000; opacity: 1;">symbol</text></g></g></g></g><g class="mark-group role-axis"><g transform="translate(0.5,200.5)"><path class="background" d="M0,0h0v0h0Z" style="pointer-events: none; fill: none;"></path><g><g class="mark-rule role-axis-tick" style="pointer-events: none;"><line transform="translate(20,0)" x2="0" y2="5" style="fill: none; stroke: #888; stroke-width: 1; opacity: 1;"></line><line transform="translate(50,0)" x2="0" y2="5" style="fill: none; stroke: #888; stroke-width: 1; opacity: 1;"></line><line transform="translate(80,0)" x2="0" y2="5" style="fill: none; stroke: #888; stroke-width: 1; opacity: 1;"></line><line transform="translate(110,0)" x2="0" y2="5" style="fill: none; stroke: #888; stroke-width: 1; opacity: 1;"></line><line transform="translate(140,0)" x2="0" y2="5" style="fill: none; stroke: #888; stroke-width: 1; opacity: 1;"></line><line transform="translate(170,0)" x2="0" y2="5" style="fill: none; stroke: #888; stroke-width: 1; opacity: 1;"></line><line transform="translate(200,0)" x2="0" y2="5" style="fill: none; stroke: #888; stroke-width: 1; opacity: 1;"></line><line transform="translate(230,0)" x2="0" y2="5" style="fill: none; stroke: #888; stroke-width: 1; opacity: 1;"></line><line transform="translate(260,0)" x2="0" y2="5" style="fill: none; stroke: #888; stroke-width: 1; opacity: 1;"></line><line transform="translate(290,0)" x2="0" y2="5" style="fill: none; stroke: #888; stroke-width: 1; opacity: 1;"></line><line transform="translate(320,0)" x2="0" y2="5" style="fill: none; stroke: #888; stroke-width: 1; opacity: 1;"></line><line transform="translate(350,0)" x2="0" y2="5" style="fill: none; stroke: #888; stroke-width: 1; opacity: 1;"></line><line transform="translate(380,0)" x2="0" y2="5" style="fill: none; stroke: #888; stroke-width: 1; opacity: 1;"></line></g><g class="mark-text role-axis-label" style="pointer-events: none;"><text text-anchor="middle" transform="translate(20,21)" style="font-family: sans-serif; font-size: 18px; fill: #000; opacity: 1;">2006</text><text text-anchor="middle" transform="translate(49.97946611909651,21)" style="font-family: sans-serif; font-size: 18px; fill: #000; opacity: 0;">2007</text><text text-anchor="middle" transform="translate(79.95893223819301,21)" style="font-family: sans-serif; font-size: 18px; fill: #000; opacity: 1;">2008</text><text text-anchor="middle" transform="translate(110.02053388090349,21)" style="font-family: sans-serif; font-size: 18px; fill: #000; opacity: 0;">2009</text><text text-anchor="middle" transform="translate(140,21)" style="font-family: sans-serif; font-size: 18px; fill: #000; opacity: 1;">2010</text><text text-anchor="middle" transform="translate(169.97946611909651,21)" style="font-family: sans-serif; font-size: 18px; fill: #000; opacity: 0;">2011</text><text text-anchor="middle" transform="translate(199.958932238193,21)" style="font-family: sans-serif; font-size: 18px; fill: #000; opacity: 1;">2012</text><text text-anchor="middle" transform="translate(230.0205338809035,21)" style="font-family: sans-serif; font-size: 18px; fill: #000; opacity: 0;">2013</text><text text-anchor="middle" transform="translate(260,21)" style="font-family: sans-serif; font-size: 18px; fill: #000; opacity: 1;">2014</text><text text-anchor="middle" transform="translate(289.9794661190965,21)" style="font-family: sans-serif; font-size: 18px; fill: #000; opacity: 0;">2015</text><text text-anchor="middle" transform="translate(319.95893223819303,21)" style="font-family: sans-serif; font-size: 18px; fill: #000; opacity: 1;">2016</text><text text-anchor="middle" transform="translate(350.0205338809035,21)" style="font-family: sans-serif; font-size: 18px; fill: #000; opacity: 0;">2017</text><text text-anchor="middle" transform="translate(380,21)" style="font-family: sans-serif; font-size: 18px; fill: #000; opacity: 1;">2018</text></g><g class="mark-rule role-axis-domain" style="pointer-events: none;"><line transform="translate(0,0)" x2="400" y2="0" style="fill: none; stroke: #888; stroke-width: 1; opacity: 1;"></line></g><g class="mark-text role-axis-title" style="pointer-events: none;"><text text-anchor="middle" transform="translate(200,44)" style="font-family: sans-serif; font-size: 18px; font-weight: bold; fill: #000; opacity: 1;">date (year)</text></g></g></g></g><g class="mark-group role-axis"><g transform="translate(0.5,0.5)"><path class="background" d="M0,0h0v0h0Z" style="pointer-events: none; fill: none;"></path><g><g class="mark-rule role-axis-tick" style="pointer-events: none;"><line transform="translate(0,200)" x2="-5" y2="0" style="fill: none; stroke: #888; stroke-width: 1; opacity: 1;"></line><line transform="translate(0,156)" x2="-5" y2="0" style="fill: none; stroke: #888; stroke-width: 1; opacity: 1;"></line><line transform="translate(0,111)" x2="-5" y2="0" style="fill: none; stroke: #888; stroke-width: 1; opacity: 1;"></line><line transform="translate(0,67)" x2="-5" y2="0" style="fill: none; stroke: #888; stroke-width: 1; opacity: 1;"></line><line transform="translate(0,22)" x2="-5" y2="0" style="fill: none; stroke: #888; stroke-width: 1; opacity: 1;"></line></g><g class="mark-text role-axis-label" style="pointer-events: none;"><text text-anchor="end" transform="translate(-7,205)" style="font-family: sans-serif; font-size: 18px; fill: #000; opacity: 1;">0</text><text text-anchor="end" transform="translate(-7,160.55555555555554)" style="font-family: sans-serif; font-size: 18px; fill: #000; opacity: 1;">20</text><text text-anchor="end" transform="translate(-7,116.11111111111111)" style="font-family: sans-serif; font-size: 18px; fill: #000; opacity: 1;">40</text><text text-anchor="end" transform="translate(-7,71.66666666666669)" style="font-family: sans-serif; font-size: 18px; fill: #000; opacity: 1;">60</text><text text-anchor="end" transform="translate(-7,27.22222222222223)" style="font-family: sans-serif; font-size: 18px; fill: #000; opacity: 1;">80</text></g><g class="mark-rule role-axis-domain" style="pointer-events: none;"><line transform="translate(0,200)" x2="0" y2="-200" style="fill: none; stroke: #888; stroke-width: 1; opacity: 1;"></line></g><g class="mark-text role-axis-title" style="pointer-events: none;"><text text-anchor="middle" transform="translate(-40,100) rotate(-90) translate(0,-4)" style="font-family: sans-serif; font-size: 18px; font-weight: bold; fill: #000; opacity: 1;">regions</text></g></g></g></g></g></g></g></g></svg>