<svg xmlns="http://www.w3.org/2000/svg" width="311pt" height="400" version="1.1" viewBox="0 0 311 300">
    <path id="surface64" fill="none" stroke="#fff" stroke-linecap="butt" stroke-linejoin="miter" stroke-miterlimit="10" stroke-opacity="1" stroke-width="2" d="M177.094 37.93c-52.547 2.027-100.95 35.238-97.461 80.937m99.707-83.586c-59.613.125-100.29 38.137-104.102 79.621m0 0c1.852 49.692 47.852 85.578 100.871 83.934M75.668 115.602c-.41 44.703 43.852 79.945 99.156 85.347m0 0c58.395-4.336 103.863-41.422 100.414-81.379m-99.789 81.055c56.36-.2 99.59-41.207 101.692-85.621m0 0c1.457-39.285-46.602-74.3-99.739-74.922m98.477 76.379c.887-40.309-43.961-76.754-101.203-79.613m-.336-2.762c-46.86 1.156-78.5 33.777-78.485 80.094m80.122-80.41c-43.79 2.812-84.07 36.625-79.247 82.289m0 0c-4.418 43.507 35.04 79.82 78.942 79.558m-76.508-81.984c-2.336 42.445 29.129 78.527 74.7 79.668m0 0c42.89 1.988 78.605-33.606 81.476-79.235m-79.102 81.856c42.067-3.57 80.598-40.754 78.418-79.938m0 0c2.496-44.504-37.91-83.023-81.832-83.984m83.2 82.027c.648-40.465-38.653-76.43-83.731-79.53M172 36.288c-34.27-.035-58.688 38.152-56.988 82.313m59.047-84.793c-36.809 5.386-64.782 37.015-60.403 79.582m0 0c-1.324 44.707 28.375 84.023 57.805 83.629m-57.059-83.368c-1.285 45.352 24.11 80.391 61.118 82.754m0 0c31.683.348 56.964-35.738 58.578-81.27m-57.743 79.438c27.208.809 56.965-30.61 57.836-75.512m0 0c1.149-43.874-30.863-83.847-60.68-84.468m59.727 86.844c-1.394-49.66-24.925-86.176-60.754-84.122m-.449-2.48c-20.945 1.91-37.972 33.71-39.375 83.098m37.457-81.864c-20.12.133-41.215 35.203-36.594 82.52m0 0c-.785 43.508 15.348 77.183 37.747 76.164m-36.649-76.375c-2.601 43.27 19.34 78.16 36.027 79.82m0 0c22.508-5.508 42.891-40.406 40.114-80.672m-37.575 83.29c20.438-5.176 37.708-38.899 36.68-86.84m0 0c4.332-44.227-12.097-79.102-38.847-78.34m38.496 79.793c.218-41.871-12.625-77.325-37.5-82.004m-1.95-1.692c-13.43 3.75-20.816 36.72-20.332 79.782m19.09-80.95c-9.222-.656-19.34 38.254-20.8 83.387m0 0c3.53 41.012 12.804 76.785 24.292 79.367m-23.78-81.445c1.78 43.043 10.085 77.035 23.8 77.324m0 0c7.562.485 20.766-30.812 19.543-74.762m-16.809 75.477c5.364 3.676 17.211-35.07 15.426-78.746m0 0c.121-43.902-6.023-77.7-19.219-78.191m19.817 79.941c1.937-44.445-11.168-81.922-17.2-84.043"/>
    <defs xmlns="http://www.w3.org/2000/svg">
        <filter id="dsFilterNoBlur" width="150%" height="150%">
            <feOffset dx="3" dy="3" in="SourceGraphic" result="offOut"/>
            <feColorMatrix in="offOut" result="matrixOut" type="matrix" values="0.2 0 0 0 0 0 0.2 0 0 0 0 0 0.2 0 0 0 0 0 1 0"/>
            <feBlend in="SourceGraphic" in2="matrixOut" mode="normal"/>
        </filter>
        <filter id="dsFilter" width="150%" height="150%">
            <feOffset dx="3" dy="3" in="SourceGraphic" result="offOut"/>
            <feColorMatrix in="offOut" result="matrixOut" type="matrix" values="0.2 0 0 0 0 0 0.2 0 0 0 0 0 0.2 0 0 0 0 0 1 0"/>
            <feGaussianBlur in="matrixOut" result="blurOut" stdDeviation="3"/>
            <feBlend in="SourceGraphic" in2="blurOut" mode="normal"/>
        </filter>
        <marker id="iPointer-noui2sgu0nf" fill="#000" markerHeight="7" markerUnits="strokeWidth" markerWidth="8" orient="auto" refX="5" refY="5" viewBox="0 0 10 10">
            <path d="M10 0v10L0 5z"/>
        </marker>
        <marker id="Pointer-noui2sgu0nf" fill="#000" markerHeight="7" markerUnits="strokeWidth" markerWidth="8" orient="auto" refX="5" refY="5" viewBox="0 0 10 10">
            <path d="M0 0l10 5-10 5z"/>
        </marker>
    </defs>
    <defs>
        <style type="text/css">
            @font-face{font-family:&quot;xkcd Script&quot;;src:url(./xkcd-script.ttf)}
        </style>
    </defs>
    ??
</svg>
