<svg xmlns="http://www.w3.org/2000/svg" xmlns:xlink="http://www.w3.org/1999/xlink" width="828" height="416" version="1.1" viewBox="0 0 621 312">
    <defs>
        <clipPath id="clip1">
            <path d="M0 0h621v312H0z"/>
        </clipPath>
        <g id="surface592" clip-path="url(#clip1)">
            <path fill="none" stroke="#fff" stroke-linecap="butt" stroke-linejoin="miter" stroke-miterlimit="10" stroke-opacity="1" stroke-width="1" d="M11.426 1.922c-2.13-.074-6.38 4.387-9.989 11.223M9.531.777C7.035 1.91 5.457 5.172-.117 10.582m21.031-8.168C12.793 9.691 3.27 17.86-1.793 25.36M20.715 0c-4.547 4.953-9.39 12.715-21.508 23.398M29.559 2.703C24.117 9.06 9.824 22.586 2.375 35.54M32.165-.559C21.124 10.601 10.616 24.984.522 36.633M43.09.789C28.746 17.266 11.75 31.812-.055 46.883M41.02.473C29.98 14.203 16.234 29.969-.262 49.082M54.652-1.375C29.872 25.137 9.63 50.523 2.617 58.207M51.855 1.039C37.515 16.172 25.582 30.742 1.371 60.086M61.926-2.352C47.238 22.332 29.523 40.734-1.691 71.7M62.465-.234C45.305 18.082 28.68 37.832.19 71.367M75.266.847C51.984 24.333 32.44 46.758-2.078 86.146M73.254-1.121C57.367 20.203 39.086 37.672 1.336 85.676M83.02-.867C52.594 40.03 16.258 77.309 1.238 96.84M84.551.875C66.289 22.199 45.797 46.504-.836 96.191M93.633-1.262C66.016 34.051 30.637 73.618-1.11 110.098M95.758-.434C70.278 28.31 45.48 55.562-.195 108.918M106.359-1.195C83.098 22.996 62.281 51.535-2.316 121.015M105.539-1.02C75.457 31.617 47.184 66.336-.66 121.852M113.919-2.29C75.301 47.53 31.473 95.223-1.809 134.754M116.027-.602C76.247 43.516 37.965 90.523-1.035 134.02M129.094-1.816C89.27 39.804 50.77 81.469-2.258 145.152M127.516 1.38C84.156 47.88 44.437 95.345 1.258 146.876M138.32-.832C86.887 60.785 30.8 122.148-1.82 155.328M138.492-.027C84.156 60.906 31.668 119.993-1.3 156.69M146.785-.195C99.675 49.03 58.418 103.8.727 168.453M148.676-.078C110.199 43.605 69.816 88.55.336 170.219M156.078 2.3C115.785 45.473 73.816 91.46-2.754 180.883M157.296-.25C115.368 45.941 77.185 92.254 1.146 183.383M167.953-1.211C122.48 54.023 77.883 104.773 2.328 195.332M169.855-.582C122.078 50.078 78.441 100.504 1.301 193.926M179.609-1.117A20530.007 20530.007 0 0 0 1.023 204.398M178.848.43C135.77 50.629 91.785 103.062.758 208.05M190.504 2.8C123.957 76.743 60.734 150.532-2.23 220.028M190.629.766c-47.836 55.742-98.54 112.648-191.86 217.78M198.5 2.607C139.57 66.37 83.984 139.468-2.75 232.09M202.125-.2C151.562 55.239 102.719 110.966-.84 230.536M212.22-2.28C130.594 92.46 53.363 180.246-2.13 243.059M212.187-.761C140.438 81.398 69.974 163.444.441 243.57M222.95-1.16C135.613 98.14 45.72 199.379-2.164 255.46M222.973-.878C143.433 86.125 69.086 173.316-1.141 255.371M232.773.684c-56 65.32-109.738 128.629-233.023 269.25M233.898.059C164.383 74.766 99.875 146.758 1.301 267.73M243.703 1.56C174.227 84.969 101.758 164.69 2.637 277.62M243.465-.145C146.41 110.102 49.727 219.773 1.102 279.852M256.602.992C189.848 75.605 121.73 155.5 1.632 292.414M252.673-.726C176.782 93.948 96.5 184.27-.95 291.097M263.91.238C208.554 66.558 149.827 128.613-2.04 304.016M263.87-.445C168.543 107.453 76.504 212.035 1.227 303.703M275.117-1.895C182.747 104.566 95.332 204.066 1.347 312.29M274.169-1.117C188.028 94.539 106.215 189.578 3.949 312.98M283.082-1.32C176.547 121.105 68.73 246.34 15.844 309.656M287.024.543C186.058 110.433 87.811 221.703 13.311 311.41M299.012-.027c-64.57 67.441-123.856 131.093-271.883 314.566M295.457-.207c-69.36 76.969-137.652 156.266-271.184 313.191M307.727-2.199C198.34 120.273 94.793 242.125 37.543 312.12M308.102 1.055C245.352 72.34 181.59 143.117 36.953 310.602M317.555 2.023C242.16 86.172 161.82 172.5 44.055 312.496M317.645-.144C222.738 108.062 128.887 215.503 46.906 312.101M327.773-1.566c-71.34 77.254-134.765 150.398-269.593 313.87M328.434-.405C232.625 113.19 136.328 224.543 57.668 311.445M341.293.34c-66.734 78.43-139.008 159.785-273.77 312.55M338.836-.284C268.117 79.97 197.32 163.306 66.496 311.169M348.48 1.961C251.668 119.17 144.582 236.457 77.875 313.898M350.325-.91c-79.908 93.719-160.235 184.8-271.838 313.1M361.945 1.047C295.543 71.473 234.531 147.184 87.004 311.039M359.348-1.297C281.238 89.074 203.836 177.48 89.93 312.617M373.223 2.668C276.848 109.871 181.3 223.738 101.008 312.457M369.523-.813C281.41 105.61 188.243 210.762 99.547 313.243M378.922 2.238C310.367 75.871 245.16 148.648 109.14 311.25M379.75.645C282.773 111.52 186.125 223.219 110.906 311.609M391.422-1.996c-96.961 111.86-193.766 229.68-269.902 316.672M392.059-1.086c-54.954 62.879-110.2 127.734-271.454 314.402m282-315.195C352.977 59.668 298.68 123.758 133.121 312.707M402.453-.023c-75.172 80.988-145.976 161.832-272.668 312.921M412.051 1.664c-77.551 84.996-150.488 171.5-269.16 308.11M413.586.347c-95.598 106.898-186.54 211.73-273.008 310.363M425.52 1.05c-69.692 74.97-129.758 149.829-275.024 312.079M423.094 1.043c-61.66 70.32-120.145 138.418-270.594 311.805M433.02 2.78C336.91 113.663 236.43 225.983 163.5 309.6M434.691-.858C334.355 114.129 236.113 226.957 163.844 312.047M444.879-.933c-88.867 98.68-172.04 201.456-273.078 310.695M445.879.132c-63.453 66.22-122.992 137.434-272.563 312.313M457.051 2.23c-70.078 77.067-138.367 157.032-270.778 311.372M456.602.336c-83.836 91.473-163.313 186.043-272.438 310.672M464.477.227C402.578 73.347 340.03 143.352 196.609 309.41M465.281.54c-74.023 83.41-149.09 170.667-271.183 310.784M478.02 2.524c-88.657 98.613-175.157 197.242-272.778 311.949M477.305 1.125c-60.664 71.867-123.2 144.559-270.758 310.594M485.984 1.512C407.394 89.285 329.5 175.957 218.035 309.996M486.727.836C421.969 75.379 354.992 151.37 216.078 313.379M497.621-.54c-74.305 86.582-153.715 173.883-272.32 311.008M496.66-.305C411.487 103.38 321.292 206.617 226.417 312.934M510.378-2.777C402.79 116.25 298.57 241.324 238.774 309.422M509.437-.465c-59.851 73.863-120.894 144.008-271.542 311.91M518.62-.613C441.813 90.363 361.453 181.3 246.34 309.828M519.773-.793c-67.98 79.328-136.062 157.5-271.367 311.863M529.296-1.578c-97.3 103.336-186.41 208.683-272.304 313.515M530.195-1.026C423.32 114.828 321.262 233.922 257.461 312.117M541.582.54c-60.977 68.77-124.277 139.62-273.246 313.058M540.602-1.23c-96.786 114.812-195.29 228.265-272.168 312.277M550.285-1.227c-84.738 96.848-163.672 184.813-268.367 313.348M551.539-.699c-58.7 64.074-117.578 129.613-271.367 312.09M563.164 1.867C458.918 121.57 354.332 241.645 289.954 309.801M560.581.176c-88.684 106.547-184.95 214.125-269.48 311.14M571.484-1.28c-71.746 85.417-145.847 169.06-273.246 311.17m274-309.563C515.281 67.32 456.062 135.535 299.645 311.172M583.063-2.262c-62.68 68.875-126.313 140.918-270.731 315.84M583.07-1.122C502 90.388 422.312 183.5 310.324 312.314M593.984.601C507.375 105.699 416.29 207.18 321.54 313.75M594.211 1.129c-103.66 119.254-204.2 234.297-271.688 310.734M602.73-1.695C539.48 82.242 466.04 162.02 334.238 314.562M604.707-.223C547.762 61.695 492.613 129.02 333.715 311.145M611.52 1.469c-93.09 106.863-192.903 218.765-266.582 309.715M614.09.684c-91.5 103.346-184.9 210.129-271.281 312.011M622.652 2.973c-93.949 105.496-184.37 207.12-270.668 311.3M622.391 4.262C523.68 112.484 425.684 223.25 353.414 311.559M623.242 17.082c-84.34 97.305-166.176 193.273-261.48 296.676M621.937 18.012C531.493 124.46 437.47 230.195 363.79 311.105M620.906 28.102c-85.867 101.93-173.672 199.976-246.824 283.773M620.848 27.543c-94.895 104.164-186.98 210.102-247.055 283.61m248.926-270.88c-91.149 99.457-172.043 200.844-237.282 271.52M620.141 39.906c-57.625 72.89-116.61 139.739-235.692 271.047M622.527 53.738C553.574 128.621 482.281 209.68 396.18 309.641M622.379 52.5c-92.36 101.059-182.918 204.625-226.656 259.953m224.882-247.09c-67.992 76.586-138.707 154.754-211.468 246.66M620.578 65.141c-65.496 81.66-130.437 158.644-213.902 246.93M621.64 78.57c-76.696 82.14-150.907 172.85-202.942 235.652M621.352 78.734c-61.895 71.813-119.059 141.7-205.372 232.602M622.988 90.352c-61.644 73.164-118.062 140.21-195.945 220.054M620.02 88.61c-38.13 45.192-78.625 91.332-192.704 223.887m192.75-207.863c-42.386 45.297-88.273 98.86-179.968 208.851m180.601-211.898c-64.726 70.121-129.344 145.082-182.25 209.754m179.965-195.875c-60.527 74.394-125.797 155.422-171.219 197.812m174.57-198.78c-49.515 56.019-95.777 108.26-171.925 196.64M619.7 126.145c-40.22 42.652-74.966 88.44-157.833 184.043m158.285-184.59c-45.632 55.976-89.48 108.215-161.64 186.867M622.965 137.69c-59.809 59.63-116.172 124.801-154.13 176.704M622.306 139c-51.375 49.262-99.59 108.016-150.95 174.215m148.801-164.817c-40.488 48.188-89.718 99.73-141.894 161.38m144.086-159.563c-47.055 55.379-88.075 105.289-140.38 161.816m137.673-149.574c-30.23 31.18-58.504 67.602-128.305 148.66m130.21-148.894c-33.355 40.18-64.515 76.652-128.98 148.507m128.52-138.218c-24.797 31.71-51.02 64.394-121.223 140.23m120.305-138.699c-38.094 42.781-78.215 88.5-119.469 137.984m120-125.007c-35.113 39.867-67.87 80.015-106.242 125.085m105.824-123.64c-41.875 44.387-83.5 92.754-108.976 124.066m109.738-110.523c-25.426 29.496-55.242 63.238-98.356 112.367m98.82-113.934c-31.968 30.989-60.378 67.86-98.706 110.418m99.379-100.722c-26.242 32.265-57.07 65.98-87.11 102.804m86.996-102.164c-33.691 43.145-67.789 80.786-89.222 101.758m89.347-91.015c-29.039 40.3-49.27 68.375-79.894 93.171m79.324-89.671c-32.48 33.3-59.984 67.53-78.207 86.667m78.477-77.93c-17.805 22.622-39.168 43.731-67.856 80.993m67.117-78.691c-26.261 30.843-49.55 60.695-65.172 76.039m63.747-61.153c-20.997 21.11-38.422 45.403-55.055 62.66m57.375-65.18c-14.238 15.25-26.238 31.927-55.438 64.81m53.59-53.923c-12.238 10.028-20.566 18.852-42.586 53.934m43.957-51.613c-10.367 4.125-22.011 15.031-44.172 50.242m45.832-37.504c-11.515 14.54-23.472 26.89-37.753 38.98m36.3-41.288c-14.484 23.074-26.195 36.44-35.172 39.843m31.88-27.254c-4.153-.449-12.774 11.047-20.489 27.496M621.652 284c-5.953 9.754-10.996 16.188-23.937 29.23m20.793-17.964c-.172 6.09-8.668 10.914-11.727 18.086m13.75-15c-4.504 7.367-7.644 11.175-13.77 14.714m14.704-3.355c-1.012 4.953-1.903 6.008-3.145 2.55m2.598-2.855c-.418-6.965-1.3-6.12-2.45 2.735"/>
        </g>
        <pattern id="pattern0" width="621" height="312" patternUnits="userSpaceOnUse">
            <use xlink:href="#surface592"/>
        </pattern>
        <clipPath id="clip2">
            <path d="M0 0h621v312H0z"/>
        </clipPath>
        <g id="surface602" clip-path="url(#clip2)">
            <path fill="none" stroke="#fff" stroke-linecap="butt" stroke-linejoin="miter" stroke-miterlimit="10" stroke-opacity="1" stroke-width="1" d="M9.71-1.848C9.427 1.875 5.39 2.824.2 11.914M9.034.996C6.195 4.184 3.953 6.29-1.012 11.598M19.02-2.762C13.152 7.84 7.145 17.605 1.582 25.426M20.105 1.313c-5.242 5.514-11.433 12.42-21.37 23.789M33.276-.824c-13.015 14.746-21.953 26.52-34.125 34.5M32.07-.56C23.684 9.02 15.148 17.09 1.078 35.156m43.5-35.531C27.492 13.621 20.211 28.098-1.172 46.848M40.547-.918C33.355 9.187 23.633 20.062-.63 48.52M55.055-.613C39.925 17.094 23.395 30.93.754 62.586M52.473-.605C36.012 19.16 19.199 37.325-.36 61.559m65.78-59.04C46.036 20.435 26.876 43.032-.944 73.364M63.348-.488C50.734 14.977 36.043 31.48-1.375 72.047M70.996.535C40.902 35.56 16.606 69.75-.598 86.915M72.754-.196C49.816 25.71 25.355 54.539-1.352 84.906M84.992 1.93C59.937 28.34 34.863 55.902-.547 98.879M84.395.12C64.906 22.027 45.915 41.871-.527 96.566M93.683-.445C70.349 30.039 48.673 58.125 1.017 110.71M93.91-.73C57.375 43.94 20.852 85.996.266 108.64M106.5 1.294C69.016 39.328 33.426 81.43.84 123.297M104.902.285C70.184 39.06 35.637 77.715-.262 120.754m117.61-123.04A10396.498 10396.498 0 0 0 .368 132.2M116.034-.723C92.602 30.262 66.156 59.207 1.363 133.148M123.918-.148C86.887 49.289 42.118 95.27.41 145.496M126.535-.102C78.715 56.121 28.992 111.914 1.06 145.637M135.613-.832C95.348 44.808 59.914 92.398 2.211 155.59M138.398.348C107.02 33.926 79.18 66.266-1.035 157.028M147.48-1.837C110.21 43.227 76.512 80.062 2.2 167.98M147.78.914C99.574 55.461 52.293 110.371-.723 170.977M155.887-.555C123.574 41.348 93.395 78.2 2.535 185.051M158.97-.777C107.329 59.098 56.75 120.375-.68 181.176M167.145-.246C118.18 57.988 67.957 115.66-.32 192.898M169.902.191C126.472 48.133 85.203 97.277.051 194.281M176.988-1.375C128.618 59.031 76.355 116.938-2.594 209.355M179.54.665C124.008 63.054 70.215 128.101-.42 205.3M190.468.066C118.239 81.957 51.579 160.004 2.57 216.973M189.492-.492C153.43 44.164 113.113 88.793.203 219.558M201.313.556C140.573 68.14 77.171 140.832.547 230.59M199.645-1.328C161.617 45.879 120.328 94.684-1.043 232.355m211.8-230.132c-46.152 49.347-91.495 99.785-211.366 243.5M211.953-1.164C130.031 90.949 50.738 181.148-.918 242.074M224.059.668C140.453 95.102 63.64 185.828.199 254.278M220.95.53C137.98 99.453 50.496 198.707.15 254.117M234.167-2.574C159.801 83.117 90.023 170.336-1.527 267.938M231.758.723C147.3 100.453 60.352 202.324.09 268M245.355.246C186.265 58.305 138.781 117.324 2.031 278.652M242.02-.535C187.117 63.41 130.367 126.59 1.043 279.906M254.496-1.364C183.191 85.997 106.441 167.216-1.313 292.013M254.125-1.043c-71.816 84.219-143.668 164.8-252.93 293.836M264.512 2.586C183.715 87.359 110.09 180.976 2.465 303.406M264.953 1.316C166.57 117.56 66.141 233.895-.414 302.832M272.446 2.32C203.245 77.824 131.878 159.816 3.66 311.406M274.937-.28c-58.21 69.152-120.05 141.55-271.261 310.918M285.883 1.687C220.738 68.337 164.18 139.856 12.586 313.524M285.805.093c-95.57 110.4-190.782 221.419-270.477 311.942M295.977 2.641C219.097 88.344 140.57 180.258 24.488 312.727M296.977.988C195.332 120.43 90.89 240.453 24.492 311.016M304.477.312C206.125 111.552 105.28 225.349 32.87 313.132M306.156-.757c-95.691 110.465-189.039 219.54-269.41 311.871M316.22 1.156C237.957 95.738 155.375 188.348 47.16 312.61M318.71-.754c-59.1 67.711-117.038 131.98-273.476 311.45M330.777-2.786C231.847 108.84 132.895 219.578 54.97 313.563M327.523.952C236.45 105.398 145.395 208.223 55.676 312.086M339.617.367C242.051 112.004 143.863 224.32 65.445 313.062M338.867-.354C233.855 119.258 131.281 234.953 67.383 312.004M350.469-.777c-99.953 117.543-201.281 231.015-275.102 312.14M347.895-.473C275.44 91.074 194.398 181.41 78.566 312.602M358.562 1.75C262.216 106.602 173.649 212.727 89.767 314.793M360.672-1.234C277.754 97.07 191.988 192.68 87.66 312.309M372.734-.992C269.11 122.34 162.172 239.918 101.488 313.395M369.496-.81C313.36 64.676 256.762 127.066 99.188 311.141M382.19-1.102C298.883 99.59 211.313 200.262 107.06 312.43M379.805-.227c-91.782 105.93-185.508 210.665-269.168 313.551M392.817-1.473c-90.149 102.09-180.106 204.211-272.055 313.266M392.977-1.152c-94.993 108.586-190.024 213.441-273.711 313.418M401.84.332c-53.442 68.98-114.664 138.73-271.008 312.691M402.195-.215c-64 73.746-127.05 148.192-270.52 313.387M415.028-.316C325.461 99.28 243.016 196.68 143.574 311.164M411.61 1.352c-61.937 73.218-125.437 146.71-270.562 310.351m279.73-314.27c-92.27 112.657-183.414 221.27-266.722 313.368M422.457.44c-102.945 120.103-207.984 241.4-270.898 310.306M435.012 2.61c-70.489 72.496-138.899 152.106-274.899 309.16M435.051 1.032c-83.918 98.106-169.793 200.078-270.965 311M443.398-.965c-79.968 97.207-163.796 190.403-272.41 314.207M443.863-1.25c-73.949 93.633-151.824 182.5-269.597 313.195M453.289.852C375.121 91.527 294.191 186.785 185.48 309.859M454.77 1.363c-64.63 68.332-126.188 139.36-269.817 311.36M465.47.8c-82.317 88.87-161.121 177.613-273.082 309.312M465.203.503c-70.457 85.372-143.512 169.911-271.379 312.071M475.937.223c-77.3 88.824-153.98 179.054-273.449 312.382M477.086.754c-97.488 105.652-189.61 213.004-272.941 310.23M488.585-1.258C395.552 96.137 308.919 201.316 215.73 313.367M487.355 1.012C386.996 119.559 284.957 235.637 215.844 312M500.086-2.066c-57.602 66.242-115.399 132.89-275.043 311.668M497.457-.914c-55.625 63.422-113.34 130.148-271.535 311.527M510.96 2.45c-86.227 94.114-169.805 186.133-271.238 311.414M508.809.543c-98.63 115.613-197.192 229.836-272.711 310.144M516.734 2.582c-75.199 82.738-146.382 169.816-269.707 308.36M518.02.304c-68.215 76.73-139.383 158.03-271.18 311M529.316 2.485c-85.804 103.878-181.96 212.41-270.515 307.581M529.92.296c-93.327 105.778-186.25 213.177-272.679 310.606M538.47-1.285C462.638 90.203 389.364 173.934 268.56 311.32M539.723-1.09c-63.035 73.817-126.801 144.692-269.528 313.57M551.203 1.437C476.555 83.442 405.645 168.043 280.31 309.262M551-.805C471.027 88.04 393.613 179.2 278.344 313.367M562.41.187c-75.844 87.7-149.156 174.77-269.789 312.868m268.55-311.75c-61.198 73.351-123.734 142.46-271.53 311.636M572.37.527C485.973 104.172 399.52 205.223 302.5 312.012M570.504-.41C464.602 122.074 359.723 239.867 301.25 312.457M584.117-2.359c-58.824 75.62-124.48 144.918-271.89 313.113M583.05.59c-73.702 78.887-143.706 164.133-270.675 312.69M594.125 1.406c-68.84 78.969-141.82 162.29-270.941 312.07M593.992-1.351c-89.75 106.797-176.844 208.598-273.07 314.5M603.219 2.781c-82.04 89.614-159.926 185.133-267.985 308.371M604.957-.14c-99.605 114.48-197.277 226.703-271.71 310.758M615.194 1.992C545.16 75.942 479.29 150.43 343.95 312.676M613.73.652c-71.003 77.09-139.18 154.27-271.367 312.078M623.75 3.363C522.637 119.156 422.836 235.898 356.223 311.906M621.34 5.121c-85.488 96.863-172.856 195.973-268.863 308.25m267.43-298.469c-93.595 104.547-189.829 218.325-254.473 297.47M620.793 16.796c-50.64 58.2-102.32 120.25-257.941 294.808m256.27-280.171c-64.188 71.964-131.563 149.058-245.724 277.777M621.113 29.152c-95.515 109.227-188.597 219.145-246.98 282.766m245.12-272.707c-55.128 73.465-119.136 145.293-232.468 274.871M619.77 41.16c-72.403 83.977-146.16 171.656-235.141 270.137M623.074 55.582c-49.715 58.8-97.933 114.922-229.414 257.02M622.305 52.824c-94.145 104.2-181.996 204.805-225.953 258.77M618.543 65.426c-65.066 74.144-131.781 146.812-209.672 249.316M621.215 65.395c-59.11 65.503-114.125 127.84-214.79 245.664M623.548 78.652C546.875 162.457 477.883 244.07 416.94 313.734M621.461 76.29c-48.746 61.473-99.781 119.836-205.344 235.64M619.371 88.716c-62.594 76.05-127.633 143.363-191.89 222.96M619.92 89.23c-72.382 84.29-146.1 170.356-191.995 222.754m193.262-208.738c-55.524 68.73-111.254 132.598-184.317 206.684m185.156-208.672c-42.957 39.582-79.03 85.258-184.078 209.418m180.383-198.258c-54.16 70.242-112.742 135.684-168.566 198.36m172.109-196.614c-37.29 40.363-71.512 80.05-173.172 198.348M619.71 126.168C574.828 178.02 528 228.844 460.867 310.852M620.234 126.39c-39.132 39.398-77.566 83.43-160 186.558m161.711-177.14c-48.21 61.62-99.023 116.52-150.554 176.796M621.41 139.5c-30.985 27.98-63.75 64.691-151.177 172.05m148.442-161.097c-38.766 45.734-76.485 89.567-139.41 160.89M622.062 150.79c-56.144 66.332-110.527 126.984-141.437 160.402m139.137-150.656c-25.903 31.727-55.184 67.543-130.035 149.664m131.539-148.523c-28.489 37.199-59.446 72.61-128.903 151.133m129.953-135.477c-36.152 36.445-71.18 77.652-120.32 134.242m120.098-137.597c-23.758 24.375-50.266 52.28-119.45 138.347m119.532-122.199c-26.164 17.559-49.992 48.34-107.16 123.32m107.101-125.652c-23.031 22.32-45.957 47.781-110.515 124.168m107.535-113.625c-21.36 27.793-39.18 56.71-94.223 116.016m97.328-114.489c-38.113 35.754-73.816 77.032-99.008 113.375m96.137-100.879c-21.383 24.957-44.687 56.696-82.766 99.84m85.473-101.25c-17.426 18.43-36.11 37.637-88.902 101.781m88.125-88.785c-19.535 26.309-41.301 49.356-74.723 87.653m73.402-87.786c-18.69 25.813-38.394 48.262-74.437 88.926m77.625-77.691c-15.16 15.332-31.098 35.941-70.844 79.723m69.598-78.7c-26.031 32.973-51.29 62.567-65.766 76.836m62.762-64.21c-12.547 16.656-27.406 32.488-51.11 64.847m54.165-66.336c-15.356 15.578-28.657 28.809-55.118 64.586m53.739-50.281c-5.914 17.195-18.707 27.535-44.778 49.722m44.485-50.523c-10.403 5.86-20.715 17.797-44.192 51.465m44.02-41.942c-9.383 18.036-19.953 32.336-34.672 42.254m35.184-38.386c-10.5 14.761-19.262 26.28-34.797 39.011m37.457-28.422c-11.68 7.172-18.946 14.825-23.188 24.622m22-24.192c-6.886 11.89-14.476 19.012-23.82 26.473m25.07-16.211c-7.125 4.207-13.8 12.449-16.12 14.625m13.769-13.246c-3.16 12.066-8.059 17.086-13.133 15.87m13.332-3.491c-1.426-6.254-2.164-4.516-2.496 2.64m2.293-2.379c-.742-.16-1.153.754-2.418 2.653"/>
        </g>
        <pattern id="pattern1" width="621" height="312" patternUnits="userSpaceOnUse">
            <use xlink:href="#surface602"/>
        </pattern>
        <clipPath id="clip3">
            <path d="M0 0h621v312H0z"/>
        </clipPath>
        <g id="surface604" clip-path="url(#clip3)">
            <path fill="none" stroke="#fff" stroke-linecap="butt" stroke-linejoin="miter" stroke-miterlimit="10" stroke-opacity="1" stroke-width="1" d="M11.555-.883C6.344 4.133 1.109 9.574.145 12.817M9.41-.497C7.34 3.304 6.59 5.614.723 12m21.62-13.848C12.946 4.848 10.56 9.645-.23 24.094M22.043-.262c-9.129 8.985-17.047 19.082-21.86 25M31.532-2.687C22.828 9.898 10.398 26.3 2.438 33.972M32.46 1.297C23.77 9.793 15.375 17.828-1.242 36.05M41.352-.766C28.379 12.141 13.645 28.875.387 48.426M42.93-.137C26.79 16.906 12.95 34.586.676 47.266M52.965-1.672C34.203 25.242 11.547 44.418-1.094 61.961M51.973.992C39.746 14.062 24.148 31.527.086 59.93M60.91-2.324c-14.926 23.539-31.043 38.11-59.515 77.59M61.867-.617C39.43 25.253 17.93 49.62 1.207 71.777m72.121-69.48C54.914 18.859 34.148 41.723-2.722 86.84M73.52-.453C53.656 23.12 33.188 48.465 1.336 84.977M83.28-1.66C50.6 40.582 20.8 78.34.315 97.762M83.54.777C67.66 20.031 51.527 39.297.59 95.72M97.118 2.094C67.22 35.562 40.586 65.484.047 108.25M95.633 1.148C60.984 40.172 25.355 78.477.012 109.297M104.82.39c-38.96 49-84.504 96.582-103.105 123.64M104.415.816C80.433 28.395 54.851 57.934.574 120.07M118.784 1.953C72.504 51.773 26.688 100.98-.992 135.387M115.598.754C90.23 30.852 64.574 58.277-.074 134.293M128.23-2.586C97.402 32.954 65.762 67.348 2.156 145.266M127.434.816C89.684 42.836 53.477 84.84.864 146.742M140.015-1.039C97.238 47.027 57.449 88.492-.57 160.293M137.484.582C97.758 46.461 57.894 92.887-.273 157.59M149.262-2.203c-39.989 51.937-84.79 99.21-146.735 173.23M148.844.176C95.488 61.856 42.614 123.078.8 169.453m160-171.21C121.332 39.585 82.063 85.917-2.344 182.913M158.02-1.16C106.934 62.605 52.988 125.344.19 181.906M170.141-2.37C105.914 74.453 43.324 147.519-.773 192.566M168.757.711C126.423 45.199 85.688 93.418-.163 194.648M182.309-2.289c-39.075 46.437-76.047 88.273-180.27 206.613M179.266.621C128.156 54.79 79.809 112.195.715 207.527M190.617-.743C148.785 48.325 111.52 91.786 2.121 216.173M190.375-1.262C132.348 69.73 73.977 139.41-.422 219.965M199.254.094C145.554 55.586 97.344 115.258-.414 232.949M201.05.41C148.309 64.656 93.3 127.305-.492 232.406M211.223 1.582c-52.684 58.313-99.98 113.094-213.57 242.914M212.132-.168C137.785 87.082 63.46 173.797-.445 242.859M222.187.867C145.863 89.281 68.548 174.445.07 253.715M221.84-.563C145.875 88.27 70.566 174.903.613 254.825M231.605 1.644C165.527 77.907 101.27 158.427-1.387 265.368M233.508.824C145.87 104.328 54.93 207.73 1.03 268.293M242.844-1.039C155.578 97.258 70.09 193.09-1.645 281.836M242.762-.234C171.844 85.949 98.055 169.449.73 279.48M254.695-1.633C164.535 102.285 73.45 206.25 2.656 293.102M252.812-1.223C184.168 84.36 110.472 168.742.095 291.543M265.71.809C206.594 65.329 151.16 126.574-2.707 302.922M264.047.316c-60.25 69.93-121.418 138.926-264.824 303M275.82-.867C171.453 116.648 73.293 230.496 4.691 309.273M275.421-.715C185.454 102.16 95.079 204.348 3.989 311.582M284.968.348C175.34 121.41 66.923 247.754 13.985 313.512M287.024.176C199.69 97.473 117.511 194.973 13.561 311.914M296.301.688C204.176 105.401 111.059 213.823 27.14 309.503M294.977-.046C222.69 79.526 150.703 161.601 24.742 311.393M308.11-2.687C207.695 110.329 111.961 225.606 35.445 310.418M307.52-.195c-103 119.261-204.926 235.879-271.551 311.625M317.66 1.93C235.441 97.89 148.81 193.785 46.988 311.574M316.352-.578C231.145 99.523 143.605 199.414 46.02 310.992M325.645.93c-53.582 63.53-106.61 124.21-270.75 310.113M327.727.781c-86.797 100.336-175.57 204.457-271.985 312.57M338.02 1.165c-78.586 89.29-160.266 176.527-268.407 312.254M338.957.949c-90.605 101.899-179.973 207.352-271.82 311.528M348.648-.281C291.852 66.414 234.27 129.91 75.324 311.32M349.492.195C252.13 106.273 159.852 211.5 78.332 311.402M361.285.645C286.82 86.297 214.227 164.773 86.617 310.883M360.707-1.176C264.91 103.063 174.48 208.992 89.027 311.367M373.211-1.914C274.312 108.786 178.18 220.3 99.59 313.738M371.68.734C266.266 118.375 162.309 234.97 99.422 312.117M381.488 1.562C276.86 118.305 171.66 241.48 111.156 312.902M382.125-1.368c-83.59 97.536-165.797 191.829-271.559 312.028M389.88 2.22C287.445 112.566 190.254 225.48 119.773 312.149M392.602-.739C316.066 86.668 240.707 173.96 121.785 312.48M402.57.074c-77.582 95.422-163.16 190.774-274.156 314.64M402.723.009c-89.461 102.851-174.852 201.625-272.055 312.05M412.691 1.755c-111.343 122.21-222.343 249.492-271.468 308.922M413.238-.816c-62.035 74.27-126.578 147.875-272.414 314.195M422.262-.414c-90.348 101.367-181.793 202.34-269.34 314.406M424.184.195c-71.059 84.336-140.586 167.438-272.235 313.078M434.277-1.883c-62.164 75.5-125.804 150.27-271.476 313.426M434.555-.137C339.422 102.617 248.71 208.457 162.07 311.773M444.324-2.352c-53.32 63.5-105.742 130.012-272.52 315.043M444.759.867C369.12 88.98 292.14 175.797 173.047 313.211M454.75 2.137c-106.563 118.37-213.332 240.476-269.555 308.812M454.352.672c-62.895 73.66-124.102 146.433-268.93 310.648M465.344-2.363C386.21 95.676 307.918 190.266 195.582 314.75M465.578-.438C387.102 88.123 312.934 174.137 193.34 312.75M474.7 1.453c-57.403 66.5-119.18 136.129-272.04 308.817M475.594-1.137C377.723 119.441 274.53 235.797 206.418 310.945M488.938 1.043C385.355 112.738 288.405 230.941 213.52 314.328M485.813.223C383.77 120.109 278.002 240.578 214.48 310.656M496.184-1.195C435.53 69.902 370.28 142.55 225.55 310.265M497.363.189C425.43 86.68 351.56 170.52 227.16 311.945M511 2.402c-68.89 75.11-138.55 147.051-273.297 310.551M509.648-.98c-79.066 85.449-155.726 173.105-273.453 314.3M519.148-1.797c-85.644 94.711-169.41 186.492-270.324 314.23M519.035-.272C412.922 126.8 307.223 247.997 248.04 312.883M530.63 1.707C429.97 112.41 330.896 226.234 258.47 310.738M529.883-.258C459.77 83.81 385.496 169.2 258.93 312.062M537.766-.284c-91.727 104.594-185 206.785-269.286 310.8M541.2.829c-82.7 97.899-169.22 196.246-273.532 312.457M550.078-.988C486.918 71.559 426.54 144.129 277.75 309.266M549.758-1.375c-99.88 120.164-203.024 235.191-270.598 312.219M560.586-2.762c-82.27 98.778-166.598 193.34-269.29 314.446M560.368 1.16C510.137 58.13 454.215 122.348 290.04 313.02M569.742 2.04c-88.55 98.39-176.847 197.425-270.21 310.003M570.706-.75C466.867 115.102 362.785 235.402 299.766 312.7M580.957.702C506.344 94.5 425.582 187.086 311.91 309.59M581.078.914C506.387 90.164 431.242 174.2 309.887 311.301M593.597-1.477c-60.445 71.82-122.199 138.012-273.949 314.715M593.645.25C500.765 103.3 409.887 209.7 320.758 311.988M601.8.762c-64.66 80.82-139.403 164.652-270.305 311.101M604.027 1.093c-93.28 101.098-184.23 202.946-270.34 310.497M616.048.152C537.728 85.355 462.005 168.25 340.79 312.398M615.035 1.191c-92.887 102.942-183.258 209.36-272.457 312.07M622.98 1.899c-59.457 66.446-117.226 133.594-267.136 308.325M620.688 4.359C524.09 117.961 422.398 233.07 353.854 313.086m267.86-296.133C535.672 113.57 447.39 213.555 361.957 309.324m257.695-293.37C569.07 80.8 517.137 141.917 363.422 311.097M619.059 26.082c-72.48 87.047-145.84 176.047-244.414 284.7M619.672 27.733C525.043 139.195 426.07 250.258 375.305 311.035M618.355 39.86c-58.648 68.09-120.652 133.868-230.41 274.207M622.04 41.496c-60.625 68.094-123.867 138.547-236.426 269.899m236.57-260.793c-72.101 73.433-140.093 153.746-224.285 259.582m224.36-255.868c-60.453 66.07-116.52 129.844-224.926 257.496M618.395 65.477c-77.313 85.527-160.868 179.562-213.028 248.085M621.07 66.173c-41.37 54.672-86.187 104.914-214.84 246.816M623.043 75.09c-50.938 54.512-100.875 107.433-207.586 237.445m206.856-233.57C582.21 121.277 540.59 168.12 417.577 310.77M619.305 92.574c-47.43 54.54-94.485 108.559-192.242 219.051M620.637 89.418c-72.934 85.394-148.992 171.46-193.301 221.527m191.309-208.918c-49.91 60.942-99.086 118.645-177.579 210.63m179.887-211.622c-49.418 63.863-98.156 120.567-182.91 210.266m180.61-194.38c-44.727 52.415-98.548 106.09-168.77 197.833m172.05-199.832c-55.156 56.457-108.316 117.367-172.644 198.137m171.79-184.68c-56.188 73.16-115.622 139.144-160.27 185.367m160.414-188.43c-61.227 67.141-122.489 136.301-160.817 187.145m162.38-173.703c-61.743 63.937-121.098 131.945-152.09 172.504m150.726-171.446c-33.766 35.399-65.934 72.309-150.496 173.036M619.16 148.48c-38.394 43.133-72.09 87.344-136.234 165.82m137.476-163.378c-33.547 36.937-70.37 79.144-140.82 161.848m138.629-148.957c-28.375 34.687-63.906 70.394-124.414 148.253M621.71 164.18c-34.125 42.515-68.89 83.465-131.473 149.035M621.25 175.77c-42.18 42.695-80.121 92.617-120.703 138.539M620.492 173.87c-28.133 30.672-56.699 61.066-118.344 137.16m117.625-125.74c-38.863 53.195-82.02 101.774-104.425 124.406m105.078-121.527c-30.383 31.043-58.739 67.828-108.946 124.55m108.56-111.816c-35.25 41.352-78.462 89.567-97.704 113.286m97.281-114.543c-30.87 34.957-65.5 73.472-97.465 113.02m100.211-99.735c-34.785 41.617-63.746 81.027-90.074 97.21m88.36-99.19c-18.25 24.577-37.165 45.124-88.067 100.698m87.234-88.957c-27.562 41.047-58.933 78.418-76.898 88.961m78.68-87.441c-28.555 37.004-58.114 71.203-75.88 87.582m76.743-74.98c-21.984 27.343-44.082 56.5-65.77 75.933m63.883-75.668c-21.465 16.477-44.152 43.133-65.488 73.7m65.035-61.813c-13.133 13.37-26.91 26.191-54.988 60.937m56.043-60.625c-16.258 20.508-35.258 39.301-55.438 62.188m54.09-50.317c-8.219 15.11-20.16 30.047-44.113 50.07m43.984-50.234c-10.34 11.125-21.094 22.77-42.765 50.86m42.53-37.688c-8.066 18.832-24.331 28.774-34.015 37.922m35.797-40.055c-14.504 17.13-29.133 32.532-34.48 38.813m36.156-26.992c-10.004 8.941-14.762 16.047-23.399 28.43m20.61-26.587c-9.559 6.067-16.965 17.098-21.34 25.168m20.035-14.816c-3.25 3.613-7.726 7.113-9.226 16.61m11.937-16.383c-4.246 1.023-6.355 5.312-13.516 15.441m13.164-2.176c-.94-3.582-2.093-2.21-2.625 2.008m2.215-2.266c-.578 8.477-1.468 9.434-1.89 2.946"/>
        </g>
        <pattern id="pattern2" width="621" height="312" patternUnits="userSpaceOnUse">
            <use xlink:href="#surface604"/>
        </pattern>
    </defs>
    <g id="surface585">
        <path fill="#ef5ba1" fill-opacity="1" fill-rule="nonzero" stroke="none" d="M4.5 8h179c6.668 0 10 3.332 10 10v86h-179c-6.668 0-10-3.332-10-10zm0 0" transform="scale(.75)"/>
        <path fill="none" stroke="#000" stroke-linecap="butt" stroke-linejoin="miter" stroke-miterlimit="10" stroke-opacity="1" stroke-width="1.5" d="M5.926 5.464c48.062 4.462 96.778 1.362 130.958-.36M4.014 6.788c30.062.207 60.284.28 134.968-.08m-1.225.9c4.954-1.383 7.494.483 7.614 5.598m-8.285-5.7c6.762-2.034 9.958-.21 9.598 5.474m-1.875-.55c3.27 19.623.082 41.34 3.489 65.698m-2.09-64.603c-1.417 24.258-.682 48.473.083 64.422m.278-2.55c-42.683 2.997-88.59 3.372-134.372 3.214m133.646-1.087c-45.741.64-93.95.496-133.028.628m.787-1.838c-5.305.18-8.32-2.032-9.043-6.635m6.425 6.667c-5.101 1.349-6.994-.84-5.684-6.562m1.966-.111C5.725 55.515 3.533 43.213 2.619 4.56m1.676 64.697c.665-14.467-.929-27.897.785-61.816"/>
        <path fill="url(#pattern0)" fill-rule="nonzero" stroke="none" d="M301.5 8h188c6.668 0 10 3.332 10 10v86h-188c-6.668 0-10-3.332-10-10zm0 0" transform="scale(.75)"/>
        <path fill="none" stroke="#000" stroke-linecap="butt" stroke-linejoin="miter" stroke-miterlimit="10" stroke-opacity="1" stroke-width="1.5" d="M226.916 4.958c39.448-4.134 77.768-3.765 138.758 1.651M226.251 3.63c36.29-2.405 71.895-2.136 139.798 1.886m.258.15c5.843.07 8.778 1.817 8.807 5.244m-8.135-6.246c5.232.37 7.21 2.649 5.93 6.838m1.481 1.008c-.486 19.538-3.105 42.088.07 61.737m-2.03-63.012c.821 23.634-.035 46.099.938 65.239m-1.825 1.321c-29.502-1.008-58.905-1.834-138.184-1.383m140.302.451c-37.898-2.859-76.099-2.287-141.48-1.359m-.703-.296c-5.295 1.125-7.448-.92-6.46-6.137m8.203 7.227c-4.998 1.157-8.45-2.054-10.36-9.63m-.047-1.679c.735-12.738 1.453-29.17 4.808-61.165m-4.345 62.118c1.5-14.004 1.694-29.708 2.69-60.818"/>
        <path fill="url(#pattern1)" fill-rule="nonzero" stroke="none" d="M301.5 152h188c6.668 0 10 3.332 10 10v86h-188c-6.668 0-10-3.332-10-10zm0 0" transform="scale(.75)"/>
        <path fill="none" stroke="#000" stroke-linecap="butt" stroke-linejoin="miter" stroke-miterlimit="10" stroke-opacity="1" stroke-width="1.5" d="M227.452 113.903c28.547-2.765 60.818-3.765 139.389-.574m-141.314-.319c50.033.797 99.747 1.034 141.95-.387m.123-1.857c4.945.8 7.526 4.136 7.746 10.01m-8.523-8.106c5.376-.782 7.353 1.198 5.936 5.941m1.09-1.456c-2.596 16.863-1.761 34.368.298 64.463m-.641-63.141c-.352 23.004-1.09 48.225-.87 64.728m-1.334-.536c-40.15-3.597-81.667-1.157-140.445-.097m142.32.604c-31.915-1.307-61.804-2.408-142.147.193m2.023-1.327c-5.645 1.491-8.859-.465-9.647-5.868m9.665 6.589c-6.75.943-9.425-1.62-8.019-7.69m-1.822-.48c1.465-13.472 3.58-30.083 3.759-60.479m-2.408 60.75c-.352-13.772-.592-29.736 2.44-63.052"/>
        <path fill="url(#pattern2)" fill-rule="nonzero" stroke="none" d="M301.5 296h188c6.668 0 10 3.332 10 10v86h-188c-6.668 0-10-3.332-10-10zm0 0" transform="scale(.75)"/>
        <path fill="none" stroke="#000" stroke-linecap="butt" stroke-linejoin="miter" stroke-miterlimit="10" stroke-opacity="1" stroke-width="1.5" d="M223.808 223.574c54.061-4.38 110.455-2.963 141.694-1.782m-139.163-.02c32.1 4.775 64.772 4.573 139.813.65m1.69-1.465c3.795.126 6.176 3.193 7.146 9.205m-8.003-6.425c5.557-2.487 7.245-.343 5.062 6.44m-1.063 1.175c-.349 14.73 1.969 34.142.928 63.958m-.613-65.043c-.503 20.08.258 39.229 1.659 64.463m-1.307-1.357c-51.058-.067-99.181.824-141.334 3.36m141.25-2.92c-51 1.845-103.208 1.248-141.426.301m-.032 1.457c-3.908.126-6.416-2.723-7.523-8.54m8.572 8.13c-4.119-.346-6.044-3.399-5.777-9.156m.515-.77c.068-23.47.806-42.416 1.155-61.641m-.739 62.857c.062-9.601.417-24.364-1.822-64.468"/>
        <path fill="#27bdce" fill-opacity="1" fill-rule="nonzero" stroke="none" d="M616.5 296h152c6.668 0 10 3.332 10 10v86h-152c-6.668 0-10-3.332-10-10zm0 0" transform="scale(.75)"/>
        <path fill="none" stroke="#000" stroke-linecap="butt" stroke-linejoin="miter" stroke-miterlimit="10" stroke-opacity="1" stroke-width="1.5" d="M463.162 220.303c26.013.824 54.634.261 114.792 2.262m-115.47-.963c24.881-8.163 48.448-7.515 113.812-1.152m.43-.996c4.973 1.043 7.96 3.858 8.969 8.446m-6.335-6.565c3.868-1.116 5.702 1.717 5.502 8.496m.554-1.245c-1.954 11.06-.844 26.91 1.365 64.321m-2.2-64.042c-1.116 30.925-.993 55.133 1.081 65.776m.299 1.15c-47.558 1.168-90.692 2.492-116.361-2.667m115.397 1.297c-40.875-2.044-83.027-1.792-115.064.798m2.201-.87c-5.508-.083-8.617-2.892-9.329-8.432m9.218 9.92c-5.95-.472-8.91-3.448-8.883-8.933m-1.386 1.723c-1.553-24.296.87-40.386 3.571-68.883m-2.04 66.806c.048-27.448.368-53.232-.963-66.783"/>
        <path fill="none" stroke="#000" stroke-linecap="butt" stroke-linejoin="miter" stroke-miterlimit="10" stroke-opacity="1" stroke-width="1.5" d="M142.08 39.085c27.578 4.98 56.12 3.135 74.468 2.016m-71.98-.891c21.858.952 43.67.776 74.195.97"/>
        <path fill="none" stroke="#000" stroke-linecap="butt" stroke-linejoin="miter" stroke-miterlimit="10" stroke-opacity="1" stroke-width="1.5" d="M303.167 87.284c-.83 8.007-2.04 14.04-1.324 26.693m.146-24.63c-1.974 1.423-2.156 6.395-1.248 23.745"/>
        <path fill="none" stroke="#000" stroke-linecap="butt" stroke-linejoin="miter" stroke-miterlimit="10" stroke-opacity="1" stroke-width="1.5" d="M301.116 188.514c1.119 6.471.49 12.02-.249 24.84m-.407-25.193c.943 2.813.952 8.433.78 24.101"/>
        <path fill="none" stroke="#000" stroke-linecap="butt" stroke-linejoin="miter" stroke-miterlimit="10" stroke-opacity="1" stroke-width="1.5" d="M376.855 259.29c29.317-7.273 55.031-6.399 80.311-.543m-80.379-2.08c23.874 6.773 48.756 5.891 80.083 1.526"/>
    </g>
    <defs xmlns="http://www.w3.org/2000/svg">
        <filter id="dsFilterNoBlur" width="150%" height="150%">
            <feOffset dx="3" dy="3" in="SourceGraphic" result="offOut"/>
            <feColorMatrix in="offOut" result="matrixOut" type="matrix" values="0.2 0 0 0 0 0 0.2 0 0 0 0 0 0.2 0 0 0 0 0 1 0"/>
            <feBlend in="SourceGraphic" in2="matrixOut" mode="normal"/>
        </filter>
        <filter id="dsFilter" width="150%" height="150%">
            <feOffset dx="3" dy="3" in="SourceGraphic" result="offOut"/>
            <feColorMatrix in="offOut" result="matrixOut" type="matrix" values="0.2 0 0 0 0 0 0.2 0 0 0 0 0 0.2 0 0 0 0 0 1 0"/>
            <feGaussianBlur in="matrixOut" result="blurOut" stdDeviation="3"/>
            <feBlend in="SourceGraphic" in2="blurOut" mode="normal"/>
        </filter>
        <marker id="iPointer" fill="#000" markerHeight="7" markerUnits="strokeWidth" markerWidth="8" orient="auto" refX="5" refY="5" viewBox="0 0 10 10">
            <path d="M10 0v10L0 5z"/>
        </marker>
        <marker id="Pointer" fill="#000" markerHeight="7" markerUnits="strokeWidth" markerWidth="8" orient="auto" refX="5" refY="5" viewBox="0 0 10 10">
            <path d="M0 0l10 5-10 5z"/>
        </marker>
    </defs>
    <defs>
        <style type="text/css">
            @font-face{font-family:&quot;xkcd Script&quot;;src:url(./xkcd-script.ttf)}
        </style>
    </defs>
    <g xmlns="http://www.w3.org/2000/svg" id="lines" fill="none" stroke="#000" stroke-width="2" transform="scale(.75)">
        <g id="group577">
            <path id="path577" marker-end="url(#Pointer)" d="M193.5 56h99"/>
        </g>
        <g id="group1180">
            <path id="path1180" marker-start="url(#iPointer)" d="M400.5 120v32"/>
        </g>
        <g id="group1188">
            <path id="path1188" marker-end="url(#Pointer)" d="M400.5 248v32"/>
        </g>
        <g id="group1481">
            <path id="path1481" marker-end="url(#Pointer)" d="M499.5 344h108"/>
        </g>
    </g>
    <text id="text0" x="12.825" y="33.6" fill="#fff" stroke="none" font-family="xkcd Script" font-size="15">
        Git
    </text>
    <text id="text2" x="235.575" y="33.6" fill="#000" stroke="none" font-family="xkcd Script" font-size="15">
        Docker build
    </text>
    <text id="text4" x="235.575" y="141.6" fill="#000" stroke="none" font-family="xkcd Script" font-size="15">
        Flux
    </text>
    <text id="text6" x="235.575" y="249.6" fill="#000" stroke="none" font-family="xkcd Script" font-size="15">
        Helm
    </text>
    <text id="text8" x="471.825" y="249.6" fill="#fff" stroke="none" font-family="xkcd Script" font-size="15">
        Service
    </text>
    <text id="text1" x="168.075" y="33.6" fill="#000" font-family="xkcd Script" font-size="15">
        Push
    </text>
    <text id="text3" x="309.825" y="105.6" fill="#000" font-family="xkcd Script" font-size="15">
        watch
    </text>
    <text id="text5" x="309.825" y="213.6" fill="#000" font-family="xkcd Script" font-size="15">
        trigger
    </text>
    <text id="text7" x="384.075" y="249.6" fill="#000" font-family="xkcd Script" font-size="15">
        deploy
    </text>
</svg>
