<svg xmlns="http://www.w3.org/2000/svg" width="244" height="192" version="1.1" viewBox="0 0 183 144">
    <g id="surface453">
        <path fill="#fff" fill-opacity="1" fill-rule="nonzero" stroke="none" d="M61.2 22.398h18.902V8h37.796v14.398h18.903V152H61.199V22.398M61.2 152l9.45-14.398V152l9.453-14.398V152l9.449-14.398V152L99 137.602V152l9.45-14.398V152l9.448-14.398V152l9.454-14.398V152l9.449-14.398H61.199m0-115.204zm0 0" transform="scale(.75)"/>
        <path fill="none" stroke="#000" stroke-linecap="butt" stroke-linejoin="miter" stroke-miterlimit="10" stroke-opacity="1" stroke-width="1.5" d="M48.378 16.319c3.398 3.31 7.412.384 11.063-.34m-12.87 1.59c3.436.367 7.027.434 14.852-.075m-1.018-1.571c-.34-3.09 1.541-3.972.126-9.231m.639 9.852c-.141-1.122-.478-4.605-.094-9.937m2.112-1.55c8.56-2.309 16.199-.838 27.709.16m-29.247.725c8.347-.85 19.58-2.075 28.582-.059m.348-1.09c-.822 6.17-.058 8.106-.34 12.554M89.409 5.83c.743 2.51-.187 6.533.347 10.899m.77 1.752c4.105-2.945 6.337-3.19 12.287-.473m-12.421-.772c1.218-2.013 5.586-2.21 12.541-.32m2.804.416c.691 34.369.835 65.429-2.241 97.38m.647-98.88c.141 36.117-.272 70.509-.735 98.443m1.236.285c-17.387 1.84-34.245.316-59.742-1.129m59.52.745c-14.235-.519-27.627-1.204-58.014.557m1.47-.349c-2.897-21.85.34-49.573-3.058-98.3m.844 97.679c1.122-37.403.647-75.326.284-95.985m1.535 97.751c3.585-4.933 4.872-10.597 6.255-12.126m-7.594 11.921c3-2.836 4.263-5.106 7.46-10.503m1.241-1.275c-2.053 4.644-1.752 9.215.205 9.41m-1.573-8.228c-.234 2.42.633 4.388.964 9.146m-1.397-1.395c3.832-.867 6.129-5.549 6.724-9.82m-6.375 11.189c1.936-2.198 3.503-4.278 7.59-11.403m.744 1.213c-1.699 3.674-1.398 6.243-1.992 11.107m.908-12.17c.554 3.152-.237 4.603.937 11.915m-1.517-1.07c4.547-2.797 5.54-7.912 8.684-10.295m-7.697 11.42c2.113-3.688 3.692-5.666 6.358-11.838m-.12-.209c1.468 2.792-.653 8.2.061 12.01m1.088-11.564c-.188 3.264-.344 5.546-.596 10.927m.672-.638c-.443-1.863 1.282-1.7 4.288-10.237M68 113.364c1.283-3.137 2.955-4.64 5.838-9.829m-.74-1.57c2.507 4.547 1.754 7.89.178 12.708m.96-11.797c-.104 3.78.162 8.68-.544 11.402m2.136-1.453c.838-3.946 1.568-7.242 4.055-9.978m-5.075 12.044c.882-3.848 4.031-7.184 7.345-10.931m-.24-1.21c.525 3.741-.917 7.898-1.556 9.864m1.65-9.43c-.507 5.308-.783 9.017-1.368 10.166m.011.524c1.573-4.04 5.66-4.814 8.244-11.73m-7.025 11.806c2.142-4.017 2.57-6.17 6.776-10.665m-1.503 1.158c1.363 1.887.595 4.298-.202 8.801m.861-10.178c-.157 1.576 1.182 4.1 1.243 11.529m-1.33-1.377c.864-.677 4.16-5.555 9.304-9.463m-8.075 9.87c.757-1.603 2.886-4.597 7.41-10.781m-.865-.246c.97 2.88.261 7.221.578 10.174m-.99-9.34c.315 2.945.456 6.434.846 11.315m-.249 1.06c1.254-4.848 4.427-8.707 5.487-11.856m-5.405 10.544c1.497-4.526 2.76-7.59 6.05-11.499m-.97 2.16c-16.934-4.178-30.65-.956-56.997-1.181m59.712-.927c-15.108-.4-29.085-.4-58.28-.24m2.01-86.768c.006-.351-.193-.058-.108 1.295m.117-1.538c.018-.024-.018.422-.1 1.462"/>
    </g>
    <defs xmlns="http://www.w3.org/2000/svg">
        <filter id="dsFilterNoBlur" width="150%" height="150%">
            <feOffset dx="3" dy="3" in="SourceGraphic" result="offOut"/>
            <feColorMatrix in="offOut" result="matrixOut" type="matrix" values="0.2 0 0 0 0 0 0.2 0 0 0 0 0 0.2 0 0 0 0 0 1 0"/>
            <feBlend in="SourceGraphic" in2="matrixOut" mode="normal"/>
        </filter>
        <filter id="dsFilter" width="150%" height="150%">
            <feOffset dx="3" dy="3" in="SourceGraphic" result="offOut"/>
            <feColorMatrix in="offOut" result="matrixOut" type="matrix" values="0.2 0 0 0 0 0 0.2 0 0 0 0 0 0.2 0 0 0 0 0 1 0"/>
            <feGaussianBlur in="matrixOut" result="blurOut" stdDeviation="3"/>
            <feBlend in="SourceGraphic" in2="blurOut" mode="normal"/>
        </filter>
        <marker id="iPointer-pzbpmw82g8q" fill="#000" markerHeight="7" markerUnits="strokeWidth" markerWidth="8" orient="auto" refX="5" refY="5" viewBox="0 0 10 10">
            <path d="M10 0v10L0 5z"/>
        </marker>
        <marker id="Pointer-pzbpmw82g8q" fill="#000" markerHeight="7" markerUnits="strokeWidth" markerWidth="8" orient="auto" refX="5" refY="5" viewBox="0 0 10 10">
            <path d="M0 0l10 5-10 5z"/>
        </marker>
    </defs>
    <defs>
        <style type="text/css">
            @font-face{font-family:&quot;xkcd Script&quot;;src:url(./xkcd-script.ttf)}
        </style>
    </defs>
    ??
</svg>
