<svg xmlns="http://www.w3.org/2000/svg" width="554pt" height="400" version="1.1" viewBox="0 0 554 300">
    <path id="surface493" fill="none" stroke="#000" stroke-linecap="butt" stroke-linejoin="miter" stroke-miterlimit="10" stroke-opacity="1" stroke-width="1.5" d="M314.593 77.407c-1.895-13.8-21.844-23.934-48.938-25.9m46.955 26.455c3.486-15.852-19.987-23.79-50.872-25.055m0 0c-26.979-1.169-47.47 9.982-48.823 23.748m48.293-23.994c-24.425 2.672-48.317 11.213-50.381 24.797m0 0c-.226 14.722 21.75 25.36 50.376 23.259m-50.298-21.61c-1.43 13.696 21.466 20.359 49.064 22.126m0 0c27.433 1.022 52.072-8.623 50.291-23.585m-50.458 23.62c28.658 1.804 51.498-11.078 54.58-21.59m-.135.115c.416-.343.229-.697.639-2.485m-.507 2.438c-.05 1.969-.02 1.342.158-2.267M56.64 20.032c3.741 73.463 3.225 147.67 2.244 240.107M57.176 18.671c4.927 64.371 4.79 125.209 1.916 241.901m.62-2.458c68.418 5.763 140.374 2.535 348.9 1.652m-351.42.75c137.266 1.36 272.392.584 352.92.045"/>
    <defs xmlns="http://www.w3.org/2000/svg">
        <filter id="dsFilterNoBlur" width="150%" height="150%">
            <feOffset dx="3" dy="3" in="SourceGraphic" result="offOut"/>
            <feColorMatrix in="offOut" result="matrixOut" type="matrix" values="0.2 0 0 0 0 0 0.2 0 0 0 0 0 0.2 0 0 0 0 0 1 0"/>
            <feBlend in="SourceGraphic" in2="matrixOut" mode="normal"/>
        </filter>
        <filter id="dsFilter" width="150%" height="150%">
            <feOffset dx="3" dy="3" in="SourceGraphic" result="offOut"/>
            <feColorMatrix in="offOut" result="matrixOut" type="matrix" values="0.2 0 0 0 0 0 0.2 0 0 0 0 0 0.2 0 0 0 0 0 1 0"/>
            <feGaussianBlur in="matrixOut" result="blurOut" stdDeviation="3"/>
            <feBlend in="SourceGraphic" in2="blurOut" mode="normal"/>
        </filter>
        <marker id="iPointer-pnta8w0rpgs" fill="#000" markerHeight="7" markerUnits="strokeWidth" markerWidth="8" orient="auto" refX="5" refY="5" viewBox="0 0 10 10">
            <path d="M10 0v10L0 5z"/>
        </marker>
        <marker id="Pointer-pnta8w0rpgs" fill="#000" markerHeight="7" markerUnits="strokeWidth" markerWidth="8" orient="auto" refX="5" refY="5" viewBox="0 0 10 10">
            <path d="M0 0l10 5-10 5z"/>
        </marker>
    </defs>
    <defs>
        <style type="text/css">
            @font-face{font-family:&quot;xkcd Script&quot;;src:url(./xkcd-script.ttf)}
        </style>
    </defs>
    <g xmlns="http://www.w3.org/2000/svg" id="lines-pnta8w0rpgs" fill="none" stroke="#000" stroke-width="2" transform="scale(.75)">
        <g id="group206">
            <path id="path206" marker-end="url(#Pointer-pnta8w0rpgs)" marker-start="url(#iPointer-pnta8w0rpgs)" d="M76.5 24v320h468"/>
        </g>
    </g>
    <text id="text1" x="215.325" y="81.6" fill="#000" stroke="none" font-family="xkcd Script" font-size="15">
        •
    </text>
    <text id="text2" x="228.825" y="81.6" fill="#000" stroke="none" font-family="xkcd Script" font-size="15">
        Public Cloud
    </text>
    <text id="text0" x="-.675" y="21.6" fill="#000" font-family="xkcd Script" font-size="15">
        utility
    </text>
    <text id="text3" x="343.575" y="225.6" fill="#000" font-family="xkcd Script" font-size="15">
        •
    </text>
    <text id="text4" x="357.075" y="225.6" fill="#000" font-family="xkcd Script" font-size="15">
        Bitcoin
    </text>
    <text id="text5" x="289.575" y="273.6" fill="#000" font-family="xkcd Script" font-size="15">
        power consumption
    </text>
</svg>
