<svg xmlns="http://www.w3.org/2000/svg" width="230pt" height="208" version="1.1" viewBox="0 0 230 156">
    <path id="surface509" fill="none" stroke="#000" stroke-linecap="butt" stroke-linejoin="miter" stroke-miterlimit="10" stroke-opacity="1" stroke-width="2" d="M216.094 75.262c2.586-16.602-48.32-34.188-102.961-32.594M218.34 72.613c-4.485-18.504-47.66-31.285-109.602-33.91m0 0C52.461 44.29 6.723 59.406 4.61 76.172m104.559-36.77c-58.54.602-106.016 15.07-105.844 38.883m0 0c.492 17.098 48.242 30.63 102.645 34.774M3.949 77.96c-1.543 21.234 43.969 30.844 103.922 30.535m0 0c59.309 4.817 102.77-9.246 104.762-28.055m-106.02 29.512c58.735 3.793 105.407-11.7 103.293-32.746M5.164 85.234c-2.777 19.293 48.145 30.95 106.016 33.184M6.797 84.922c.297 20.945 42.582 33.793 105.254 35.371m0 0c53.437-.578 104.129-14.852 103.945-33.523m-101.508 31.1c55.516-1.644 98.215-16.148 99.7-33.418M4.688 97.52c-2.235 19.687 49.382 35.953 102.824 34.539M4.539 98.839c2.281 13.84 44.016 29.407 104.527 30.282m0 0c55.934.332 106.989-15.144 107.793-30.371m-110.23 30.7c58.992 4.64 108.941-11.282 109.754-28.614M8.895 116.152c.945 20.285 49.066 30.852 103.765 32.934M9.816 113.57c-4.011 19.25 44.786 36.832 102.364 38.453m0 0c62.273-1.41 107.457-17.199 106.406-38.445m-103.992 38.543c56.34-4.879 106.297-19.414 104.777-37.637m1.211-39.199c-.566.278-2.734.953-3.836.106m3.953-.618c-.96 3.38-2.078 3.262-4.683.41"/>
    <defs xmlns="http://www.w3.org/2000/svg">
        <filter id="dsFilterNoBlur" width="150%" height="150%">
            <feOffset dx="3" dy="3" in="SourceGraphic" result="offOut"/>
            <feColorMatrix in="offOut" result="matrixOut" type="matrix" values="0.2 0 0 0 0 0 0.2 0 0 0 0 0 0.2 0 0 0 0 0 1 0"/>
            <feBlend in="SourceGraphic" in2="matrixOut" mode="normal"/>
        </filter>
        <filter id="dsFilter" width="150%" height="150%">
            <feOffset dx="3" dy="3" in="SourceGraphic" result="offOut"/>
            <feColorMatrix in="offOut" result="matrixOut" type="matrix" values="0.2 0 0 0 0 0 0.2 0 0 0 0 0 0.2 0 0 0 0 0 1 0"/>
            <feGaussianBlur in="matrixOut" result="blurOut" stdDeviation="3"/>
            <feBlend in="SourceGraphic" in2="blurOut" mode="normal"/>
        </filter>
        <marker id="iPointer-toq4xoqu5xg" fill="#000" markerHeight="7" markerUnits="strokeWidth" markerWidth="8" orient="auto" refX="5" refY="5" viewBox="0 0 10 10">
            <path d="M10 0v10L0 5z"/>
        </marker>
        <marker id="Pointer-toq4xoqu5xg" fill="#000" markerHeight="7" markerUnits="strokeWidth" markerWidth="8" orient="auto" refX="5" refY="5" viewBox="0 0 10 10">
            <path d="M0 0l10 5-10 5z"/>
        </marker>
    </defs>
    <defs>
        <style type="text/css">
            @font-face{font-family:&quot;xkcd Script&quot;;src:url(./xkcd-script.ttf)}
        </style>
    </defs>
    ??
</svg>
