<svg xmlns="http://www.w3.org/2000/svg" width="311pt" height="240" version="1.1" viewBox="0 0 311 180">
    <path id="surface61" fill="none" stroke="#fff" stroke-linecap="butt" stroke-linejoin="miter" stroke-miterlimit="10" stroke-opacity="1" stroke-width="2" d="M177.094 24.598c-24.93 2.027-50.95 17.328-47.461 40.937m49.707-43.59c-32 .125-50.29 20.23-54.102 39.625m0 0c1.852 27.598 25.465 45.578 50.871 43.934m-50.441-43.238c-.41 22.613 21.465 39.949 49.156 45.351m0 0c30.778-4.336 53.863-23.515 50.41-41.383m-49.785 41.059c28.742-.2 49.59-23.3 51.692-45.625m0 0c1.457-17.191-24.215-34.297-49.739-34.918m48.477 36.379c.887-18.223-21.574-36.754-51.203-39.613m-.336-2.766c-24.77 1.156-38.5 15.871-38.485 40.098m40.122-40.41c-21.7 2.808-44.07 18.714-39.247 42.285m0 0c-4.417 21.418 17.133 39.82 38.942 39.558m-36.508-41.98c-2.336 20.351 11.223 38.527 34.7 39.664m0 0c20.796 1.992 38.605-15.695 41.476-39.235m-39.102 41.856c19.977-3.57 40.598-22.844 38.414-39.938m0 0c2.5-22.414-19.996-43.023-41.828-43.98m43.2 42.027c.648-18.375-20.747-36.433-43.731-39.53M172 22.956c-17.7-.035-28.688 20.242-26.988 42.309m29.047-44.793c-20.239 5.386-34.782 19.109-30.403 39.582m0 0c-1.324 22.617 14.946 44.023 27.805 43.629m-27.059-43.368c-1.285 23.262 10.68 40.391 31.118 42.754m0 0c15.117.348 26.964-17.828 28.578-41.27m-27.743 39.438c10.637.809 26.965-12.703 27.836-35.511m0 0c1.149-21.782-17.433-43.848-30.68-44.47m29.727 46.845c-1.394-27.567-11.496-46.172-30.754-44.122m-.449-2.476c-9.898 1.906-17.969 15.797-19.37 43.09m17.452-41.856c-9.074.133-21.215 17.29-16.594 42.516m0 0c-.785 21.414 6.395 37.183 17.747 36.16M154.62 65.04c-2.601 21.18 10.383 38.16 16.027 39.82m0 0c11.461-5.507 22.891-22.5 20.114-40.671m-17.575 43.289c9.391-5.176 17.708-20.993 16.68-46.84m0 0c4.332-22.133-3.144-39.098-18.847-38.332m18.492 39.789c.218-19.782-3.668-37.324-17.496-42m-1.95-1.692c-7.902 3.739-10.812 18.79-10.332 39.758m9.09-40.93c-3.695-.664-9.336 20.329-10.797 43.368m0 0c3.528 18.914 8.325 36.78 14.29 39.363m-13.782-41.445c1.785 20.949 5.61 37.039 13.8 37.328m0 0c2.04.48 10.767-12.906 9.54-34.766m-6.805 35.477c-.16 3.675 7.211-17.164 5.426-38.746m0 0c.117-21.809-1.547-37.684-9.219-38.168m9.813 39.918c1.937-22.348-6.692-41.907-7.195-44.016"/>
    <defs xmlns="http://www.w3.org/2000/svg">
        <filter id="dsFilterNoBlur" width="150%" height="150%">
            <feOffset dx="3" dy="3" in="SourceGraphic" result="offOut"/>
            <feColorMatrix in="offOut" result="matrixOut" type="matrix" values="0.2 0 0 0 0 0 0.2 0 0 0 0 0 0.2 0 0 0 0 0 1 0"/>
            <feBlend in="SourceGraphic" in2="matrixOut" mode="normal"/>
        </filter>
        <filter id="dsFilter" width="150%" height="150%">
            <feOffset dx="3" dy="3" in="SourceGraphic" result="offOut"/>
            <feColorMatrix in="offOut" result="matrixOut" type="matrix" values="0.2 0 0 0 0 0 0.2 0 0 0 0 0 0.2 0 0 0 0 0 1 0"/>
            <feGaussianBlur in="matrixOut" result="blurOut" stdDeviation="3"/>
            <feBlend in="SourceGraphic" in2="blurOut" mode="normal"/>
        </filter>
        <marker id="iPointer-noui2sgu0nf" fill="#000" markerHeight="7" markerUnits="strokeWidth" markerWidth="8" orient="auto" refX="5" refY="5" viewBox="0 0 10 10">
            <path d="M10 0v10L0 5z"/>
        </marker>
        <marker id="Pointer-noui2sgu0nf" fill="#000" markerHeight="7" markerUnits="strokeWidth" markerWidth="8" orient="auto" refX="5" refY="5" viewBox="0 0 10 10">
            <path d="M0 0l10 5-10 5z"/>
        </marker>
    </defs>
    <defs>
        <style type="text/css">
            @font-face{font-family:&quot;xkcd Script&quot;;src:url(./xkcd-script.ttf)}
        </style>
    </defs>
    ??
</svg>
