<svg class="marks" width="529" height="270" viewBox="0 0 529 270" version="1.1" xmlns="http://www.w3.org/2000/svg" xmlns:xlink="http://www.w3.org/1999/xlink"><g transform="translate(94,15)"><g class="mark-group role-frame root"><g transform="translate(0,0)"><path class="background" d="M0.5,0.5h400v200h-400Z" style="fill: none; stroke: #ddd;"></path><g><g class="mark-group role-axis"><g transform="translate(0.5,200.5)"><path class="background" d="M0,0h0v0h0Z" style="pointer-events: none; fill: none;"></path><g><g class="mark-rule role-axis-grid" style="pointer-events: none;"><line transform="translate(0,-200)" x2="0" y2="200" style="fill: none; stroke: #ddd; stroke-width: 1; opacity: 1;"></line><line transform="translate(40,-200)" x2="0" y2="200" style="fill: none; stroke: #ddd; stroke-width: 1; opacity: 1;"></line><line transform="translate(80,-200)" x2="0" y2="200" style="fill: none; stroke: #ddd; stroke-width: 1; opacity: 1;"></line><line transform="translate(120,-200)" x2="0" y2="200" style="fill: none; stroke: #ddd; stroke-width: 1; opacity: 1;"></line><line transform="translate(160,-200)" x2="0" y2="200" style="fill: none; stroke: #ddd; stroke-width: 1; opacity: 1;"></line><line transform="translate(200,-200)" x2="0" y2="200" style="fill: none; stroke: #ddd; stroke-width: 1; opacity: 1;"></line><line transform="translate(240,-200)" x2="0" y2="200" style="fill: none; stroke: #ddd; stroke-width: 1; opacity: 1;"></line><line transform="translate(280,-200)" x2="0" y2="200" style="fill: none; stroke: #ddd; stroke-width: 1; opacity: 1;"></line><line transform="translate(320,-200)" x2="0" y2="200" style="fill: none; stroke: #ddd; stroke-width: 1; opacity: 1;"></line><line transform="translate(360,-200)" x2="0" y2="200" style="fill: none; stroke: #ddd; stroke-width: 1; opacity: 1;"></line><line transform="translate(400,-200)" x2="0" y2="200" style="fill: none; stroke: #ddd; stroke-width: 1; opacity: 1;"></line></g></g></g></g><g class="mark-group role-axis"><g transform="translate(0.5,0.5)"><path class="background" d="M0,0h0v0h0Z" style="pointer-events: none; fill: none;"></path><g><g class="mark-rule role-axis-grid" style="pointer-events: none;"><line transform="translate(0,200)" x2="400" y2="0" style="fill: none; stroke: #ddd; stroke-width: 1; opacity: 1;"></line><line transform="translate(0,150)" x2="400" y2="0" style="fill: none; stroke: #ddd; stroke-width: 1; opacity: 1;"></line><line transform="translate(0,100)" x2="400" y2="0" style="fill: none; stroke: #ddd; stroke-width: 1; opacity: 1;"></line><line transform="translate(0,50)" x2="400" y2="0" style="fill: none; stroke: #ddd; stroke-width: 1; opacity: 1;"></line><line transform="translate(0,0)" x2="400" y2="0" style="fill: none; stroke: #ddd; stroke-width: 1; opacity: 1;"></line></g></g></g></g><g class="mark-line role-mark marks"><path d="M400,190L360.032849712565,179.99999999999997L319.95620038324665,179.99999999999997L279.98905009581165,179.99999999999997L240.0218998083767,179.99999999999997L200.0547495209417,179.99999999999997L159.97810019162333,170.0000000000002L120.01094990418835,160.00000000000017L80.04379961675335,120.00000000000013L40.07664932931837,110.00000000000011L0,90.0000000000001" style="fill: none; stroke: #fff44d; stroke-width: 2;"></path></g><g class="mark-group role-axis"><g transform="translate(0.5,200.5)"><path class="background" d="M0,0h0v0h0Z" style="pointer-events: none; fill: none;"></path><g><g class="mark-rule role-axis-tick" style="pointer-events: none;"><line transform="translate(0,0)" x2="0" y2="5" style="fill: none; stroke: #888; stroke-width: 1; opacity: 1;"></line><line transform="translate(40,0)" x2="0" y2="5" style="fill: none; stroke: #888; stroke-width: 1; opacity: 1;"></line><line transform="translate(80,0)" x2="0" y2="5" style="fill: none; stroke: #888; stroke-width: 1; opacity: 1;"></line><line transform="translate(120,0)" x2="0" y2="5" style="fill: none; stroke: #888; stroke-width: 1; opacity: 1;"></line><line transform="translate(160,0)" x2="0" y2="5" style="fill: none; stroke: #888; stroke-width: 1; opacity: 1;"></line><line transform="translate(200,0)" x2="0" y2="5" style="fill: none; stroke: #888; stroke-width: 1; opacity: 1;"></line><line transform="translate(240,0)" x2="0" y2="5" style="fill: none; stroke: #888; stroke-width: 1; opacity: 1;"></line><line transform="translate(280,0)" x2="0" y2="5" style="fill: none; stroke: #888; stroke-width: 1; opacity: 1;"></line><line transform="translate(320,0)" x2="0" y2="5" style="fill: none; stroke: #888; stroke-width: 1; opacity: 1;"></line><line transform="translate(360,0)" x2="0" y2="5" style="fill: none; stroke: #888; stroke-width: 1; opacity: 1;"></line><line transform="translate(400,0)" x2="0" y2="5" style="fill: none; stroke: #888; stroke-width: 1; opacity: 1;"></line></g><g class="mark-text role-axis-label" style="pointer-events: none;"><text text-anchor="middle" transform="translate(0,21)" style="font-family: sans-serif; font-size: 18px; fill: #000; opacity: 1;">2008</text><text text-anchor="middle" transform="translate(40.07664932931837,21)" style="font-family: sans-serif; font-size: 18px; fill: #000; opacity: 0;">2009</text><text text-anchor="middle" transform="translate(80.04379961675335,21)" style="font-family: sans-serif; font-size: 18px; fill: #000; opacity: 1;">2010</text><text text-anchor="middle" transform="translate(120.01094990418835,21)" style="font-family: sans-serif; font-size: 18px; fill: #000; opacity: 0;">2011</text><text text-anchor="middle" transform="translate(159.97810019162333,21)" style="font-family: sans-serif; font-size: 18px; fill: #000; opacity: 1;">2012</text><text text-anchor="middle" transform="translate(200.0547495209417,21)" style="font-family: sans-serif; font-size: 18px; fill: #000; opacity: 0;">2013</text><text text-anchor="middle" transform="translate(240.0218998083767,21)" style="font-family: sans-serif; font-size: 18px; fill: #000; opacity: 1;">2014</text><text text-anchor="middle" transform="translate(279.98905009581165,21)" style="font-family: sans-serif; font-size: 18px; fill: #000; opacity: 0;">2015</text><text text-anchor="middle" transform="translate(319.95620038324665,21)" style="font-family: sans-serif; font-size: 18px; fill: #000; opacity: 1;">2016</text><text text-anchor="middle" transform="translate(360.032849712565,21)" style="font-family: sans-serif; font-size: 18px; fill: #000; opacity: 0;">2017</text><text text-anchor="middle" transform="translate(400,21)" style="font-family: sans-serif; font-size: 18px; fill: #000; opacity: 1;">2018</text></g><g class="mark-rule role-axis-domain" style="pointer-events: none;"><line transform="translate(0,0)" x2="400" y2="0" style="fill: none; stroke: #888; stroke-width: 1; opacity: 1;"></line></g><g class="mark-text role-axis-title" style="pointer-events: none;"><text text-anchor="middle" transform="translate(200,44)" style="font-family: sans-serif; font-size: 18px; font-weight: bold; fill: #000; opacity: 1;">date (year)</text></g></g></g></g><g class="mark-group role-axis"><g transform="translate(0.5,0.5)"><path class="background" d="M0,0h0v0h0Z" style="pointer-events: none; fill: none;"></path><g><g class="mark-rule role-axis-tick" style="pointer-events: none;"><line transform="translate(0,200)" x2="-5" y2="0" style="fill: none; stroke: #888; stroke-width: 1; opacity: 1;"></line><line transform="translate(0,150)" x2="-5" y2="0" style="fill: none; stroke: #888; stroke-width: 1; opacity: 1;"></line><line transform="translate(0,100)" x2="-5" y2="0" style="fill: none; stroke: #888; stroke-width: 1; opacity: 1;"></line><line transform="translate(0,50)" x2="-5" y2="0" style="fill: none; stroke: #888; stroke-width: 1; opacity: 1;"></line><line transform="translate(0,0)" x2="-5" y2="0" style="fill: none; stroke: #888; stroke-width: 1; opacity: 1;"></line></g><g class="mark-text role-axis-label" style="pointer-events: none;"><text text-anchor="end" transform="translate(-7,205)" style="font-family: sans-serif; font-size: 18px; fill: #000; opacity: 1;">1.10</text><text text-anchor="end" transform="translate(-7,155.00000000000017)" style="font-family: sans-serif; font-size: 18px; fill: #000; opacity: 1;">1.15</text><text text-anchor="end" transform="translate(-7,105.00000000000011)" style="font-family: sans-serif; font-size: 18px; fill: #000; opacity: 1;">1.20</text><text text-anchor="end" transform="translate(-7,55.00000000000006)" style="font-family: sans-serif; font-size: 18px; fill: #000; opacity: 1;">1.25</text><text text-anchor="end" transform="translate(-7,5)" style="font-family: sans-serif; font-size: 18px; fill: #000; opacity: 1;">1.30</text></g><g class="mark-rule role-axis-domain" style="pointer-events: none;"><line transform="translate(0,200)" x2="0" y2="-200" style="fill: none; stroke: #888; stroke-width: 1; opacity: 1;"></line></g><g class="mark-text role-axis-title" style="pointer-events: none;"><text text-anchor="middle" transform="translate(-69,100) rotate(-90) translate(0,-4)" style="font-family: sans-serif; font-size: 18px; font-weight: bold; fill: #000; opacity: 1;">PUE</text></g></g></g></g></g></g></g></g></svg>