<svg xmlns="http://www.w3.org/2000/svg" width="468" height="304" version="1.1" viewBox="0 0 351 228">
    <g id="surface257">
        <path fill="#fff" fill-opacity="1" fill-rule="nonzero" stroke="none" d="M58.5 136h360M65.7 8v256m0-102.398S400.5 155.199 418.5 8m-360 128zm0 0" transform="scale(.75)"/>
        <path fill="none" stroke="#000" stroke-linecap="butt" stroke-linejoin="miter" stroke-miterlimit="10" stroke-opacity="1" stroke-width="1.5" d="M46.427 101.464c98.68 6.74 198.012 3.642 266.707-.36m-268.62 1.684c60.14-.217 120.442-.144 270.718-.08M46.186 6.049c1.029 45.611-1.037 90.201-.6 194.234M47.339 8.563c-.797 53.186-.331 110.21.6 191.887m-2.337-75.52c252.724-9.178 254.194-7.253 267.33-117.834M44.818 125.865c256.51-9.61 252.953-8.64 269.678-122.455M45.683 97.995c-.012 1.155-.513 3.627-.243 3.809m.202-4.476c-.458 2.267-.279 3.76-.81 4.933"/>
    </g>
    <defs xmlns="http://www.w3.org/2000/svg">
        <filter id="dsFilterNoBlur" width="150%" height="150%">
            <feOffset dx="3" dy="3" in="SourceGraphic" result="offOut"/>
            <feColorMatrix in="offOut" result="matrixOut" type="matrix" values="0.2 0 0 0 0 0 0.2 0 0 0 0 0 0.2 0 0 0 0 0 1 0"/>
            <feBlend in="SourceGraphic" in2="matrixOut" mode="normal"/>
        </filter>
        <filter id="dsFilter" width="150%" height="150%">
            <feOffset dx="3" dy="3" in="SourceGraphic" result="offOut"/>
            <feColorMatrix in="offOut" result="matrixOut" type="matrix" values="0.2 0 0 0 0 0 0.2 0 0 0 0 0 0.2 0 0 0 0 0 1 0"/>
            <feGaussianBlur in="matrixOut" result="blurOut" stdDeviation="3"/>
            <feBlend in="SourceGraphic" in2="blurOut" mode="normal"/>
        </filter>
        <marker id="iPointer-l7c990x1l0q" fill="#000" markerHeight="7" markerUnits="strokeWidth" markerWidth="8" orient="auto" refX="5" refY="5" viewBox="0 0 10 10">
            <path d="M10 0v10L0 5z"/>
        </marker>
        <marker id="Pointer-l7c990x1l0q" fill="#000" markerHeight="7" markerUnits="strokeWidth" markerWidth="8" orient="auto" refX="5" refY="5" viewBox="0 0 10 10">
            <path d="M0 0l10 5-10 5z"/>
        </marker>
    </defs>
    <defs>
        <style type="text/css">
            @font-face{font-family:&quot;xkcd Script&quot;;src:url(./xkcd-script.ttf)}
        </style>
    </defs>
    ??
    <text id="text1" x="242.325" y="129.6" fill="#000" stroke="none" font-family="xkcd Script" font-size="15">
        variable x
    </text>
    <text id="text0" x="6.075" y="21.6" fill="#000" font-family="xkcd Script" font-size="15">
        gains
    </text>
    <text id="text2" x="-.675" y="189.6" fill="#000" font-family="xkcd Script" font-size="15">
        losses
    </text>
</svg>
