<svg class="marks" width="541" height="260" viewBox="0 0 541 260" version="1.1" xmlns="http://www.w3.org/2000/svg" xmlns:xlink="http://www.w3.org/1999/xlink"><g transform="translate(65,5)"><g class="mark-group role-frame root"><g transform="translate(0,0)"><path class="background" d="M0.5,0.5h400v200h-400Z" style="fill: none; stroke: #ddd;"></path><g><g class="mark-group role-axis"><g transform="translate(0.5,200.5)"><path class="background" d="M0,0h0v0h0Z" style="pointer-events: none; fill: none;"></path><g><g class="mark-rule role-axis-grid" style="pointer-events: none;"><line transform="translate(5,-200)" x2="0" y2="200" style="fill: none; stroke: #ddd; stroke-width: 1; opacity: 1;"></line><line transform="translate(37,-200)" x2="0" y2="200" style="fill: none; stroke: #ddd; stroke-width: 1; opacity: 1;"></line><line transform="translate(70,-200)" x2="0" y2="200" style="fill: none; stroke: #ddd; stroke-width: 1; opacity: 1;"></line><line transform="translate(103,-200)" x2="0" y2="200" style="fill: none; stroke: #ddd; stroke-width: 1; opacity: 1;"></line><line transform="translate(135,-200)" x2="0" y2="200" style="fill: none; stroke: #ddd; stroke-width: 1; opacity: 1;"></line><line transform="translate(167,-200)" x2="0" y2="200" style="fill: none; stroke: #ddd; stroke-width: 1; opacity: 1;"></line><line transform="translate(200,-200)" x2="0" y2="200" style="fill: none; stroke: #ddd; stroke-width: 1; opacity: 1;"></line><line transform="translate(233,-200)" x2="0" y2="200" style="fill: none; stroke: #ddd; stroke-width: 1; opacity: 1;"></line><line transform="translate(265,-200)" x2="0" y2="200" style="fill: none; stroke: #ddd; stroke-width: 1; opacity: 1;"></line><line transform="translate(297,-200)" x2="0" y2="200" style="fill: none; stroke: #ddd; stroke-width: 1; opacity: 1;"></line><line transform="translate(330,-200)" x2="0" y2="200" style="fill: none; stroke: #ddd; stroke-width: 1; opacity: 1;"></line><line transform="translate(363,-200)" x2="0" y2="200" style="fill: none; stroke: #ddd; stroke-width: 1; opacity: 1;"></line><line transform="translate(395,-200)" x2="0" y2="200" style="fill: none; stroke: #ddd; stroke-width: 1; opacity: 1;"></line></g></g></g></g><g class="mark-group role-axis"><g transform="translate(0.5,0.5)"><path class="background" d="M0,0h0v0h0Z" style="pointer-events: none; fill: none;"></path><g><g class="mark-rule role-axis-grid" style="pointer-events: none;"><line transform="translate(0,200)" x2="400" y2="0" style="fill: none; stroke: #ddd; stroke-width: 1; opacity: 1;"></line><line transform="translate(0,156)" x2="400" y2="0" style="fill: none; stroke: #ddd; stroke-width: 1; opacity: 1;"></line><line transform="translate(0,111)" x2="400" y2="0" style="fill: none; stroke: #ddd; stroke-width: 1; opacity: 1;"></line><line transform="translate(0,67)" x2="400" y2="0" style="fill: none; stroke: #ddd; stroke-width: 1; opacity: 1;"></line><line transform="translate(0,22)" x2="400" y2="0" style="fill: none; stroke: #ddd; stroke-width: 1; opacity: 1;"></line></g></g></g></g><g class="mark-rect role-mark marks"><path d="M2.500000000399072,197.77777777777777h5v2.2222222222222285h-5Z" style="fill: #fe17bf;"></path><path d="M34.97775496277292,197.77777777777777h5v2.2222222222222285h-5Z" style="fill: #fe17bf;"></path><path d="M67.45550992514677,195.55555555555554h5v4.444444444444457h-5Z" style="fill: #fe17bf;"></path><path d="M100.02224503810245,193.33333333333334h5v6.666666666666657h-5Z" style="fill: #fe17bf;"></path><path d="M132.50000000047632,186.66666666666666h5v8.888888888888886h-5Z" style="fill: #fe17bf;"></path><path d="M164.97775496285016,155.55555555555554h5v17.7777777777778h-5Z" style="fill: #fe17bf;"></path><path d="M197.45550992522402,135.55555555555554h5v20h-5Z" style="fill: #fe17bf;"></path><path d="M230.02224503817968,115.55555555555556h5v22.222222222222214h-5Z" style="fill: #fe17bf;"></path><path d="M262.50000000055354,95.55555555555554h5v24.444444444444457h-5Z" style="fill: #fe17bf;"></path><path d="M294.9777549629274,77.77777777777777h5v24.444444444444457h-5Z" style="fill: #fe17bf;"></path><path d="M327.4555099253012,46.66666666666666h5v35.55555555555556h-5Z" style="fill: #fe17bf;"></path><path d="M360.0222450382569,26.666666666666657h5v35.55555555555557h-5Z" style="fill: #fe17bf;"></path><path d="M392.5000000006308,2.2222222222222285h5v37.77777777777777h-5Z" style="fill: #fe17bf;"></path><path d="M2.500000000399072,200h5v0h-5Z" style="fill: #3364c0;"></path><path d="M34.97775496277292,200h5v0h-5Z" style="fill: #3364c0;"></path><path d="M67.45550992514677,200h5v0h-5Z" style="fill: #3364c0;"></path><path d="M100.02224503810245,200h5v0h-5Z" style="fill: #3364c0;"></path><path d="M132.50000000047632,195.55555555555554h5v0h-5Z" style="fill: #3364c0;"></path><path d="M164.97775496285016,173.33333333333334h5v8.888888888888886h-5Z" style="fill: #3364c0;"></path><path d="M197.45550992522402,155.55555555555554h5v13.333333333333343h-5Z" style="fill: #3364c0;"></path><path d="M230.02224503817968,137.77777777777777h5v17.77777777777777h-5Z" style="fill: #3364c0;"></path><path d="M262.50000000055354,120h5v22.22222222222223h-5Z" style="fill: #3364c0;"></path><path d="M294.9777549629274,102.22222222222223h5v26.666666666666657h-5Z" style="fill: #3364c0;"></path><path d="M327.4555099253012,82.22222222222221h5v31.111111111111114h-5Z" style="fill: #3364c0;"></path><path d="M360.0222450382569,62.22222222222223h5v35.55555555555556h-5Z" style="fill: #3364c0;"></path><path d="M392.5000000006308,40h5v40h-5Z" style="fill: #3364c0;"></path><path d="M2.500000000399072,200h5v0h-5Z" style="fill: #27bdce;"></path><path d="M34.97775496277292,200h5v0h-5Z" style="fill: #27bdce;"></path><path d="M67.45550992514677,200h5v0h-5Z" style="fill: #27bdce;"></path><path d="M100.02224503810245,200h5v0h-5Z" style="fill: #27bdce;"></path><path d="M132.50000000047632,195.55555555555554h5v4.444444444444457h-5Z" style="fill: #27bdce;"></path><path d="M164.97775496285016,182.22222222222223h5v17.77777777777777h-5Z" style="fill: #27bdce;"></path><path d="M197.45550992522402,168.88888888888889h5v31.111111111111114h-5Z" style="fill: #27bdce;"></path><path d="M230.02224503817968,155.55555555555554h5v44.44444444444446h-5Z" style="fill: #27bdce;"></path><path d="M262.50000000055354,142.22222222222223h5v57.77777777777777h-5Z" style="fill: #27bdce;"></path><path d="M294.9777549629274,128.88888888888889h5v71.11111111111111h-5Z" style="fill: #27bdce;"></path><path d="M327.4555099253012,113.33333333333333h5v86.66666666666667h-5Z" style="fill: #27bdce;"></path><path d="M360.0222450382569,97.77777777777779h5v102.22222222222221h-5Z" style="fill: #27bdce;"></path><path d="M392.5000000006308,80h5v120h-5Z" style="fill: #27bdce;"></path></g><g class="mark-group role-legend"><g transform="translate(418,0)"><path class="background" d="M0,0h53v56h-53Z" style="pointer-events: none; fill: none;"></path><g><g class="mark-group role-legend-entry"><g transform="translate(0,16)"><path class="background" d="M0,0h0v0h0Z" style="pointer-events: none; fill: none;"></path><g><g class="mark-group role-scope"><g transform="translate(0,0)"><path class="background" d="M0,0h49v12h-49Z" style="pointer-events: none; fill: none; opacity: 1;"></path><g><g class="mark-symbol role-legend-symbol" style="pointer-events: none;"><path transform="translate(6,6)" d="M-5,-5h10v10h-10Z" style="fill: #fe17bf; stroke-width: 1.5; opacity: 1;"></path></g><g class="mark-text role-legend-label" style="pointer-events: none;"><text text-anchor="start" transform="translate(16,9)" style="font-family: sans-serif; font-size: 10px; fill: #000; opacity: 1;">AMZN</text></g></g></g><g transform="translate(0,14)"><path class="background" d="M0,0h49v12h-49Z" style="pointer-events: none; fill: none; opacity: 1;"></path><g><g class="mark-symbol role-legend-symbol" style="pointer-events: none;"><path transform="translate(6,6)" d="M-5,-5h10v10h-10Z" style="fill: #3364c0; stroke-width: 1.5; opacity: 1;"></path></g><g class="mark-text role-legend-label" style="pointer-events: none;"><text text-anchor="start" transform="translate(16,9)" style="font-family: sans-serif; font-size: 10px; fill: #000; opacity: 1;">GOOG</text></g></g></g><g transform="translate(0,28)"><path class="background" d="M0,0h49v12h-49Z" style="pointer-events: none; fill: none; opacity: 1;"></path><g><g class="mark-symbol role-legend-symbol" style="pointer-events: none;"><path transform="translate(6,6)" d="M-5,-5h10v10h-10Z" style="fill: #27bdce; stroke-width: 1.5; opacity: 1;"></path></g><g class="mark-text role-legend-label" style="pointer-events: none;"><text text-anchor="start" transform="translate(16,9)" style="font-family: sans-serif; font-size: 10px; fill: #000; opacity: 1;">MSFT</text></g></g></g></g></g></g></g><g class="mark-text role-legend-title" style="pointer-events: none;"><text text-anchor="start" transform="translate(0,9)" style="font-family: sans-serif; font-size: 11px; font-weight: bold; fill: #000; opacity: 1;">symbol</text></g></g></g></g><g class="mark-group role-axis"><g transform="translate(0.5,200.5)"><path class="background" d="M0,0h0v0h0Z" style="pointer-events: none; fill: none;"></path><g><g class="mark-rule role-axis-tick" style="pointer-events: none;"><line transform="translate(5,0)" x2="0" y2="5" style="fill: none; stroke: #888; stroke-width: 1; opacity: 1;"></line><line transform="translate(37,0)" x2="0" y2="5" style="fill: none; stroke: #888; stroke-width: 1; opacity: 1;"></line><line transform="translate(70,0)" x2="0" y2="5" style="fill: none; stroke: #888; stroke-width: 1; opacity: 1;"></line><line transform="translate(103,0)" x2="0" y2="5" style="fill: none; stroke: #888; stroke-width: 1; opacity: 1;"></line><line transform="translate(135,0)" x2="0" y2="5" style="fill: none; stroke: #888; stroke-width: 1; opacity: 1;"></line><line transform="translate(167,0)" x2="0" y2="5" style="fill: none; stroke: #888; stroke-width: 1; opacity: 1;"></line><line transform="translate(200,0)" x2="0" y2="5" style="fill: none; stroke: #888; stroke-width: 1; opacity: 1;"></line><line transform="translate(233,0)" x2="0" y2="5" style="fill: none; stroke: #888; stroke-width: 1; opacity: 1;"></line><line transform="translate(265,0)" x2="0" y2="5" style="fill: none; stroke: #888; stroke-width: 1; opacity: 1;"></line><line transform="translate(297,0)" x2="0" y2="5" style="fill: none; stroke: #888; stroke-width: 1; opacity: 1;"></line><line transform="translate(330,0)" x2="0" y2="5" style="fill: none; stroke: #888; stroke-width: 1; opacity: 1;"></line><line transform="translate(363,0)" x2="0" y2="5" style="fill: none; stroke: #888; stroke-width: 1; opacity: 1;"></line><line transform="translate(395,0)" x2="0" y2="5" style="fill: none; stroke: #888; stroke-width: 1; opacity: 1;"></line></g><g class="mark-text role-axis-label" style="pointer-events: none;"><text text-anchor="middle" transform="translate(5.000000000399072,21)" style="font-family: sans-serif; font-size: 18px; fill: #000; opacity: 1;">2006</text><text text-anchor="middle" transform="translate(37.47775496277292,21)" style="font-family: sans-serif; font-size: 18px; fill: #000; opacity: 0;">2007</text><text text-anchor="middle" transform="translate(69.95550992514677,21)" style="font-family: sans-serif; font-size: 18px; fill: #000; opacity: 1;">2008</text><text text-anchor="middle" transform="translate(102.52224503810245,21)" style="font-family: sans-serif; font-size: 18px; fill: #000; opacity: 0;">2009</text><text text-anchor="middle" transform="translate(135.00000000047632,21)" style="font-family: sans-serif; font-size: 18px; fill: #000; opacity: 1;">2010</text><text text-anchor="middle" transform="translate(167.47775496285016,21)" style="font-family: sans-serif; font-size: 18px; fill: #000; opacity: 0;">2011</text><text text-anchor="middle" transform="translate(199.95550992522402,21)" style="font-family: sans-serif; font-size: 18px; fill: #000; opacity: 1;">2012</text><text text-anchor="middle" transform="translate(232.52224503817968,21)" style="font-family: sans-serif; font-size: 18px; fill: #000; opacity: 0;">2013</text><text text-anchor="middle" transform="translate(265.00000000055354,21)" style="font-family: sans-serif; font-size: 18px; fill: #000; opacity: 1;">2014</text><text text-anchor="middle" transform="translate(297.4777549629274,21)" style="font-family: sans-serif; font-size: 18px; fill: #000; opacity: 0;">2015</text><text text-anchor="middle" transform="translate(329.9555099253012,21)" style="font-family: sans-serif; font-size: 18px; fill: #000; opacity: 1;">2016</text><text text-anchor="middle" transform="translate(362.5222450382569,21)" style="font-family: sans-serif; font-size: 18px; fill: #000; opacity: 0;">2017</text><text text-anchor="middle" transform="translate(395.0000000006308,21)" style="font-family: sans-serif; font-size: 18px; fill: #000; opacity: 1;">2018</text></g><g class="mark-rule role-axis-domain" style="pointer-events: none;"><line transform="translate(0,0)" x2="400" y2="0" style="fill: none; stroke: #888; stroke-width: 1; opacity: 1;"></line></g><g class="mark-text role-axis-title" style="pointer-events: none;"><text text-anchor="middle" transform="translate(200,44)" style="font-family: sans-serif; font-size: 18px; font-weight: bold; fill: #000; opacity: 1;">date (year)</text></g></g></g></g><g class="mark-group role-axis"><g transform="translate(0.5,0.5)"><path class="background" d="M0,0h0v0h0Z" style="pointer-events: none; fill: none;"></path><g><g class="mark-rule role-axis-tick" style="pointer-events: none;"><line transform="translate(0,200)" x2="-5" y2="0" style="fill: none; stroke: #888; stroke-width: 1; opacity: 1;"></line><line transform="translate(0,156)" x2="-5" y2="0" style="fill: none; stroke: #888; stroke-width: 1; opacity: 1;"></line><line transform="translate(0,111)" x2="-5" y2="0" style="fill: none; stroke: #888; stroke-width: 1; opacity: 1;"></line><line transform="translate(0,67)" x2="-5" y2="0" style="fill: none; stroke: #888; stroke-width: 1; opacity: 1;"></line><line transform="translate(0,22)" x2="-5" y2="0" style="fill: none; stroke: #888; stroke-width: 1; opacity: 1;"></line></g><g class="mark-text role-axis-label" style="pointer-events: none;"><text text-anchor="end" transform="translate(-7,205)" style="font-family: sans-serif; font-size: 18px; fill: #000; opacity: 1;">0</text><text text-anchor="end" transform="translate(-7,160.55555555555554)" style="font-family: sans-serif; font-size: 18px; fill: #000; opacity: 1;">20</text><text text-anchor="end" transform="translate(-7,116.11111111111111)" style="font-family: sans-serif; font-size: 18px; fill: #000; opacity: 1;">40</text><text text-anchor="end" transform="translate(-7,71.66666666666669)" style="font-family: sans-serif; font-size: 18px; fill: #000; opacity: 1;">60</text><text text-anchor="end" transform="translate(-7,27.22222222222223)" style="font-family: sans-serif; font-size: 18px; fill: #000; opacity: 1;">80</text></g><g class="mark-rule role-axis-domain" style="pointer-events: none;"><line transform="translate(0,200)" x2="0" y2="-200" style="fill: none; stroke: #888; stroke-width: 1; opacity: 1;"></line></g><g class="mark-text role-axis-title" style="pointer-events: none;"><text text-anchor="middle" transform="translate(-40,100) rotate(-90) translate(0,-4)" style="font-family: sans-serif; font-size: 18px; font-weight: bold; fill: #000; opacity: 1;">Regions</text></g></g></g></g></g></g></g></g></svg>