<svg xmlns="http://www.w3.org/2000/svg" width="196pt" height="240" version="1.1" viewBox="0 0 196 180">
    <g id="surface49">
        <path fill="#fff" fill-opacity="1" fill-rule="nonzero" stroke="none" d="M4.5 8h202.86v192H4.5V8m28.98 38.398V200M62.46 8v192M91.442 8v192m28.98-192v153.602M149.399 8v153.602M178.378 8v153.602M4.5 46.398h202.86M4.5 84.801h202.86M4.5 123.199h202.86M4.5 161.602h202.86M149.397 8l28.98 38.398m-28.98 0l28.98 38.403m-28.98 0l28.98 38.398m-28.98 0l28.98 38.403m0-153.602l28.981 38.398m-28.98 0l28.98 38.403m-28.98 0l28.98 38.398m-28.98 0l28.98 38.403M4.5 8zm0 0" transform="scale(.75)"/>
        <path fill="none" stroke="#000" stroke-linecap="butt" stroke-linejoin="miter" stroke-miterlimit="10" stroke-opacity="1" stroke-width="1.5" d="M5.926 5.464c54.736 4.693 110.122 1.593 148.855-.36M4.014 6.788c34.025.166 68.215.237 152.862-.08m-1.318-2.027c1.47 30.258 3.978 64.201.172 146.69m.85-145.86c.311 30.72-.14 58.417-.123 145.742m2.174-1.752c-51.568-1.151-104.056.32-153.979.161m152.444.727c-54.25.34-105.61-.882-153.109-.062m.72-1.558c-2.24-48.8-1.18-102.55-.471-142.007M3.083 150.21C2.17 97.11.879 44.64 3.563 5.9m21.882 29.693c-.243 25.198-2.274 52.028-3.915 112.52m.947-112.934c2.76 25.72 1.33 52.36 1.511 115.817m23.11-143.98c-.495 49.052 1.213 96.73-3.346 145.618m.935-145.217c-.452 31.187-.176 59.874 1.89 144.946M68.139 5.628c-.276 57.512-.044 113.176 1.35 144.66m.156-143.36c-.495 41.547.384 85.99-.316 142.632M94.125 7.655C92.127 30.46 91.04 55.714 91.506 123.58M92.734 8.476c.304 24.006-1.04 49.88-.098 115.67M111.962 6.54c2.115 21.037.735 46.162-.102 114.02m1.185-113.555c-1.992 47.01-1.842 91.037-.597 114.114M136.175 7.06c.451 24.674-.51 53.112-1.682 118.158m.891-117.677c-.782 34.535.66 67.145-.052 114.987M2.396 32.974c31.62-1.51 65.388.304 150.744.363M3.068 33.328c45.337 1.46 90.28 1.043 152.355-.176M4.436 61.438c38.493 4.236 82.734 4.283 151.386 1.172M3.7 62.153c38.452 2.127 77.272 1.043 152.51.735M3.554 92.461c57.1 3.37 118.02 2.004 151.494.305m-150.759.531c52.3-2.11 103.808-1.48 152.355.09M4.12 119.359c51.504 3.108 101.171.812 151.146.694m-150.955.982c39.5-1.81 80.235-2.241 151.72-.323M109.845 8.13c5.145 6.671 14.23 14.707 23.777 26.889M110.415 8.464c5.804 6.521 10.881 12.931 22.576 29.332m-21.773-1.567c4.482 7.034 9.22 15.11 18.213 29.75m-19.395-27.354c5.367 8.98 13.398 18.498 22.032 28.646m-19.39-.277c3.613 6.623 8.298 12.497 21.97 27.752m-23.01-26.42c7.641 9.592 14.339 18.542 21.355 27.176m-20.487 1.4c5.903 4.515 10.854 13.58 19.245 28.617m-20.66-29.548c7.71 7.635 13.397 14.964 23.287 27.427M133.193 8.356c6.624 6.155 11.657 12.758 23.425 27.858M136.116 10.23c4.445 5.082 10.943 10.567 20.423 27.015m-21.852-.842c7.614 9.278 9.301 12.472 21.624 29.312m-20.505-28.407c5.294 6.437 9.914 13.958 20.484 29.543m-20.537-.665c4.14 7.574 7.845 14.27 22.585 31.149m-24.422-29.842c10.664 10.57 19.269 22.5 23.4 27.873m-20.588.03c5.678 10.027 13.295 20.384 20.116 28.751m-20.285-29.66c5.013 9.208 13.778 16.98 21.146 29.092M3.158 5.222c.519.414 1.032 1.132 1.307 1.088M3.352 5.39c.331.234.738.712 1.272.999"/>
    </g>
    <defs xmlns="http://www.w3.org/2000/svg">
        <filter id="dsFilterNoBlur" width="150%" height="150%">
            <feOffset dx="3" dy="3" in="SourceGraphic" result="offOut"/>
            <feColorMatrix in="offOut" result="matrixOut" type="matrix" values="0.2 0 0 0 0 0 0.2 0 0 0 0 0 0.2 0 0 0 0 0 1 0"/>
            <feBlend in="SourceGraphic" in2="matrixOut" mode="normal"/>
        </filter>
        <filter id="dsFilter" width="150%" height="150%">
            <feOffset dx="3" dy="3" in="SourceGraphic" result="offOut"/>
            <feColorMatrix in="offOut" result="matrixOut" type="matrix" values="0.2 0 0 0 0 0 0.2 0 0 0 0 0 0.2 0 0 0 0 0 1 0"/>
            <feGaussianBlur in="matrixOut" result="blurOut" stdDeviation="3"/>
            <feBlend in="SourceGraphic" in2="blurOut" mode="normal"/>
        </filter>
        <marker id="iPointer-rdyl5zcg8dh" fill="#000" markerHeight="7" markerUnits="strokeWidth" markerWidth="8" orient="auto" refX="5" refY="5" viewBox="0 0 10 10">
            <path d="M10 0v10L0 5z"/>
        </marker>
        <marker id="Pointer-rdyl5zcg8dh" fill="#000" markerHeight="7" markerUnits="strokeWidth" markerWidth="8" orient="auto" refX="5" refY="5" viewBox="0 0 10 10">
            <path d="M0 0l10 5-10 5z"/>
        </marker>
    </defs>
    <defs>
        <style type="text/css">
            @font-face{font-family:&quot;xkcd Script&quot;;src:url(./xkcd-script.ttf)}
        </style>
    </defs>
    ??
</svg>
