<svg xmlns="http://www.w3.org/2000/svg" width="284pt" height="240" version="1.1" viewBox="0 0 284 180">
    <path id="surface513" fill="none" stroke="#fff" stroke-linecap="butt" stroke-linejoin="miter" stroke-miterlimit="10" stroke-opacity="1" stroke-width="2" d="M168.094 27.797c-24.93 2.027-50.95 17.328-47.461 40.937m49.707-43.586c-32 .122-50.29 20.23-54.102 39.622m0 0c1.852 27.597 25.465 45.578 50.871 43.933M116.668 65.47c-.41 22.61 21.465 39.945 49.156 45.347m0 0c30.778-4.336 53.863-23.515 50.41-41.382m-49.785 41.058c28.742-.199 49.59-23.297 51.692-45.62m0 0c1.457-17.196-24.215-34.302-49.739-34.923m48.477 36.38c.887-18.22-21.574-36.755-51.203-39.614m-.336-2.762c-24.77 1.156-38.5 15.867-38.485 40.094m40.122-40.41c-21.7 2.812-44.07 18.715-39.247 42.289m0 0c-4.418 21.414 17.133 39.816 38.942 39.554M130.164 63.5c-2.336 20.352 11.223 38.527 34.7 39.668m0 0c20.796 1.988 38.605-15.7 41.476-39.234m-39.102 41.851c19.977-3.57 40.598-22.844 38.414-39.937m0 0c2.5-22.414-19.996-43.024-41.828-43.98m43.2 42.027c.648-18.375-20.747-36.434-43.731-39.532M163 26.156c-17.7-.035-28.688 20.242-26.988 42.309m29.047-44.79c-20.239 5.387-34.782 19.106-30.403 39.583m0 0c-1.324 22.613 14.946 44.023 27.805 43.625M135.402 63.52c-1.285 23.257 10.68 40.386 31.118 42.75m0 0c15.117.347 26.964-17.829 28.578-41.27m-27.743 39.438c10.637.808 26.965-12.704 27.836-35.512m0 0c1.149-21.781-17.433-43.844-30.68-44.469m29.727 46.844c-1.394-27.567-11.496-46.172-30.754-44.121m-.449-2.477c-9.898 1.906-17.969 15.797-19.37 43.09m17.452-41.856c-9.074.133-21.215 17.29-16.594 42.516m0 0c-.785 21.414 6.395 37.184 17.747 36.16m-16.65-36.375c-2.601 21.18 10.383 38.16 16.027 39.825m0 0c11.461-5.512 22.891-22.5 20.114-40.676m-17.575 43.293c9.391-5.176 17.708-20.993 16.68-46.844m0 0c4.332-22.133-3.144-39.094-18.847-38.332m18.492 39.789c.218-19.781-3.668-37.324-17.496-42m-1.95-1.691c-7.902 3.742-10.812 18.789-10.332 39.757m9.09-40.93c-3.695-.663-9.336 20.329-10.797 43.368m0 0c3.528 18.918 8.325 36.781 14.29 39.363m-13.782-41.44c1.785 20.945 5.61 37.035 13.8 37.324m0 0c2.04.484 10.767-12.906 9.54-34.766m-6.805 35.477c-.16 3.676 7.211-17.164 5.426-38.746m0 0c.117-21.805-1.547-37.684-9.219-38.164m9.813 39.914c1.937-22.348-6.692-41.906-7.195-44.016"/>
    <defs xmlns="http://www.w3.org/2000/svg">
        <filter id="dsFilterNoBlur" width="150%" height="150%">
            <feOffset dx="3" dy="3" in="SourceGraphic" result="offOut"/>
            <feColorMatrix in="offOut" result="matrixOut" type="matrix" values="0.2 0 0 0 0 0 0.2 0 0 0 0 0 0.2 0 0 0 0 0 1 0"/>
            <feBlend in="SourceGraphic" in2="matrixOut" mode="normal"/>
        </filter>
        <filter id="dsFilter" width="150%" height="150%">
            <feOffset dx="3" dy="3" in="SourceGraphic" result="offOut"/>
            <feColorMatrix in="offOut" result="matrixOut" type="matrix" values="0.2 0 0 0 0 0 0.2 0 0 0 0 0 0.2 0 0 0 0 0 1 0"/>
            <feGaussianBlur in="matrixOut" result="blurOut" stdDeviation="3"/>
            <feBlend in="SourceGraphic" in2="blurOut" mode="normal"/>
        </filter>
        <marker id="iPointer-noui2sgu0nf" fill="#000" markerHeight="7" markerUnits="strokeWidth" markerWidth="8" orient="auto" refX="5" refY="5" viewBox="0 0 10 10">
            <path d="M10 0v10L0 5z"/>
        </marker>
        <marker id="Pointer-noui2sgu0nf" fill="#000" markerHeight="7" markerUnits="strokeWidth" markerWidth="8" orient="auto" refX="5" refY="5" viewBox="0 0 10 10">
            <path d="M0 0l10 5-10 5z"/>
        </marker>
    </defs>
    <defs>
        <style type="text/css">
            @font-face{font-family:&quot;xkcd Script&quot;;src:url(./xkcd-script.ttf)}
        </style>
    </defs>
    ??
</svg>
