<svg class="marks" width="486" height="268" viewBox="0 0 486 268" version="1.1" xmlns="http://www.w3.org/2000/svg" xmlns:xlink="http://www.w3.org/1999/xlink"><g transform="translate(66,7)"><g class="mark-group role-frame root"><g transform="translate(0,0)"><path class="background" d="M0.5,0.5h400v200h-400Z" style="fill: none; stroke: #ddd;"></path><g><g class="mark-group role-axis"><g transform="translate(0.5,200.5)"><path class="background" d="M0,0h0v0h0Z" style="pointer-events: none; fill: none;"></path><g><g class="mark-rule role-axis-grid" style="pointer-events: none;"><line transform="translate(0,-200)" x2="0" y2="200" style="fill: none; stroke: #ddd; stroke-width: 1; opacity: 1;"></line><line transform="translate(29,-200)" x2="0" y2="200" style="fill: none; stroke: #ddd; stroke-width: 1; opacity: 1;"></line><line transform="translate(57,-200)" x2="0" y2="200" style="fill: none; stroke: #ddd; stroke-width: 1; opacity: 1;"></line><line transform="translate(86,-200)" x2="0" y2="200" style="fill: none; stroke: #ddd; stroke-width: 1; opacity: 1;"></line><line transform="translate(114,-200)" x2="0" y2="200" style="fill: none; stroke: #ddd; stroke-width: 1; opacity: 1;"></line><line transform="translate(143,-200)" x2="0" y2="200" style="fill: none; stroke: #ddd; stroke-width: 1; opacity: 1;"></line><line transform="translate(171,-200)" x2="0" y2="200" style="fill: none; stroke: #ddd; stroke-width: 1; opacity: 1;"></line><line transform="translate(200,-200)" x2="0" y2="200" style="fill: none; stroke: #ddd; stroke-width: 1; opacity: 1;"></line><line transform="translate(229,-200)" x2="0" y2="200" style="fill: none; stroke: #ddd; stroke-width: 1; opacity: 1;"></line><line transform="translate(257,-200)" x2="0" y2="200" style="fill: none; stroke: #ddd; stroke-width: 1; opacity: 1;"></line><line transform="translate(286,-200)" x2="0" y2="200" style="fill: none; stroke: #ddd; stroke-width: 1; opacity: 1;"></line><line transform="translate(314,-200)" x2="0" y2="200" style="fill: none; stroke: #ddd; stroke-width: 1; opacity: 1;"></line><line transform="translate(343,-200)" x2="0" y2="200" style="fill: none; stroke: #ddd; stroke-width: 1; opacity: 1;"></line><line transform="translate(371,-200)" x2="0" y2="200" style="fill: none; stroke: #ddd; stroke-width: 1; opacity: 1;"></line><line transform="translate(400,-200)" x2="0" y2="200" style="fill: none; stroke: #ddd; stroke-width: 1; opacity: 1;"></line></g></g></g></g><g class="mark-group role-axis"><g transform="translate(0.5,0.5)"><path class="background" d="M0,0h0v0h0Z" style="pointer-events: none; fill: none;"></path><g><g class="mark-rule role-axis-grid" style="pointer-events: none;"><line transform="translate(0,200)" x2="400" y2="0" style="fill: none; stroke: #ddd; stroke-width: 1; opacity: 1;"></line><line transform="translate(0,155)" x2="400" y2="0" style="fill: none; stroke: #ddd; stroke-width: 1; opacity: 1;"></line><line transform="translate(0,109)" x2="400" y2="0" style="fill: none; stroke: #ddd; stroke-width: 1; opacity: 1;"></line><line transform="translate(0,64)" x2="400" y2="0" style="fill: none; stroke: #ddd; stroke-width: 1; opacity: 1;"></line><line transform="translate(0,18)" x2="400" y2="0" style="fill: none; stroke: #ddd; stroke-width: 1; opacity: 1;"></line></g></g></g></g><g class="mark-line role-mark marks"><path d="M400,200L371.42857142857144,109.0909090909091L342.85714285714283,90.90909090909092L314.2857142857143,90.90909090909092L285.7142857142857,90.90909090909092L257.14285714285717,63.636363636363654L228.57142857142856,45.45454545454547L200,36.363636363636346L171.42857142857142,9.090909090909093L142.85714285714286,36.363636363636346L114.28571428571428,18.181818181818187L85.71428571428571,18.181818181818187L57.14285714285714,18.181818181818187L28.57142857142857,9.090909090909093L0,0" style="fill: none; stroke: #ef5ba1; stroke-width: 2;"></path></g><g class="mark-group role-axis"><g transform="translate(0.5,200.5)"><path class="background" d="M0,0h0v0h0Z" style="pointer-events: none; fill: none;"></path><g><g class="mark-rule role-axis-tick" style="pointer-events: none;"><line transform="translate(0,0)" x2="0" y2="5" style="fill: none; stroke: #888; stroke-width: 1; opacity: 1;"></line><line transform="translate(29,0)" x2="0" y2="5" style="fill: none; stroke: #888; stroke-width: 1; opacity: 1;"></line><line transform="translate(57,0)" x2="0" y2="5" style="fill: none; stroke: #888; stroke-width: 1; opacity: 1;"></line><line transform="translate(86,0)" x2="0" y2="5" style="fill: none; stroke: #888; stroke-width: 1; opacity: 1;"></line><line transform="translate(114,0)" x2="0" y2="5" style="fill: none; stroke: #888; stroke-width: 1; opacity: 1;"></line><line transform="translate(143,0)" x2="0" y2="5" style="fill: none; stroke: #888; stroke-width: 1; opacity: 1;"></line><line transform="translate(171,0)" x2="0" y2="5" style="fill: none; stroke: #888; stroke-width: 1; opacity: 1;"></line><line transform="translate(200,0)" x2="0" y2="5" style="fill: none; stroke: #888; stroke-width: 1; opacity: 1;"></line><line transform="translate(229,0)" x2="0" y2="5" style="fill: none; stroke: #888; stroke-width: 1; opacity: 1;"></line><line transform="translate(257,0)" x2="0" y2="5" style="fill: none; stroke: #888; stroke-width: 1; opacity: 1;"></line><line transform="translate(286,0)" x2="0" y2="5" style="fill: none; stroke: #888; stroke-width: 1; opacity: 1;"></line><line transform="translate(314,0)" x2="0" y2="5" style="fill: none; stroke: #888; stroke-width: 1; opacity: 1;"></line><line transform="translate(343,0)" x2="0" y2="5" style="fill: none; stroke: #888; stroke-width: 1; opacity: 1;"></line><line transform="translate(371,0)" x2="0" y2="5" style="fill: none; stroke: #888; stroke-width: 1; opacity: 1;"></line><line transform="translate(400,0)" x2="0" y2="5" style="fill: none; stroke: #888; stroke-width: 1; opacity: 1;"></line></g><g class="mark-text role-axis-label" style="pointer-events: none;"><text text-anchor="middle" transform="translate(0,21)" style="font-family: sans-serif; font-size: 18px; fill: #000; opacity: 1;">0</text><text text-anchor="middle" transform="translate(28.57142857142857,21)" style="font-family: sans-serif; font-size: 18px; fill: #000; opacity: 0;">1</text><text text-anchor="middle" transform="translate(57.14285714285714,21)" style="font-family: sans-serif; font-size: 18px; fill: #000; opacity: 1;">2</text><text text-anchor="middle" transform="translate(85.71428571428571,21)" style="font-family: sans-serif; font-size: 18px; fill: #000; opacity: 0;">3</text><text text-anchor="middle" transform="translate(114.28571428571428,21)" style="font-family: sans-serif; font-size: 18px; fill: #000; opacity: 1;">4</text><text text-anchor="middle" transform="translate(142.85714285714286,21)" style="font-family: sans-serif; font-size: 18px; fill: #000; opacity: 0;">5</text><text text-anchor="middle" transform="translate(171.42857142857142,21)" style="font-family: sans-serif; font-size: 18px; fill: #000; opacity: 1;">6</text><text text-anchor="middle" transform="translate(200,21)" style="font-family: sans-serif; font-size: 18px; fill: #000; opacity: 0;">7</text><text text-anchor="middle" transform="translate(228.57142857142856,21)" style="font-family: sans-serif; font-size: 18px; fill: #000; opacity: 1;">8</text><text text-anchor="middle" transform="translate(257.14285714285717,21)" style="font-family: sans-serif; font-size: 18px; fill: #000; opacity: 0;">9</text><text text-anchor="middle" transform="translate(285.7142857142857,21)" style="font-family: sans-serif; font-size: 18px; fill: #000; opacity: 1;">10</text><text text-anchor="middle" transform="translate(314.2857142857143,21)" style="font-family: sans-serif; font-size: 18px; fill: #000; opacity: 0;">11</text><text text-anchor="middle" transform="translate(342.85714285714283,21)" style="font-family: sans-serif; font-size: 18px; fill: #000; opacity: 1;">12</text><text text-anchor="middle" transform="translate(371.42857142857144,21)" style="font-family: sans-serif; font-size: 18px; fill: #000; opacity: 0;">13</text><text text-anchor="middle" transform="translate(400,21)" style="font-family: sans-serif; font-size: 18px; fill: #000; opacity: 1;">14</text></g><g class="mark-rule role-axis-domain" style="pointer-events: none;"><line transform="translate(0,0)" x2="400" y2="0" style="fill: none; stroke: #888; stroke-width: 1; opacity: 1;"></line></g><g class="mark-text role-axis-title" style="pointer-events: none;"><text text-anchor="middle" transform="translate(200,49)" style="font-family: sans-serif; font-size: 24px; font-weight: bold; fill: #000; opacity: 1;">X</text></g></g></g></g><g class="mark-group role-axis"><g transform="translate(0.5,0.5)"><path class="background" d="M0,0h0v0h0Z" style="pointer-events: none; fill: none;"></path><g><g class="mark-rule role-axis-tick" style="pointer-events: none;"><line transform="translate(0,200)" x2="-5" y2="0" style="fill: none; stroke: #888; stroke-width: 1; opacity: 1;"></line><line transform="translate(0,155)" x2="-5" y2="0" style="fill: none; stroke: #888; stroke-width: 1; opacity: 1;"></line><line transform="translate(0,109)" x2="-5" y2="0" style="fill: none; stroke: #888; stroke-width: 1; opacity: 1;"></line><line transform="translate(0,64)" x2="-5" y2="0" style="fill: none; stroke: #888; stroke-width: 1; opacity: 1;"></line><line transform="translate(0,18)" x2="-5" y2="0" style="fill: none; stroke: #888; stroke-width: 1; opacity: 1;"></line></g><g class="mark-text role-axis-label" style="pointer-events: none;"><text text-anchor="end" transform="translate(-7,205)" style="font-family: sans-serif; font-size: 18px; fill: #000; opacity: 1;">0</text><text text-anchor="end" transform="translate(-7,159.54545454545456)" style="font-family: sans-serif; font-size: 18px; fill: #000; opacity: 1;">5</text><text text-anchor="end" transform="translate(-7,114.0909090909091)" style="font-family: sans-serif; font-size: 18px; fill: #000; opacity: 1;">10</text><text text-anchor="end" transform="translate(-7,68.63636363636365)" style="font-family: sans-serif; font-size: 18px; fill: #000; opacity: 1;">15</text><text text-anchor="end" transform="translate(-7,23.181818181818187)" style="font-family: sans-serif; font-size: 18px; fill: #000; opacity: 1;">20</text></g><g class="mark-rule role-axis-domain" style="pointer-events: none;"><line transform="translate(0,200)" x2="0" y2="-200" style="fill: none; stroke: #888; stroke-width: 1; opacity: 1;"></line></g><g class="mark-text role-axis-title" style="pointer-events: none;"><text text-anchor="middle" transform="translate(-40,95)" style="font-family: sans-serif; font-size: 24px; font-weight: bold; fill: #000; opacity: 1;">Y</text></g></g></g></g></g></g></g></g></svg>