<svg xmlns="http://www.w3.org/2000/svg" width="439pt" height="336" version="1.1" viewBox="0 0 439 252">
    <g id="surface469">
        <path fill="#000" fill-opacity="1" fill-rule="nonzero" stroke="none" d="M4.5 8h567v288H4.5zm0 0" transform="scale(.75)"/>
        <path fill="none" stroke="#fff" stroke-linecap="butt" stroke-linejoin="miter" stroke-miterlimit="10" stroke-opacity="1" stroke-width="1.5" d="M5.926 5.464c156.572 8.223 313.794 5.124 421.958-.36M4.014 6.788c94.54-.492 189.24-.423 425.968-.08m-1.319-2.027c2.34 43.46 4.849 93.31.173 218.69m.847-217.86c.536 44.923.087 87.262-.12 217.742m2.173-1.752c-141.949-1.151-284.82.32-427.084.161m425.55.727c-148.34.34-293.787-.882-426.215-.061m.72-1.56c-2.314-74.117-.828-153.194.725-213.56M3.082 222.21C1.736 143.042.877 64.52 4.759 6.346"/>
    </g>
    <defs xmlns="http://www.w3.org/2000/svg">
        <filter id="dsFilterNoBlur" width="150%" height="150%">
            <feOffset dx="3" dy="3" in="SourceGraphic" result="offOut"/>
            <feColorMatrix in="offOut" result="matrixOut" type="matrix" values="0.2 0 0 0 0 0 0.2 0 0 0 0 0 0.2 0 0 0 0 0 1 0"/>
            <feBlend in="SourceGraphic" in2="matrixOut" mode="normal"/>
        </filter>
        <filter id="dsFilter" width="150%" height="150%">
            <feOffset dx="3" dy="3" in="SourceGraphic" result="offOut"/>
            <feColorMatrix in="offOut" result="matrixOut" type="matrix" values="0.2 0 0 0 0 0 0.2 0 0 0 0 0 0.2 0 0 0 0 0 1 0"/>
            <feGaussianBlur in="matrixOut" result="blurOut" stdDeviation="3"/>
            <feBlend in="SourceGraphic" in2="blurOut" mode="normal"/>
        </filter>
        <marker id="iPointer-4136uyda3ro" fill="#000" markerHeight="7" markerUnits="strokeWidth" markerWidth="8" orient="auto" refX="5" refY="5" viewBox="0 0 10 10">
            <path d="M10 0v10L0 5z"/>
        </marker>
        <marker id="Pointer-4136uyda3ro" fill="#000" markerHeight="7" markerUnits="strokeWidth" markerWidth="8" orient="auto" refX="5" refY="5" viewBox="0 0 10 10">
            <path d="M0 0l10 5-10 5z"/>
        </marker>
    </defs>
    <defs>
        <style type="text/css">
            @font-face{font-family:&quot;xkcd Script&quot;;src:url(./xkcd-script.ttf)}
        </style>
    </defs>
    ??
    <text id="text0" x="120.825" y="33.6" fill="#fff" stroke="none" font-family="xkcd Script" font-size="15">
        barbed wire
    </text>
    <text id="text1" x="255.825" y="45.6" fill="#fff" stroke="none" font-family="xkcd Script" font-size="15">
        cooling fans
    </text>
    <text id="text2" x="46.575" y="57.6" fill="#fff" stroke="none" font-family="xkcd Script" font-size="15">
        rectangular
    </text>
    <text id="text3" x="215.325" y="69.6" fill="#fff" stroke="none" font-family="xkcd Script" font-size="15">
        industrial
    </text>
    <text id="text4" x="120.825" y="81.6" fill="#fff" stroke="none" font-family="xkcd Script" font-size="15">
        warehouse
    </text>
    <text id="text5" x="282.825" y="93.6" fill="#fff" stroke="none" font-family="xkcd Script" font-size="15">
        Morlocks
    </text>
    <text id="text6" x="201.825" y="105.6" fill="#fff" stroke="none" font-family="xkcd Script" font-size="15">
        security
    </text>
    <text id="text7" x="87.075" y="117.6" fill="#fff" stroke="none" font-family="xkcd Script" font-size="15">
        rows of racks
    </text>
    <text id="text8" x="228.825" y="129.6" fill="#fff" stroke="none" font-family="xkcd Script" font-size="15">
        artificial light
    </text>
    <text id="text9" x="39.825" y="141.6" fill="#fff" stroke="none" font-family="xkcd Script" font-size="15">
        unsightly
    </text>
    <text id="text10" x="127.575" y="153.6" fill="#fff" stroke="none" font-family="xkcd Script" font-size="15">
        physical infrastructure
    </text>
    <text id="text11" x="80.325" y="165.6" fill="#fff" stroke="none" font-family="xkcd Script" font-size="15">
        box
    </text>
    <text id="text12" x="228.825" y="177.6" fill="#fff" stroke="none" font-family="xkcd Script" font-size="15">
        cables
    </text>
    <text id="text13" x="114.075" y="189.6" fill="#fff" stroke="none" font-family="xkcd Script" font-size="15">
        metal
    </text>
    <text id="text14" x="262.575" y="201.6" fill="#fff" stroke="none" font-family="xkcd Script" font-size="15">
        blinkenlights
    </text>
    <text id="text15" x="147.825" y="213.6" fill="#fff" stroke="none" font-family="xkcd Script" font-size="15">
        electric hum
    </text>
</svg>
