<svg xmlns="http://www.w3.org/2000/svg" xmlns:xlink="http://www.w3.org/1999/xlink" width="466pt" height="336" version="1.1" viewBox="0 0 466 252">
    <defs>
        <clipPath id="clip1">
            <path d="M0 0h466v252H0z"/>
        </clipPath>
        <g id="surface1052" clip-path="url(#clip1)">
            <path fill="none" stroke="#fff" stroke-linecap="butt" stroke-linejoin="miter" stroke-miterlimit="10" stroke-opacity="1" stroke-width="1" d="M4.578.855C3.398 1.348.973 4.301-.875 4.363M4.543-.078C3.141 1.188 2.379 2.46.105 5.406m17.247-7.383C8.742 3.063 3.668 8.48 1.442 17.672M15.245-.164C11.078 3.098 7.113 9.696-.964 16.05m28.19-18.735C21.375 6.827 13.246 13.44-.864 28.597m26.727-29.98C16.676 10.52 5.566 21.632.566 28.18M37.512 1.543C24.895 12.66 10.289 30.625 1.532 38.903m35.82-40.114C23.632 13.86 12.442 27.41-.984 40.797M47.94-2.23C33.086 19.457 19.578 34.02 1.321 53.266M45.476-1.043C36.574 14.082 22.44 26.23.684 52.781m59.3-54.426C47.824 14.75 34.82 30.594 1.98 64.723M58.363-1.242C41.727 17.555 24.2 38.703-1.234 65.258M65.359 2.57C51.496 21.285 32.77 43.496.098 78.531M68.73-.742C51.324 19.957 33.41 39.445.418 77.23M77.808.766C54.692 31.98 23.009 65.64 2.622 87.633M78.328.41C58.266 22.137 39.977 44.348.278 89.102M90.491 1.664C60.54 29.297 37.434 63.22 2.61 102.496M88.5-.039C58.902 34.55 29.21 66.793.55 102.43M101.599 2.734C78.102 26.461 54.39 55.09-2.141 115.871M98.668-.543C76.336 28.5 51.605 57.391-1.008 115.129M109.824-.355C71.664 44.18 29.97 87.637 1.774 128.415M109.913-.599C66.816 49.266 25.793 95.645-.62 126.34M118.598-.758C94.055 33.372 68.254 64.098-1.535 140.328M121.64-1.004C89.055 36.266 56.734 72.68.656 139.98M133.422 2.734C98.844 36.61 65.023 72.461 1.504 152.797M131.492-.828C99.692 38.55 65.523 77.336 1.132 150.168M140.665.887C92.25 59 36.414 118.609 1.242 161.37M142.625-.582C113.418 33.66 85.988 66.368.695 163.621M152.335-2.688c-49.87 62.407-100.737 117.2-154.07 176.63M152.586-.45C113.474 45.78 74.228 91.44-.71 174.82M164.41 1.835C124.008 46.613 82.941 90.648 2.656 186.613M163.957.477C104.023 65.41 48.359 129.035-.082 186.797M174.961-.34C117.35 64.414 64.297 130.094.426 197.941M173.66.336C129.215 48.69 87.95 98.488-1.344 200.758M186.883 2.496C132.903 61.965 77.449 125.824 1.887 211.617M183.25 1.102C132.516 58.484 84.582 115.465.504 213.395M192.727-.012c-57.204 67.93-114.59 134.23-194.82 222.559M194.316-.582C131.726 73.727 67.827 149.75 1.23 224.128M206-1.233C156.531 57.386 109.031 112.555.422 235.5M205.035-.61C148.602 61.56 93.672 124.853-1.328 235.837M218.535-.672C133.211 97.781 46.746 188.895-2.566 249.203M216.762-.55C151.074 71.563 91.75 139.945-1.051 248.242M225.832.79C167.137 64.91 112.352 128.145 9.766 249.453M225.796-.754c-70.124 82.281-141.48 162.805-218.21 252.48M240.296 1.083c-65.171 72.043-129.91 152.07-223.374 253.555M238.117-.535C178.605 71.48 114.992 145.328 18.473 251.238m229.03-251.3c-52.718 56.984-107.206 120.378-220.85 249.636m222-250.398C170.624 90.98 92.194 182.957 28.43 251.508M257.687 1.949c-50.812 52.899-98.16 109.008-219.195 252.602M258.637.535C196.195 72.172 132.594 145.391 38.645 251.133M269.969 2.625C201.008 77.316 135.625 150.773 50.82 249.575M269.344.53C215.543 57.027 166.746 115.101 49.078 251.79M279.781-1.73c-55.793 67.774-114.074 135.133-219.93 255.993M281.083-.336C210.148 81.812 141.859 162.902 60.266 252.875M290.71-.085C237.176 60.62 184.6 121.901 73.1 253.89M289.43 1.289C211.508 90.277 135.957 176.742 72.016 252.367M301.164-.898c-51.918 61.18-104.57 127.074-217.094 250.257M301.328.24C220.285 94.171 137.59 185.284 82.723 253.328M309.875-2.446C228.691 89.758 149.789 182.223 94.719 253.867M311.633.695C247.41 71.11 185.789 141.707 92.78 253.07M321.297.777c-77.578 86.91-149.25 169.438-217.508 253.516M322.48.07c-83.332 90.942-164.19 184.535-219.418 251.356M334.899 2.684C251.902 87.348 175.43 175.02 116.34 249.648M331.766.793c-82.254 92.77-161.407 188.219-217.45 250.484M342.36-2.403c-52.738 55.192-96.746 114.575-217.511 255.294M344.805-.723C279.879 69.824 220.918 137.88 125.754 251.191M356.105 2.516C283.937 83.078 213.75 162.023 133.512 250.359M354.195-.96c-72.246 83.2-142.058 166-218.98 253.293M361.94-.551C309.7 59.97 259.231 122.41 147.848 250.996M364.984.652c-52.289 53.692-100.523 110.106-218.57 251.426M375.543-1.656c-84.05 92.097-161.086 184.11-221.25 254.804M375.488.848c-65.07 75.226-130.758 149.25-220.308 251.691M384.824-1.199c-69.691 82.511-141.332 168.094-216.172 252.617M386.38-.559c-59.625 69.438-119.55 138.332-219.926 251.54M394.871 2.241c-47.52 56.543-105.262 123.64-215.601 251.25M397.484-.082c-49.191 56.387-96.535 110.484-218.972 252.559M407.516-1.887C332.719 84.73 262.246 170.371 187.879 251.07M406.656-.16C329.43 89.598 248.812 181.93 188.301 252.19M418.973 1.648C334.867 95.218 252.859 194.047 198.18 250.77M417.965.516C343.133 89.273 266.05 175.34 199.848 252.238M430.816-1.632c-58.418 66.237-114.109 131.448-224.152 253.82M427.961.797c-51.191 54.77-100 109.535-218.629 250.16M438.152 1.813a116901.583 116901.583 0 0 0-219.109 247.902M440.273-1.371c-75.238 89.512-150.527 176.05-219.52 252.488M452.173-2.785c-71.582 86.562-146.063 169.258-219.426 252.27M449.891-.57c-87.145 98.902-169.848 196.703-219.938 253.855M461.933-.559c-50.308 56.461-100.14 114.91-221.253 251.063M459.023.543c-89.082 100.437-173.867 199.984-218.3 252.793M463.426 3.793c-69.899 83.644-141.559 169.465-214.203 249.144m217.34-248.57c-85.438 97.887-171.293 196.867-216.2 248.727M467.7 19.504C397.937 95.883 325.11 181.25 261.105 253.387m203.696-234.91c-45.106 52.55-88.086 101.773-201.676 233.511M466.094 30.215C406.64 103.348 349.082 168.09 271.648 249.719M464.883 28.742c-58.59 69.371-119.281 142.32-192.91 222.434m194.914-210.39c-48.375 60.362-97.875 119.71-183.36 209.706M466.801 42.02c-63.867 73.335-124.184 145.453-184.582 209.96M464.016 52.227C412.09 119.257 354.18 184.64 292.652 254.25M464.707 53.895c-37.152 47.582-77.387 94.652-170.773 197.976m170.714-184.7c-39.937 47.376-85.687 104.04-161.77 186.24M467.235 65.452c-52.074 59-102.87 117.922-163.789 187.25M465.441 78.148c-32.09 42.59-64.14 81.977-149.832 174.641M465 77.813c-41.484 52.285-83.055 100.44-148.348 173.09M468.762 90.32c-47.852 50.094-92.606 102.496-141.328 161.88m137.8-160.946c-34.511 39.414-72.683 80.117-139.277 159.73m141.91-145.535c-42.992 38.996-78.336 82.758-130.512 144.895m127.356-148.375c-43.133 58.722-89.457 111.398-127.395 150.875M464.895 115.05c-41.465 54.347-89.926 107.535-118.903 136.91m118.922-137.453c-28.582 31.965-57.57 65.3-118.383 138.476m117.61-124.558c-27.473 32.437-53.368 64.699-108.871 122.176m110.699-122.098c-33.653 32.562-64.172 69.465-108.883 122.516m109.148-113.422c-30.027 32.527-61.609 71.617-98.12 115.683M466.8 140.47c-24.352 26.308-49.227 53.707-98.602 112.469m95.899-101.336c-25.067 30.253-48.758 56.488-86.989 101.472m88.95-102.527c-24.34 30.871-46.274 57.902-87.188 102.5m85.906-86.777c-12.175 20.671-27.894 38.484-77.035 85.046m77.156-86.68c-13.191 16.184-30.761 35.294-74.445 88.395m74.176-77.61c-12.129 20.563-28.918 38.231-64.707 77.95m65.023-78.351c-17.316 18.949-37.687 41.542-66.152 75.718m65.555-64.5c-12.793 9.446-21.09 21.797-51.164 64.903m53.605-62.786c-15.898 19.77-31.73 37.868-56.785 63.192m56.617-50.188c-16.258 15.04-32.68 33.383-43.516 52.16m43.77-51.972c-14.863 14.8-26.2 30.074-45.02 51.45m43.872-41.528c-9.633 18.355-23.997 29.535-31.711 42.398m33.265-42.37c-7.394 12.82-14.539 21.878-36.742 39.175m33.746-24.219c-7.781 13.082-17.05 24.113-19.25 23.95m20.555-24.895c-5.63 10.191-11.793 18.133-22.402 25.484m24.183-12.883c-5.941 3.106-6.922 4.696-15.457 12.926m15.207-13.062c-4.824-1.891-5.871 2.058-13.18 13.64m11.903-2.18c-.469-.054-.64.27-2.094 2.317m2.406-2.277c-.87-4.875-1.535-3.88-2.254 2.453"/>
        </g>
        <pattern id="pattern0" width="466" height="252" patternUnits="userSpaceOnUse">
            <use xlink:href="#surface1052"/>
        </pattern>
    </defs>
    <g id="surface1045">
        <path fill="url(#pattern0)" fill-rule="nonzero" stroke="none" d="M337.5 50c0-6.668 3.332-10 10-10h52c6.668 0 10 3.332 10 10v12c0 6.668-3.332 10-10 10h-52c-6.668 0-10-3.332-10-10zm0 0" transform="scale(.75)"/>
        <path fill="none" stroke="#000" stroke-linecap="butt" stroke-linejoin="miter" stroke-miterlimit="10" stroke-opacity="1" stroke-width="1.5" d="M251.1 36.372c.833-4.456 3.677-6.855 8.538-7.192m-8.634 8.417c.812-5.616 3.604-8.847 8.373-9.697m-1.89-.228c11.488-1.902 25.424-.153 39.37-1.348m-37.398 2.22c8.974-2.791 18.399-.922 39.7-.647m-.882-.624c4.515-.299 7.23 2.557 8.142 8.563m-8.494-5.967c4.328-2.338 7.182-.744 8.564 4.785m.685.234c.13.178-.834 3.624-.624 7.704m.56-8.259c-.343 2.321-.935 6.297-.765 9.525m.425.264c-.202 4.438-2.894 6.72-8.074 6.843m6.783-9.287c.685 6.446-2.058 10.216-8.224 11.312m-.405-.864c-12.872.931-24.536-.176-38.487 2.499m39.252-2.083c-15.624 1.875-29.068 1.823-38.525.357m-1.324 1.427c-5.315-1.623-7.538-4.207-6.671-7.752M260 53.675c-6.07.405-9.773-2.651-11.107-9.163m-.91.008c2.06-2.59 2.604-5.642 2.54-6.987m-1.673 6.773c.56-4.901 1.38-6.641 2.405-6.562"/>
        <path fill="none" stroke="#000" stroke-linecap="butt" stroke-linejoin="miter" stroke-miterlimit="10" stroke-opacity="1" stroke-width="1.5" d="M102.445 5.795c1.439 82.43 1.324 163.895-.248 207.55M102.65 5.19c-1.274 55.221-.372 112.863 1.02 207.64m.398 1.74c.405 3.895 2.373 6.581 5.9 8.061m-5.575-9.436c.126 5.707 1.881 8.625 5.262 8.757m-.673 1.192c90.582-3.44 182.82-2.55 343.197-1.372m-342.562 1.011c73.615 2.98 148.641 3.43 342.902-1.421"/>
    </g>
    <defs xmlns="http://www.w3.org/2000/svg">
        <filter id="dsFilterNoBlur" width="150%" height="150%">
            <feOffset dx="3" dy="3" in="SourceGraphic" result="offOut"/>
            <feColorMatrix in="offOut" result="matrixOut" type="matrix" values="0.2 0 0 0 0 0 0.2 0 0 0 0 0 0.2 0 0 0 0 0 1 0"/>
            <feBlend in="SourceGraphic" in2="matrixOut" mode="normal"/>
        </filter>
        <filter id="dsFilter" width="150%" height="150%">
            <feOffset dx="3" dy="3" in="SourceGraphic" result="offOut"/>
            <feColorMatrix in="offOut" result="matrixOut" type="matrix" values="0.2 0 0 0 0 0 0.2 0 0 0 0 0 0.2 0 0 0 0 0 1 0"/>
            <feGaussianBlur in="matrixOut" result="blurOut" stdDeviation="3"/>
            <feBlend in="SourceGraphic" in2="blurOut" mode="normal"/>
        </filter>
        <marker id="iPointer" fill="#000" markerHeight="7" markerUnits="strokeWidth" markerWidth="8" orient="auto" refX="5" refY="5" viewBox="0 0 10 10">
            <path d="M10 0v10L0 5z"/>
        </marker>
        <marker id="Pointer" fill="#000" markerHeight="7" markerUnits="strokeWidth" markerWidth="8" orient="auto" refX="5" refY="5" viewBox="0 0 10 10">
            <path d="M0 0l10 5-10 5z"/>
        </marker>
    </defs>
    <defs>
        <style type="text/css">
            @font-face{font-family:&quot;xkcd Script&quot;;src:url(./xkcd-script.ttf)}
        </style>
    </defs>
    <g xmlns="http://www.w3.org/2000/svg" id="lines" fill="none" stroke="#000" stroke-width="2" transform="scale(.75)">
        <g id="group321">
            <path id="path321" marker-end="url(#Pointer)" marker-start="url(#iPointer)" d="M139.5 8v278q0 10 10 10h458"/>
        </g>
    </g>
    <text id="text1" x="255.825" y="45.6" fill="#000" stroke="none" font-family="xkcd Script" font-size="15">
        •
    </text>
    <text id="text2" x="269.325" y="45.6" fill="#000" stroke="none" font-family="xkcd Script" font-size="15">
        Docs
    </text>
    <text id="text0" x="-.675" y="9.6" fill="#000" font-family="xkcd Script" font-size="15">
        no need to ask
    </text>
    <text id="text3" x="296.325" y="117.6" fill="#000" font-family="xkcd Script" font-size="15">
        •
    </text>
    <text id="text4" x="309.825" y="117.6" fill="#000" font-family="xkcd Script" font-size="15">
        Pairing
    </text>
    <text id="text5" x="377.325" y="177.6" fill="#000" font-family="xkcd Script" font-size="15">
        •
    </text>
    <text id="text6" x="390.825" y="177.6" fill="#000" font-family="xkcd Script" font-size="15">
        Training
    </text>
    <text id="text7" x="235.575" y="237.6" fill="#000" font-family="xkcd Script" font-size="15">
        we&apos;re serious about handing over
    </text>
</svg>
