<svg xmlns="http://www.w3.org/2000/svg" width="792" height="256" version="1.1" viewBox="0 0 594 192">
    <g id="surface85">
        <path fill="#ef5ba1" fill-opacity="1" fill-rule="nonzero" stroke="none" d="M4.5 49.602h540v124.796h-108V216l-54-41.602H4.5zm0 0" transform="scale(.75)"/>
        <path fill="none" stroke="#000" stroke-linecap="butt" stroke-linejoin="miter" stroke-miterlimit="10" stroke-opacity="1" stroke-width="1.5" d="M5.926 36.665c149.02 7.96 298.691 4.863 401.708-.36M4.014 37.988c90.052-.444 180.266-.372 405.718-.081m-1.319-2.025c.861 16.62 3.37 39.434.173 96.287m.847-95.461c.155 20.06-.296 37.506-.12 95.347m2.173-1.752c-27.627-5.517-56.177-4.046-81.638.161m80.104.724c-29.33-4.152-55.767-5.376-80.77-.059m.721-1.561c-1.034 15.723.03 23.988-.472 33.193m-1.154-31.749c1.222 6.747-.07 18.07.48 30.887m.771 1.878c-8.188-12.044-18.17-19.242-42.498-31.699m42.355 30.381c-9.814-10.45-16.687-17.118-42.229-31.535m2.857.407c-99.802 1.325-198.862-1.485-286.936.18m285.34-1.68c-105.35 1.688-210.253.405-285.432 1.243m1.237.284c.553-25.761.43-54.34-1.846-94.729m1.623 94.345c-1.327-22.28-1.057-45.047-.117-93.041m-.34-.7c.015.266.58.03.938.351m-1.125-.404c.536.176.958.302 1.219.547"/>
    </g>
    <defs xmlns="http://www.w3.org/2000/svg">
        <filter id="dsFilterNoBlur" width="150%" height="150%">
            <feOffset dx="3" dy="3" in="SourceGraphic" result="offOut"/>
            <feColorMatrix in="offOut" result="matrixOut" type="matrix" values="0.2 0 0 0 0 0 0.2 0 0 0 0 0 0.2 0 0 0 0 0 1 0"/>
            <feBlend in="SourceGraphic" in2="matrixOut" mode="normal"/>
        </filter>
        <filter id="dsFilter" width="150%" height="150%">
            <feOffset dx="3" dy="3" in="SourceGraphic" result="offOut"/>
            <feColorMatrix in="offOut" result="matrixOut" type="matrix" values="0.2 0 0 0 0 0 0.2 0 0 0 0 0 0.2 0 0 0 0 0 1 0"/>
            <feGaussianBlur in="matrixOut" result="blurOut" stdDeviation="3"/>
            <feBlend in="SourceGraphic" in2="blurOut" mode="normal"/>
        </filter>
        <marker id="iPointer-opldokm75i" fill="#000" markerHeight="7" markerUnits="strokeWidth" markerWidth="8" orient="auto" refX="5" refY="5" viewBox="0 0 10 10">
            <path d="M10 0v10L0 5z"/>
        </marker>
        <marker id="Pointer-opldokm75i" fill="#000" markerHeight="7" markerUnits="strokeWidth" markerWidth="8" orient="auto" refX="5" refY="5" viewBox="0 0 10 10">
            <path d="M0 0l10 5-10 5z"/>
        </marker>
    </defs>
    <defs>
        <style type="text/css">
            @font-face{font-family:&quot;xkcd Script&quot;;src:url(./xkcd-script.ttf)}
        </style>
    </defs>
    ??
    <text id="text0" x="53.325" y="69.6" fill="#fff" stroke="none" font-family="xkcd Script" font-size="15">
        We should forget about small efficiencies,
    </text>
    <text id="text1" x="53.325" y="81.6" fill="#fff" stroke="none" font-family="xkcd Script" font-size="15">
        say about 97% of the time:
    </text>
    <text id="text2" x="53.325" y="93.6" fill="#fff" stroke="none" font-family="xkcd Script" font-size="15">
        premature optimization is the root of all evil
    </text>
    <text id="text3" x="235.575" y="117.6" fill="#fff" stroke="none" font-family="xkcd Script" font-size="15">
        -
    </text>
    <text id="text4" x="249.075" y="117.6" fill="#fff" stroke="none" font-family="xkcd Script" font-size="15">
        Donald Knuth
    </text>
</svg>
