<svg xmlns="http://www.w3.org/2000/svg" width="196pt" height="240" version="1.1" viewBox="0 0 196 180">
    <g id="surface117">
        <path fill="#fff" fill-opacity="1" fill-rule="nonzero" stroke="none" d="M66.602 27.2H87.3V8h41.398v19.2h20.7V200H66.601V27.2m0 172.8l10.347-19.2V200L87.3 180.8V200l10.347-19.2V200L108 180.8V200l10.352-19.2V200l10.347-19.2V200l10.352-19.2V200l10.347-19.2H66.602m0-153.6zm0 0" transform="scale(.75)"/>
        <path fill="none" stroke="#000" stroke-linecap="butt" stroke-linejoin="miter" stroke-miterlimit="10" stroke-opacity="1" stroke-width="1.5" d="M52.5 19.863c3.794 3.53 8.235.431 12.235-.357m-14.149 1.681c3.756.384 7.672.458 16.245-.078m-1.307-2.01c-.447-3.94 2.034-5.104.17-12.185m.84 13.005c-.183-1.46-.629-6.056-.122-13.12m2.174-1.743c9.454-2.416 17.985-.946 30.41.162m-31.945.723c9.273-.96 21.44-2.185 31.28-.058M99 4.389c-1.095 8.062-.077 10.64-.454 16.743M97.438 5.774c.99 3.61-.252 8.974.46 14.528m.78 1.878c4.459-3.155 6.938-3.415 13.526-.5m-13.67-.818c1.397-2.167 6.132-2.376 13.796-.34m2.856.41c1.122 45.581 1.263 87.932-2.24 129.78m.647-131.28c.474 47.893.061 94.173-.738 130.843m1.239.285c-18.95 1.892-37.368.368-65.145-1.129m64.92.744c-15.51-.547-30.173-1.233-63.411.558m1.468-.349c-2.78-29.722.457-65.338-3.056-130.7m.84 130.079c1.19-49.858.716-100.251.286-128.388m1.663 130.236c4.023-6.357 5.347-13.602 6.794-15.94m-8.345 15.703c3.342-3.9 4.669-7.09 8.19-14.053m1.668-1.62c-2.81 6.485-2.397 12.737.28 12.872m-2.152-11.256c-.323 3.258.864 5.953 1.318 12.513m-1.761-1.594c4.301-1.526 6.833-7.494 7.339-13.262m-6.938 14.85c2.154-3.09 3.856-5.982 8.35-15.1m1.017 1.486c-2.271 4.77-1.867 8.197-2.657 14.81m1.21-16.225c.738 4.295-.317 6.231 1.25 15.885m-1.89-1.33c5.09-3.985 6.057-10.667 9.62-13.814m-8.47 15.12c2.317-4.746 4.036-7.49 6.913-15.607m-.255-.357c1.958 3.8-.867 11.01.083 16.01m1.45-15.415c-.252 4.31-.457 7.35-.791 14.57m.817-.753c-.66-2.605 1.289-2.705 4.565-13.726m-5.18 13.857c1.394-4.113 3.245-6.302 6.422-13.23m-1.043-2.054c3.345 6.053 2.337 10.509.237 16.948m1.28-15.732c-.14 4.934.217 11.47-.727 15.203m2.575-1.733c.86-5.076 1.571-9.435 4.243-13.447m-5.422 15.844c.872-5.077 4.376-9.556 8.058-14.551M89.53 135c.698 5.121-1.225 10.667-2.078 13.155m2.201-12.575c-.673 6.929-1.042 11.874-1.825 13.552m.135.722c1.708-5.271 6.313-6.724 9.108-15.48m-7.69 15.568c2.37-5.072 2.748-8.051 7.397-14.241m-1.963 1.558c1.814 2.273.792 5.487-.272 11.733m1.151-13.57c-.21 2.314 1.573 5.677 1.656 15.37m-1.65-1.7c.85-1.391 4.545-7.565 10.336-12.85m-8.91 13.322c.773-2.432 3.126-6.39 8.136-14.376m-1.005-.393c1.292 3.814.345 9.606.767 13.57m-1.318-12.457c.419 3.768.61 8.42 1.128 15.088m-.36 1.105c1.3-6.185 4.825-11.297 5.906-15.627m-5.812 14.1c1.6-5.695 2.941-9.738 6.559-15.21m-.84 2.19c-18.543-4.212-33.868-.986-62.4-1.18m65.115-.925c-16.412-.417-31.69-.42-63.682-.24m2.01-115.568c.005-.399-.191-.106-.11 1.295m.12-1.538c.019-.056-.02.39-.102 1.461"/>
    </g>
    <defs xmlns="http://www.w3.org/2000/svg">
        <filter id="dsFilterNoBlur" width="150%" height="150%">
            <feOffset dx="3" dy="3" in="SourceGraphic" result="offOut"/>
            <feColorMatrix in="offOut" result="matrixOut" type="matrix" values="0.2 0 0 0 0 0 0.2 0 0 0 0 0 0.2 0 0 0 0 0 1 0"/>
            <feBlend in="SourceGraphic" in2="matrixOut" mode="normal"/>
        </filter>
        <filter id="dsFilter" width="150%" height="150%">
            <feOffset dx="3" dy="3" in="SourceGraphic" result="offOut"/>
            <feColorMatrix in="offOut" result="matrixOut" type="matrix" values="0.2 0 0 0 0 0 0.2 0 0 0 0 0 0.2 0 0 0 0 0 1 0"/>
            <feGaussianBlur in="matrixOut" result="blurOut" stdDeviation="3"/>
            <feBlend in="SourceGraphic" in2="blurOut" mode="normal"/>
        </filter>
        <marker id="iPointer-pzbpmw82g8q" fill="#000" markerHeight="7" markerUnits="strokeWidth" markerWidth="8" orient="auto" refX="5" refY="5" viewBox="0 0 10 10">
            <path d="M10 0v10L0 5z"/>
        </marker>
        <marker id="Pointer-pzbpmw82g8q" fill="#000" markerHeight="7" markerUnits="strokeWidth" markerWidth="8" orient="auto" refX="5" refY="5" viewBox="0 0 10 10">
            <path d="M0 0l10 5-10 5z"/>
        </marker>
    </defs>
    <defs>
        <style type="text/css">
            @font-face{font-family:&quot;xkcd Script&quot;;src:url(./xkcd-script.ttf)}
        </style>
    </defs>
    ??
</svg>
