<svg xmlns="http://www.w3.org/2000/svg" xmlns:xlink="http://www.w3.org/1999/xlink" width="288" height="176" version="1.1" viewBox="0 0 216 132">
    <defs>
        <pattern id="pattern0" width="216" height="132" patternUnits="userSpaceOnUse">
            <use xlink:href="#image168"/>
        </pattern>
    </defs>
    <g id="surface162">
        <path fill="url(#pattern0)" fill-rule="nonzero" stroke="none" d="M4.5 8h18v16h18V8h18v16h18V8h18v16h18V8h18v16h18V8h18v16h18V8h18v16h18V8h18v16h18V8h18v128h-18v-16h-18v16h-18v-16h-18v16h-18v-16h-18v16h-18v-16h-18v16h-18v-16h-18v16h-18v-16h-18v16h-18v-16h-18v16h-18zm0 0" transform="scale(.75)"/>
        <path fill="none" stroke="#000" stroke-linecap="butt" stroke-linejoin="miter" stroke-miterlimit="10" stroke-opacity="1" stroke-width="1.5" d="M2.599 4.36c4.236-.053 11.794-.748 16.687.166M3.71 4.234c6.357 1.233 10.462.377 13.503.208m-.861-1.05c3.149 3.968 1.72 7.15 1.086 12.18m-.296-10.536c.449 4.163 1.697 8.3 1.011 12.492m-.756.43c4.418-2.088 6.086-1.713 14.453-1.971m-13.7.703c5.576.677 9.797.191 12.653-.43m.105.05c.716-2.646 1.853-8.616-.667-11.473m.92 11.95c.334-2.136.636-4.447.741-11.12M29.543 4.59c6.375-.02 9.92 1.81 15.308.84m-12.689.773c4.204-.098 7.907.541 13.016-.604m1.23-1.193c.024 5.839-.49 9.598-1.932 13.91m.518-12.427c.085 3.325-.278 6.521-.504 12.832m2.033-2.3c1.011 3.56 5.886 3.243 10.403 1.705m-12.032.36c4.715-1.147 8.664-.214 13.846-.626m-.724-.07c1.632-3.695.258-8.869 1.521-10.457m-1.24 9.92c-.128-3.023.312-5.03.748-12.088m1.198-.345c5.335 3.573 8.426.943 12.545 1.632m-14.133-.235c4.038-.395 10.36.313 12.809.012m-.518.07c-.162 4.318-.446 6.949-.387 10.233m1.063-9.879c-.532 3.607.284 5.895.428 10.917m.981-1.439c3.803 1.298 8.479 1.102 13.263 3.032M71.79 17.771c4.969-1.675 9.861-1.537 13.943.83m.779-.956c-1.043-5.703.108-9.825.325-12.243m-2.209 12.03c.864-4.425.434-8.13.2-10.705m-.27-.003c3.155.123 6.27-2.01 16.14-2.335M84.853 6.092c5.707.682 9.632 1.347 14.475.207m-.36-.331c1.031 2.534-1.679 5.156 1.62 12.436M98.854 6.32c-.089 2.085-.656 4.968.412 11.516m1.125-1.532c2.127 4.62 6.338 3.677 10.495 1.277m-12.63 1.243c5.455-.466 9.97.105 14.229-.375m-.987 1.08c1.046-6.333.176-11.604 1.298-11.923m-.61 9.703c1.1-3.357-.175-6.83.045-10.576m.606.058c4.723-.07 7.477-2.592 13.799-1.65m-14.242.312c6.057.758 9.426.517 13.79 1.374m-.207-.973c-1.008 2.73-1.035 7.649-1.24 12.7m1.272-13.208c-.595 5.002-.331 9.042-.261 13.216m1.617-2.032c3.132 3.697 4.389 2.944 12.281.167m-12.855 1.382c3.747-.668 6.396-.953 11.86.832m-.437-.87c.595-4.177 1.435-9.328.782-12.619m.3 12.789c.04-5.37 1.065-11.069.254-12.706m.19-.888c3.93.648 9.281 1.143 12.358.931m-11.86.692c2.007.238 6.235-.24 12.636-1.163m-.442-.583c1.869 5.291 1.125 9.545 1.53 15.023m-.687-13.025c.194 1.995-.009 7.119.346 11.737m1.028-1.093c2.98.328 7.284.718 10.773.126m-12.173.538c3.706-1.479 6.143-.28 12.782.783m-1.016-1.515c1.418-3.407.07-7.553 1.339-11.792m-.44 12.12c.949-1.224.153-4.26.67-11.574m1.064-1.553c3.091.31 5.25.809 11.37 2.174m-12.093-.613c3.665.932 7.052 2.394 12.943.897m-1.368.521c1.079 1.108.243 5.739.794 9.197m.574-11.28c.586 2.865.053 8.575-.75 13.064m2.113 1.18c4.728 2.075 7.025.355 10.377-1.297m-10.838-.756c2.696 2.053 7.82 2.628 11.965.744m1.521-1.108c-.982-4.989-.85-7.904-.908-11.16m.814 12.27c-.393-4.693-1.389-8.214-1.547-12.77m-.829-.407c5.124-2.646 9.495-1.703 14.918 1.902m-12.97-1.398c4.673-.2 8.379.252 13.787.018m.197 1.294c.193 23.04.87 46.225-.858 95.57m-.546-95.453c2.306 29.795 1.875 57.449 1.064 95.397m.685.167c-6.48-2.804-9.12-.398-16.227 1.143m15.627-2.1c-4.755-2.04-11.283-2.787-13.644.755m-1.318-.398c-.624-2.168 2.554-8.696.167-11.904m.744 11.874c-.047-2.698.48-8.124-.205-12.064m-.44.996c-2.06-.827-7.795-.498-14.18-2.391m14.45 1.183c-1.93 1.896-5.528 1.75-13.558.077m.363 1.875c1.368 2.724.27 5.013.618 10.441m-.351-11.458c.474 4.354.664 5.813-.827 11.44m-.143 1.249c-2.898-.593-6.112.21-14.403-.51m14.88-1.48c-3.486 1.82-7.427 2.906-12.773.164m-.923.818c1.631-1.778-.859-4.33 2.03-10.878m-1.192 11.018c-.844-5.625-.513-7.749-.09-12.577m-.297-.21c-2.018 1.025-4.916-1.108-13.676-.247m13.058.484c-2.52 1.866-7.02 1.878-13.175.416m.923-.504c-.765 4.11-.996 6.641-2.195 10.95m1.84-9.776c-.48 3.897-.57 8.523.232 11.426m.773-1.125c-4.884 3.062-10.2.577-13.655.493m12.076 1.338c-4.169-.348-9.835-1.884-12.354-.624m.252 1.236c.22-3.606-2.388-6.439-.77-14.202m-.05 12.463c-.728-5.61-.206-8.47-.686-11.954m2.235-.913c-5.955 1.924-9.39-.379-16.189 1.5m14.573-1.012c-5.219 1.237-10.536.932-14.391.466m1.772.446c-2.678 5.548-.164 7.154.618 13.18m-2.194-13.262c1.066 2.209.316 5.329.398 11.467m-.102-.047c-5.461-.777-10.983-1.424-12.08.246m12.396.322c-5.777-1.04-10.972.056-12.937.044m.694-1.866c-.217-.334-2.91-3.015-2.314-11.429m1.236 12.179c.378-1.439-.973-5.444.17-11.112m.925-1.866c-7.045.503-10.134 2.313-16.165 1.766m13.93.917c-1.017-1.24-5.657-.905-12.723-.032m1.669-1.934c-2.378 4.638-2.317 8.283.083 11.432m-1.38-10.18c.006 2.264-.873 6.614.017 11.592m-.78.975c-4.584-3.603-9.277-3.421-13.37.343m13.67-1.42c-3.366-.065-5.388.116-13.547.228m1.47-.18c-1.414-2.003-1.827-4.435-.058-12.442m-1.646 12.66c.035-2.695.108-8.38-.252-11.85m2.431-.226c-4.435 1.795-5.628-.551-14.042-.41m12.528.157c-3.627 1.149-8.497.35-12.903 1.272m.12-.916c-.34 2.577.56 5.613-.7 11.46m-.123-10.987c.609 3.915.12 8.854-.583 11.603m-.264 1.778c-1.52-3.25-7.183-.167-11.481-.6m11.34-1.032c-1.692 1.272-5.82-.237-11.841-.87m.709-.211c-.894-3.19-.052-3.715-.83-11.555m-.277 12.67c-.431-2.714-1.184-6.116.284-12.145m.688-.138c-7.142 2.358-12.42.395-13.509-.136m11.253.5c-1.948-.713-6.27-1.577-12.427.647m-.648-1.966c.167 4.391-.451 10.21.996 11.407m-.68-11.155c.6 5.197.665 9.21-.208 12.697m.381.893c-3.645.262-9.905.013-14.478.718m14.924-.767c-3.302-.865-7.963.246-13.907-1.05m.275-1.247c-1.802-2.01-.088-5.98-1.025-9.182m1.148 11.042c-.044-5.033-.54-8.648-.363-12.463m-1.6.387c-4.48-1.395-5.74-1.509-13.374-1.834m14.078 2.018c-2.919.366-6.845-.12-13.158-.295m-.618.808c2.789 2.96 1.907 2.88 1.222 10.638m.304-12.34c-.606 3.928.223 6.78-.536 13.36m-1.16-1.06c-3.337-.561-4.123.79-10.913-.455m13.107.471c-5.927-.296-9.91-.457-13.75.815m.836-1.254c-.252-2.657-3.07-6.94-.012-11.147m-1.36 12.284c.394-4.758-.31-6.988.274-11.505m1.15-2.514c-.035-23.493-.846-51.21-2.093-83.244m1 85.47c-.372-24.858.13-50.762.437-85.576"/>
    </g>
    <defs xmlns="http://www.w3.org/2000/svg">
        <filter id="dsFilterNoBlur" width="150%" height="150%">
            <feOffset dx="3" dy="3" in="SourceGraphic" result="offOut"/>
            <feColorMatrix in="offOut" result="matrixOut" type="matrix" values="0.2 0 0 0 0 0 0.2 0 0 0 0 0 0.2 0 0 0 0 0 1 0"/>
            <feBlend in="SourceGraphic" in2="matrixOut" mode="normal"/>
        </filter>
        <filter id="dsFilter" width="150%" height="150%">
            <feOffset dx="3" dy="3" in="SourceGraphic" result="offOut"/>
            <feColorMatrix in="offOut" result="matrixOut" type="matrix" values="0.2 0 0 0 0 0 0.2 0 0 0 0 0 0.2 0 0 0 0 0 1 0"/>
            <feGaussianBlur in="matrixOut" result="blurOut" stdDeviation="3"/>
            <feBlend in="SourceGraphic" in2="blurOut" mode="normal"/>
        </filter>
        <marker id="iPointer-yb8bnzry06" fill="#000" markerHeight="7" markerUnits="strokeWidth" markerWidth="8" orient="auto" refX="5" refY="5" viewBox="0 0 10 10">
            <path d="M10 0v10L0 5z"/>
        </marker>
        <marker id="Pointer-yb8bnzry06" fill="#000" markerHeight="7" markerUnits="strokeWidth" markerWidth="8" orient="auto" refX="5" refY="5" viewBox="0 0 10 10">
            <path d="M0 0l10 5-10 5z"/>
        </marker>
    </defs>
    <defs>
        <style type="text/css">
            @font-face{font-family:&quot;xkcd Script&quot;;src:url(./xkcd-script.ttf)}
        </style>
    </defs>
    <g xmlns="http://www.w3.org/2000/svg" id="lines-yb8bnzry06" fill="none" stroke="#000" stroke-width="2" transform="scale(.75)">
        <g id="group64">
            <path id="path64" fill="#fff" d="M4.5 8h18v16h18V8h18v16h18V8h18v16h18V8h18v16h18V8h18v16h18V8h18v16h18V8h18v16h18V8h18v128h-18v-16h-18v16h-18v-16h-18v16h-18v-16h-18v16h-18v-16h-18v16h-18v-16h-18v16h-18v-16h-18v16h-18v-16h-18v16h-18v-16z"/>
        </g>
    </g>
    <text id="text0" x="154.575" y="57.6" fill="#000" font-family="xkcd Script" font-size="15">
        NVIDIA
    </text>
</svg>
