<svg xmlns="http://www.w3.org/2000/svg" width="684" height="224" version="1.1" viewBox="0 0 513 168">
    <g id="surface113">
        <path fill="#27bdce" fill-opacity="1" fill-rule="nonzero" stroke="none" d="M58.5 43.2h540v105.6h-108V184l-54-35.2h-378zm0 0" transform="scale(.75)"/>
        <path fill="none" stroke="#000" stroke-linecap="butt" stroke-linejoin="miter" stroke-miterlimit="10" stroke-opacity="1" stroke-width="1.5" d="M46.427 31.863c149.019 8.485 298.69 5.388 401.707-.357m-403.62 1.681c90.052-.542 180.266-.468 405.718-.078m-1.319-2.028c.686 13.043 3.196 32.675.173 81.89m.847-81.06c.108 17.065-.34 31.582-.12 80.944m2.173-1.752c-27.627-6.059-56.176-4.588-81.638.161m80.104.726c-29.33-4.714-55.767-5.938-80.77-.061m.721-1.559c-1.066 14.338-.006 20.9-.472 28.392m-1.154-26.95c1.163 4.509-.129 14.082.48 26.088m.771 1.878c-8.159-11.425-18.14-17.557-42.498-26.9m42.355 25.583c-9.876-9.877-16.746-15.555-42.229-26.738m2.857.408c-99.387.981-198.03-1.825-285.742.179m284.145-1.679c-104.912 1.172-209.376-.112-284.235 1.245m1.236.281c.37-21.061.243-45.48-1.845-80.326m1.623 79.945c-1.211-19.195-.944-38.563-.117-78.645m-.449-.72c-.1.331-.003.32-.09.413m.023-.43c.03.352.015.506.009.483"/>
    </g>
    <defs xmlns="http://www.w3.org/2000/svg">
        <filter id="dsFilterNoBlur" width="150%" height="150%">
            <feOffset dx="3" dy="3" in="SourceGraphic" result="offOut"/>
            <feColorMatrix in="offOut" result="matrixOut" type="matrix" values="0.2 0 0 0 0 0 0.2 0 0 0 0 0 0.2 0 0 0 0 0 1 0"/>
            <feBlend in="SourceGraphic" in2="matrixOut" mode="normal"/>
        </filter>
        <filter id="dsFilter" width="150%" height="150%">
            <feOffset dx="3" dy="3" in="SourceGraphic" result="offOut"/>
            <feColorMatrix in="offOut" result="matrixOut" type="matrix" values="0.2 0 0 0 0 0 0.2 0 0 0 0 0 0.2 0 0 0 0 0 1 0"/>
            <feGaussianBlur in="matrixOut" result="blurOut" stdDeviation="3"/>
            <feBlend in="SourceGraphic" in2="blurOut" mode="normal"/>
        </filter>
        <marker id="iPointer-opldokm75i" fill="#000" markerHeight="7" markerUnits="strokeWidth" markerWidth="8" orient="auto" refX="5" refY="5" viewBox="0 0 10 10">
            <path d="M10 0v10L0 5z"/>
        </marker>
        <marker id="Pointer-opldokm75i" fill="#000" markerHeight="7" markerUnits="strokeWidth" markerWidth="8" orient="auto" refX="5" refY="5" viewBox="0 0 10 10">
            <path d="M0 0l10 5-10 5z"/>
        </marker>
    </defs>
    <defs>
        <style type="text/css">
            @font-face{font-family:&quot;xkcd Script&quot;;src:url(./xkcd-script.ttf)}
        </style>
    </defs>
    ??
    <text id="text0" x="66.825" y="57.6" fill="#fff" stroke="none" font-family="xkcd Script" font-size="15">
        Program to where the performance puck is going to be,
    </text>
    <text id="text1" x="66.825" y="69.6" fill="#fff" stroke="none" font-family="xkcd Script" font-size="15">
        not where it has been
    </text>
    <text id="text2" x="276.075" y="93.6" fill="#fff" stroke="none" font-family="xkcd Script" font-size="15">
        -
    </text>
    <text id="text3" x="289.575" y="93.6" fill="#fff" stroke="none" font-family="xkcd Script" font-size="15">
        DHH
    </text>
</svg>
