<svg class="marks" width="541" height="270" viewBox="0 0 541 270" version="1.1" xmlns="http://www.w3.org/2000/svg" xmlns:xlink="http://www.w3.org/1999/xlink"><g transform="translate(65,15)"><g class="mark-group role-frame root"><g transform="translate(0,0)"><path class="background" d="M0.5,0.5h400v200h-400Z" style="fill: none; stroke: #ddd;"></path><g><g class="mark-group role-axis"><g transform="translate(0.5,200.5)"><path class="background" d="M0,0h0v0h0Z" style="pointer-events: none; fill: none;"></path><g><g class="mark-rule role-axis-grid" style="pointer-events: none;"><line transform="translate(5,-200)" x2="0" y2="200" style="fill: none; stroke: #ddd; stroke-width: 1; opacity: 1;"></line><line transform="translate(37,-200)" x2="0" y2="200" style="fill: none; stroke: #ddd; stroke-width: 1; opacity: 1;"></line><line transform="translate(70,-200)" x2="0" y2="200" style="fill: none; stroke: #ddd; stroke-width: 1; opacity: 1;"></line><line transform="translate(103,-200)" x2="0" y2="200" style="fill: none; stroke: #ddd; stroke-width: 1; opacity: 1;"></line><line transform="translate(135,-200)" x2="0" y2="200" style="fill: none; stroke: #ddd; stroke-width: 1; opacity: 1;"></line><line transform="translate(167,-200)" x2="0" y2="200" style="fill: none; stroke: #ddd; stroke-width: 1; opacity: 1;"></line><line transform="translate(200,-200)" x2="0" y2="200" style="fill: none; stroke: #ddd; stroke-width: 1; opacity: 1;"></line><line transform="translate(233,-200)" x2="0" y2="200" style="fill: none; stroke: #ddd; stroke-width: 1; opacity: 1;"></line><line transform="translate(265,-200)" x2="0" y2="200" style="fill: none; stroke: #ddd; stroke-width: 1; opacity: 1;"></line><line transform="translate(297,-200)" x2="0" y2="200" style="fill: none; stroke: #ddd; stroke-width: 1; opacity: 1;"></line><line transform="translate(330,-200)" x2="0" y2="200" style="fill: none; stroke: #ddd; stroke-width: 1; opacity: 1;"></line><line transform="translate(363,-200)" x2="0" y2="200" style="fill: none; stroke: #ddd; stroke-width: 1; opacity: 1;"></line><line transform="translate(395,-200)" x2="0" y2="200" style="fill: none; stroke: #ddd; stroke-width: 1; opacity: 1;"></line></g></g></g></g><g class="mark-group role-axis"><g transform="translate(0.5,0.5)"><path class="background" d="M0,0h0v0h0Z" style="pointer-events: none; fill: none;"></path><g><g class="mark-rule role-axis-grid" style="pointer-events: none;"><line transform="translate(0,200)" x2="400" y2="0" style="fill: none; stroke: #ddd; stroke-width: 1; opacity: 1;"></line><line transform="translate(0,160)" x2="400" y2="0" style="fill: none; stroke: #ddd; stroke-width: 1; opacity: 1;"></line><line transform="translate(0,120)" x2="400" y2="0" style="fill: none; stroke: #ddd; stroke-width: 1; opacity: 1;"></line><line transform="translate(0,80)" x2="400" y2="0" style="fill: none; stroke: #ddd; stroke-width: 1; opacity: 1;"></line><line transform="translate(0,40)" x2="400" y2="0" style="fill: none; stroke: #ddd; stroke-width: 1; opacity: 1;"></line><line transform="translate(0,0)" x2="400" y2="0" style="fill: none; stroke: #ddd; stroke-width: 1; opacity: 1;"></line></g></g></g></g><g class="mark-rect role-mark marks"><path d="M2.500000000399072,196h5v4h-5Z" style="fill: #fe17bf;"></path><path d="M34.97775496277292,196h5v4h-5Z" style="fill: #fe17bf;"></path><path d="M67.45550992514677,188h5v8h-5Z" style="fill: #fe17bf;"></path><path d="M100.02224503810245,176h5v12h-5Z" style="fill: #fe17bf;"></path><path d="M132.50000000047632,164h5v16h-5Z" style="fill: #fe17bf;"></path><path d="M164.97775496285016,136h5v28h-5Z" style="fill: #fe17bf;"></path><path d="M197.45550992522402,132h5v32h-5Z" style="fill: #fe17bf;"></path><path d="M230.02224503817968,128h5v36h-5Z" style="fill: #fe17bf;"></path><path d="M262.50000000055354,116h5v40h-5Z" style="fill: #fe17bf;"></path><path d="M294.9777549629274,116h5v40h-5Z" style="fill: #fe17bf;"></path><path d="M327.4555099253012,80h5v60h-5Z" style="fill: #fe17bf;"></path><path d="M360.0222450382569,80h5v60h-5Z" style="fill: #fe17bf;"></path><path d="M392.5000000006308,72h5v60h-5Z" style="fill: #fe17bf;"></path><path d="M2.500000000399072,200h5v0h-5Z" style="fill: #3364c0;"></path><path d="M34.97775496277292,200h5v0h-5Z" style="fill: #3364c0;"></path><path d="M67.45550992514677,196h5v4h-5Z" style="fill: #3364c0;"></path><path d="M100.02224503810245,188h5v8h-5Z" style="fill: #3364c0;"></path><path d="M132.50000000047632,180h5v8h-5Z" style="fill: #3364c0;"></path><path d="M164.97775496285016,164h5v16h-5Z" style="fill: #3364c0;"></path><path d="M197.45550992522402,164h5v16h-5Z" style="fill: #3364c0;"></path><path d="M230.02224503817968,164h5v16h-5Z" style="fill: #3364c0;"></path><path d="M262.50000000055354,156h5v20h-5Z" style="fill: #3364c0;"></path><path d="M294.9777549629274,156h5v20h-5Z" style="fill: #3364c0;"></path><path d="M327.4555099253012,140h5v28h-5Z" style="fill: #3364c0;"></path><path d="M360.0222450382569,140h5v28h-5Z" style="fill: #3364c0;"></path><path d="M392.5000000006308,132h5v32h-5Z" style="fill: #3364c0;"></path><path d="M2.500000000399072,200h5v0h-5Z" style="fill: #27bdce;"></path><path d="M34.97775496277292,200h5v0h-5Z" style="fill: #27bdce;"></path><path d="M67.45550992514677,200h5v0h-5Z" style="fill: #27bdce;"></path><path d="M100.02224503810245,196h5v4h-5Z" style="fill: #27bdce;"></path><path d="M132.50000000047632,188h5v12h-5Z" style="fill: #27bdce;"></path><path d="M164.97775496285016,180h5v20h-5Z" style="fill: #27bdce;"></path><path d="M197.45550992522402,180h5v20h-5Z" style="fill: #27bdce;"></path><path d="M230.02224503817968,180h5v20h-5Z" style="fill: #27bdce;"></path><path d="M262.50000000055354,176h5v24h-5Z" style="fill: #27bdce;"></path><path d="M294.9777549629274,176h5v24h-5Z" style="fill: #27bdce;"></path><path d="M327.4555099253012,168h5v32h-5Z" style="fill: #27bdce;"></path><path d="M360.0222450382569,168h5v32h-5Z" style="fill: #27bdce;"></path><path d="M392.5000000006308,164h5v36h-5Z" style="fill: #27bdce;"></path></g><g class="mark-group role-legend"><g transform="translate(418,0)"><path class="background" d="M0,0h53v56h-53Z" style="pointer-events: none; fill: none;"></path><g><g class="mark-group role-legend-entry"><g transform="translate(0,16)"><path class="background" d="M0,0h0v0h0Z" style="pointer-events: none; fill: none;"></path><g><g class="mark-group role-scope"><g transform="translate(0,0)"><path class="background" d="M0,0h49v12h-49Z" style="pointer-events: none; fill: none; opacity: 1;"></path><g><g class="mark-symbol role-legend-symbol" style="pointer-events: none;"><path transform="translate(6,6)" d="M-5,-5h10v10h-10Z" style="fill: #fe17bf; stroke-width: 1.5; opacity: 1;"></path></g><g class="mark-text role-legend-label" style="pointer-events: none;"><text text-anchor="start" transform="translate(16,9)" style="font-family: sans-serif; font-size: 10px; fill: #000; opacity: 1;">AMZN</text></g></g></g><g transform="translate(0,14)"><path class="background" d="M0,0h49v12h-49Z" style="pointer-events: none; fill: none; opacity: 1;"></path><g><g class="mark-symbol role-legend-symbol" style="pointer-events: none;"><path transform="translate(6,6)" d="M-5,-5h10v10h-10Z" style="fill: #3364c0; stroke-width: 1.5; opacity: 1;"></path></g><g class="mark-text role-legend-label" style="pointer-events: none;"><text text-anchor="start" transform="translate(16,9)" style="font-family: sans-serif; font-size: 10px; fill: #000; opacity: 1;">GOOG</text></g></g></g><g transform="translate(0,28)"><path class="background" d="M0,0h49v12h-49Z" style="pointer-events: none; fill: none; opacity: 1;"></path><g><g class="mark-symbol role-legend-symbol" style="pointer-events: none;"><path transform="translate(6,6)" d="M-5,-5h10v10h-10Z" style="fill: #27bdce; stroke-width: 1.5; opacity: 1;"></path></g><g class="mark-text role-legend-label" style="pointer-events: none;"><text text-anchor="start" transform="translate(16,9)" style="font-family: sans-serif; font-size: 10px; fill: #000; opacity: 1;">MSFT</text></g></g></g></g></g></g></g><g class="mark-text role-legend-title" style="pointer-events: none;"><text text-anchor="start" transform="translate(0,9)" style="font-family: sans-serif; font-size: 11px; font-weight: bold; fill: #000; opacity: 1;">symbol</text></g></g></g></g><g class="mark-group role-axis"><g transform="translate(0.5,200.5)"><path class="background" d="M0,0h0v0h0Z" style="pointer-events: none; fill: none;"></path><g><g class="mark-rule role-axis-tick" style="pointer-events: none;"><line transform="translate(5,0)" x2="0" y2="5" style="fill: none; stroke: #888; stroke-width: 1; opacity: 1;"></line><line transform="translate(37,0)" x2="0" y2="5" style="fill: none; stroke: #888; stroke-width: 1; opacity: 1;"></line><line transform="translate(70,0)" x2="0" y2="5" style="fill: none; stroke: #888; stroke-width: 1; opacity: 1;"></line><line transform="translate(103,0)" x2="0" y2="5" style="fill: none; stroke: #888; stroke-width: 1; opacity: 1;"></line><line transform="translate(135,0)" x2="0" y2="5" style="fill: none; stroke: #888; stroke-width: 1; opacity: 1;"></line><line transform="translate(167,0)" x2="0" y2="5" style="fill: none; stroke: #888; stroke-width: 1; opacity: 1;"></line><line transform="translate(200,0)" x2="0" y2="5" style="fill: none; stroke: #888; stroke-width: 1; opacity: 1;"></line><line transform="translate(233,0)" x2="0" y2="5" style="fill: none; stroke: #888; stroke-width: 1; opacity: 1;"></line><line transform="translate(265,0)" x2="0" y2="5" style="fill: none; stroke: #888; stroke-width: 1; opacity: 1;"></line><line transform="translate(297,0)" x2="0" y2="5" style="fill: none; stroke: #888; stroke-width: 1; opacity: 1;"></line><line transform="translate(330,0)" x2="0" y2="5" style="fill: none; stroke: #888; stroke-width: 1; opacity: 1;"></line><line transform="translate(363,0)" x2="0" y2="5" style="fill: none; stroke: #888; stroke-width: 1; opacity: 1;"></line><line transform="translate(395,0)" x2="0" y2="5" style="fill: none; stroke: #888; stroke-width: 1; opacity: 1;"></line></g><g class="mark-text role-axis-label" style="pointer-events: none;"><text text-anchor="middle" transform="translate(5.000000000399072,21)" style="font-family: sans-serif; font-size: 18px; fill: #000; opacity: 1;">2006</text><text text-anchor="middle" transform="translate(37.47775496277292,21)" style="font-family: sans-serif; font-size: 18px; fill: #000; opacity: 0;">2007</text><text text-anchor="middle" transform="translate(69.95550992514677,21)" style="font-family: sans-serif; font-size: 18px; fill: #000; opacity: 1;">2008</text><text text-anchor="middle" transform="translate(102.52224503810245,21)" style="font-family: sans-serif; font-size: 18px; fill: #000; opacity: 0;">2009</text><text text-anchor="middle" transform="translate(135.00000000047632,21)" style="font-family: sans-serif; font-size: 18px; fill: #000; opacity: 1;">2010</text><text text-anchor="middle" transform="translate(167.47775496285016,21)" style="font-family: sans-serif; font-size: 18px; fill: #000; opacity: 0;">2011</text><text text-anchor="middle" transform="translate(199.95550992522402,21)" style="font-family: sans-serif; font-size: 18px; fill: #000; opacity: 1;">2012</text><text text-anchor="middle" transform="translate(232.52224503817968,21)" style="font-family: sans-serif; font-size: 18px; fill: #000; opacity: 0;">2013</text><text text-anchor="middle" transform="translate(265.00000000055354,21)" style="font-family: sans-serif; font-size: 18px; fill: #000; opacity: 1;">2014</text><text text-anchor="middle" transform="translate(297.4777549629274,21)" style="font-family: sans-serif; font-size: 18px; fill: #000; opacity: 0;">2015</text><text text-anchor="middle" transform="translate(329.9555099253012,21)" style="font-family: sans-serif; font-size: 18px; fill: #000; opacity: 1;">2016</text><text text-anchor="middle" transform="translate(362.5222450382569,21)" style="font-family: sans-serif; font-size: 18px; fill: #000; opacity: 0;">2017</text><text text-anchor="middle" transform="translate(395.0000000006308,21)" style="font-family: sans-serif; font-size: 18px; fill: #000; opacity: 1;">2018</text></g><g class="mark-rule role-axis-domain" style="pointer-events: none;"><line transform="translate(0,0)" x2="400" y2="0" style="fill: none; stroke: #888; stroke-width: 1; opacity: 1;"></line></g><g class="mark-text role-axis-title" style="pointer-events: none;"><text text-anchor="middle" transform="translate(200,44)" style="font-family: sans-serif; font-size: 18px; font-weight: bold; fill: #000; opacity: 1;">date (year)</text></g></g></g></g><g class="mark-group role-axis"><g transform="translate(0.5,0.5)"><path class="background" d="M0,0h0v0h0Z" style="pointer-events: none; fill: none;"></path><g><g class="mark-rule role-axis-tick" style="pointer-events: none;"><line transform="translate(0,200)" x2="-5" y2="0" style="fill: none; stroke: #888; stroke-width: 1; opacity: 1;"></line><line transform="translate(0,160)" x2="-5" y2="0" style="fill: none; stroke: #888; stroke-width: 1; opacity: 1;"></line><line transform="translate(0,120)" x2="-5" y2="0" style="fill: none; stroke: #888; stroke-width: 1; opacity: 1;"></line><line transform="translate(0,80)" x2="-5" y2="0" style="fill: none; stroke: #888; stroke-width: 1; opacity: 1;"></line><line transform="translate(0,40)" x2="-5" y2="0" style="fill: none; stroke: #888; stroke-width: 1; opacity: 1;"></line><line transform="translate(0,0)" x2="-5" y2="0" style="fill: none; stroke: #888; stroke-width: 1; opacity: 1;"></line></g><g class="mark-text role-axis-label" style="pointer-events: none;"><text text-anchor="end" transform="translate(-7,205)" style="font-family: sans-serif; font-size: 18px; fill: #000; opacity: 1;">0</text><text text-anchor="end" transform="translate(-7,165)" style="font-family: sans-serif; font-size: 18px; fill: #000; opacity: 1;">10</text><text text-anchor="end" transform="translate(-7,125)" style="font-family: sans-serif; font-size: 18px; fill: #000; opacity: 1;">20</text><text text-anchor="end" transform="translate(-7,85)" style="font-family: sans-serif; font-size: 18px; fill: #000; opacity: 1;">30</text><text text-anchor="end" transform="translate(-7,45)" style="font-family: sans-serif; font-size: 18px; fill: #000; opacity: 1;">40</text><text text-anchor="end" transform="translate(-7,5)" style="font-family: sans-serif; font-size: 18px; fill: #000; opacity: 1;">50</text></g><g class="mark-rule role-axis-domain" style="pointer-events: none;"><line transform="translate(0,200)" x2="0" y2="-200" style="fill: none; stroke: #888; stroke-width: 1; opacity: 1;"></line></g><g class="mark-text role-axis-title" style="pointer-events: none;"><text text-anchor="middle" transform="translate(-40,100) rotate(-90) translate(0,-4)" style="font-family: sans-serif; font-size: 18px; font-weight: bold; fill: #000; opacity: 1;">Regions</text></g></g></g></g></g></g></g></g></svg>