<svg xmlns="http://www.w3.org/2000/svg" width="581pt" height="400" version="1.1" viewBox="0 0 581 300">
    <path id="surface5" fill="none" stroke="#000" stroke-linecap="butt" stroke-linejoin="miter" stroke-miterlimit="10" stroke-opacity="1" stroke-width="1.5" d="M339.058 78.19c-.032-11.358-22.833-23.964-52.632-23.203m54.478 24.979c-2.622-15.554-22.282-25.412-53.42-24.161m0 0c-26.247-.267-51.325 8.704-49.248 21.491m51-19.558c-28.054-2.127-51.501 8.303-52.26 18.31m0 0c-1.432 13.516 21.935 24.92 49.425 26.008m-48.718-24.352c1.292 9.797 22.429 23.08 50.188 23.681m0 0c26.188-.533 50.836-12.926 49.114-25.263m-47.104 26.156c27.697-.483 50.018-14.985 46.084-28.693m.144.343c1.74-3.621 1.725-.606 2.378 3.691m-2.733-3.911c.744 5.61 2.109 6.718 3.199 4.342M59.335 18.155c.229 82.992 1.075 162.437.249 235.872m.838-234.879c-1.216 87.132-1.224 172.149-.384 232.336m-1.919 1.234c.848 3.973 4.122 6.369 9.827 7.19m-8.189-5.558c-.96 3.228 1.907 5.651 8.599 7.274m-1.374.838c84.029-5.338 166.468-2.38 343.414-1.3m-341.534 1.083c70.33 3.885 143.01 3.891 342.885-.627"/>
    <defs xmlns="http://www.w3.org/2000/svg">
        <filter id="dsFilterNoBlur" width="150%" height="150%">
            <feOffset dx="3" dy="3" in="SourceGraphic" result="offOut"/>
            <feColorMatrix in="offOut" result="matrixOut" type="matrix" values="0.2 0 0 0 0 0 0.2 0 0 0 0 0 0.2 0 0 0 0 0 1 0"/>
            <feBlend in="SourceGraphic" in2="matrixOut" mode="normal"/>
        </filter>
        <filter id="dsFilter" width="150%" height="150%">
            <feOffset dx="3" dy="3" in="SourceGraphic" result="offOut"/>
            <feColorMatrix in="offOut" result="matrixOut" type="matrix" values="0.2 0 0 0 0 0 0.2 0 0 0 0 0 0.2 0 0 0 0 0 1 0"/>
            <feGaussianBlur in="matrixOut" result="blurOut" stdDeviation="3"/>
            <feBlend in="SourceGraphic" in2="blurOut" mode="normal"/>
        </filter>
        <marker id="iPointer-pqup7rit43" fill="#000" markerHeight="7" markerUnits="strokeWidth" markerWidth="8" orient="auto" refX="5" refY="5" viewBox="0 0 10 10">
            <path d="M10 0v10L0 5z"/>
        </marker>
        <marker id="Pointer-pqup7rit43" fill="#000" markerHeight="7" markerUnits="strokeWidth" markerWidth="8" orient="auto" refX="5" refY="5" viewBox="0 0 10 10">
            <path d="M0 0l10 5-10 5z"/>
        </marker>
    </defs>
    <defs>
        <style type="text/css">
            @font-face{font-family:&quot;xkcd Script&quot;;src:url(./xkcd-script.ttf)}
        </style>
    </defs>
    <g xmlns="http://www.w3.org/2000/svg" id="lines-pqup7rit43" fill="none" stroke="#000" stroke-width="2" transform="scale(.75)">
        <g id="group206">
            <path id="path206" marker-end="url(#Pointer-pqup7rit43)" marker-start="url(#iPointer-pqup7rit43)" d="M76.5 24v310q0 10 10 10h458"/>
        </g>
    </g>
    <text id="text3" x="242.325" y="81.6" fill="#000" stroke="none" font-family="xkcd Script" font-size="15">
        •
    </text>
    <text id="text4" x="255.825" y="81.6" fill="#000" stroke="none" font-family="xkcd Script" font-size="15">
        Public Cloud
    </text>
    <text id="text0" x="-.675" y="21.6" fill="#000" font-family="xkcd Script" font-size="15">
        utility
    </text>
    <text id="text1" x="80.325" y="45.6" fill="#000" font-family="xkcd Script" font-size="15">
        •
    </text>
    <text id="text2" x="93.825" y="45.6" fill="#000" font-family="xkcd Script" font-size="15">
        Renewables
    </text>
    <text id="text5" x="343.575" y="225.6" fill="#000" font-family="xkcd Script" font-size="15">
        •
    </text>
    <text id="text6" x="357.075" y="225.6" fill="#000" font-family="xkcd Script" font-size="15">
        Bitcoin
    </text>
    <text id="text7" x="289.575" y="273.6" fill="#000" font-family="xkcd Script" font-size="15">
        power consumption
    </text>
</svg>
